STARTFONT 2.1
COMMENT
COMMENT Converted from OpenType font "UbuntuMono-BoldItalic.ttf" by "otf2bdf 3.0".
COMMENT
FONT -FreeType-Ubuntu Mono-Bold-I-Normal--17-120-100-100-P-84-ISO10646-1
SIZE 12 100 100
FONTBOUNDINGBOX 16 17 -5 -3
STARTPROPERTIES 19
FOUNDRY "FreeType"
FAMILY_NAME "Ubuntu Mono"
WEIGHT_NAME "Bold"
SLANT "I"
SETWIDTH_NAME "Normal"
ADD_STYLE_NAME ""
PIXEL_SIZE 17
POINT_SIZE 120
RESOLUTION_X 100
RESOLUTION_Y 100
SPACING "P"
AVERAGE_WIDTH 84
CHARSET_REGISTRY "ISO10646"
CHARSET_ENCODING "1"
FONT_ASCENT 14
FONT_DESCENT 2
COPYRIGHT "Copyright 2011 Canonical Ltd.  Licensed under the Ubuntu Font Licence 1.0"
_OTF_FONTFILE "UbuntuMono-BoldItalic.ttf"
_OTF_PSNAME "UbuntuMono-BoldItalic"
ENDPROPERTIES
CHARS 1224
STARTCHAR 0000
ENCODING 0
SWIDTH 480 0
DWIDTH 8 0
BBX 0 0 0 0
BITMAP
ENDCHAR
STARTCHAR 0008
ENCODING 8
SWIDTH 480 0
DWIDTH 8 0
BBX 0 0 0 0
BITMAP
ENDCHAR
STARTCHAR 0009
ENCODING 9
SWIDTH 480 0
DWIDTH 8 0
BBX 0 0 0 0
BITMAP
ENDCHAR
STARTCHAR 000D
ENCODING 13
SWIDTH 480 0
DWIDTH 8 0
BBX 0 0 0 0
BITMAP
ENDCHAR
STARTCHAR 001D
ENCODING 29
SWIDTH 480 0
DWIDTH 8 0
BBX 0 0 0 0
BITMAP
ENDCHAR
STARTCHAR 0020
ENCODING 32
SWIDTH 480 0
DWIDTH 8 0
BBX 0 0 0 0
BITMAP
ENDCHAR
STARTCHAR 0021
ENCODING 33
SWIDTH 480 0
DWIDTH 8 0
BBX 4 10 3 0
BITMAP
30
30
70
60
60
60
00
40
C0
C0
ENDCHAR
STARTCHAR 0022
ENCODING 34
SWIDTH 480 0
DWIDTH 8 0
BBX 6 4 3 7
BITMAP
6C
EC
C8
C8
ENDCHAR
STARTCHAR 0023
ENCODING 35
SWIDTH 480 0
DWIDTH 8 0
BBX 8 10 1 0
BITMAP
1B
1B
7F
7F
24
6C
FE
48
D8
90
ENDCHAR
STARTCHAR 0024
ENCODING 36
SWIDTH 480 0
DWIDTH 8 0
BBX 8 14 1 -2
BITMAP
04
04
1F
3F
60
70
38
1E
06
06
FC
78
30
20
ENDCHAR
STARTCHAR 0025
ENCODING 37
SWIDTH 480 0
DWIDTH 8 0
BBX 10 10 0 1
BITMAP
38C0
2980
2B00
3A00
3400
0B00
1780
3580
6500
C700
ENDCHAR
STARTCHAR 0026
ENCODING 38
SWIDTH 480 0
DWIDTH 8 0
BBX 8 11 1 0
BITMAP
08
3E
36
26
3C
38
7B
DE
CC
DE
F6
ENDCHAR
STARTCHAR 0027
ENCODING 39
SWIDTH 480 0
DWIDTH 8 0
BBX 2 5 5 6
BITMAP
C0
C0
C0
80
80
ENDCHAR
STARTCHAR 0028
ENCODING 40
SWIDTH 480 0
DWIDTH 8 0
BBX 7 14 2 -2
BITMAP
0E
1C
38
30
60
60
C0
C0
C0
C0
60
60
30
20
ENDCHAR
STARTCHAR 0029
ENCODING 41
SWIDTH 480 0
DWIDTH 8 0
BBX 6 14 1 -2
BITMAP
18
0C
0C
0C
0C
0C
0C
0C
1C
18
30
70
C0
80
ENDCHAR
STARTCHAR 002A
ENCODING 42
SWIDTH 480 0
DWIDTH 8 0
BBX 7 6 2 4
BITMAP
10
54
FE
38
6C
6C
ENDCHAR
STARTCHAR 002B
ENCODING 43
SWIDTH 480 0
DWIDTH 8 0
BBX 7 7 1 1
BITMAP
08
18
18
FE
10
30
30
ENDCHAR
STARTCHAR 002C
ENCODING 44
SWIDTH 480 0
DWIDTH 8 0
BBX 4 5 2 -3
BITMAP
60
70
70
20
C0
ENDCHAR
STARTCHAR 002D
ENCODING 45
SWIDTH 480 0
DWIDTH 8 0
BBX 5 2 2 3
BITMAP
78
F8
ENDCHAR
STARTCHAR 002E
ENCODING 46
SWIDTH 480 0
DWIDTH 8 0
BBX 3 3 3 0
BITMAP
C0
E0
C0
ENDCHAR
STARTCHAR 002F
ENCODING 47
SWIDTH 480 0
DWIDTH 8 0
BBX 10 15 0 -3
BITMAP
01C0
0180
0380
0300
0600
0600
0C00
0C00
1800
1800
3000
3000
6000
E000
C000
ENDCHAR
STARTCHAR 0030
ENCODING 48
SWIDTH 480 0
DWIDTH 8 0
BBX 8 11 1 0
BITMAP
0C
3E
33
63
63
DB
DB
C6
C6
FC
78
ENDCHAR
STARTCHAR 0031
ENCODING 49
SWIDTH 480 0
DWIDTH 8 0
BBX 7 10 1 0
BITMAP
0E
3C
7C
0C
0C
18
18
18
FE
FC
ENDCHAR
STARTCHAR 0032
ENCODING 50
SWIDTH 480 0
DWIDTH 8 0
BBX 8 11 1 0
BITMAP
0C
3E
23
03
06
0E
18
70
60
FE
FC
ENDCHAR
STARTCHAR 0033
ENCODING 51
SWIDTH 480 0
DWIDTH 8 0
BBX 9 11 0 0
BITMAP
0400
1F00
1380
0180
0300
1E00
0700
0300
0300
6E00
FC00
ENDCHAR
STARTCHAR 0034
ENCODING 52
SWIDTH 480 0
DWIDTH 8 0
BBX 8 10 1 0
BITMAP
07
0F
1E
36
66
C6
FF
FE
0C
0C
ENDCHAR
STARTCHAR 0035
ENCODING 53
SWIDTH 480 0
DWIDTH 8 0
BBX 8 10 1 0
BITMAP
1F
30
30
20
7C
0E
06
06
DC
F8
ENDCHAR
STARTCHAR 0036
ENCODING 54
SWIDTH 480 0
DWIDTH 8 0
BBX 8 10 1 0
BITMAP
0F
3C
70
60
7E
C6
C6
C6
6E
7C
ENDCHAR
STARTCHAR 0037
ENCODING 55
SWIDTH 480 0
DWIDTH 8 0
BBX 8 10 2 0
BITMAP
7F
06
0C
18
18
30
70
60
E0
C0
ENDCHAR
STARTCHAR 0038
ENCODING 56
SWIDTH 480 0
DWIDTH 8 0
BBX 8 11 1 0
BITMAP
0C
3F
33
63
36
3C
6E
C6
C6
EE
7C
ENDCHAR
STARTCHAR 0039
ENCODING 57
SWIDTH 480 0
DWIDTH 8 0
BBX 8 11 1 0
BITMAP
08
3E
67
63
63
77
3F
06
0C
F8
F0
ENDCHAR
STARTCHAR 003A
ENCODING 58
SWIDTH 480 0
DWIDTH 8 0
BBX 4 8 3 0
BITMAP
20
70
70
00
00
C0
E0
C0
ENDCHAR
STARTCHAR 003B
ENCODING 59
SWIDTH 480 0
DWIDTH 8 0
BBX 5 10 2 -3
BITMAP
10
38
38
00
00
60
70
70
20
C0
ENDCHAR
STARTCHAR 003C
ENCODING 60
SWIDTH 480 0
DWIDTH 8 0
BBX 8 7 1 1
BITMAP
01
0F
7C
60
F0
3E
06
ENDCHAR
STARTCHAR 003D
ENCODING 61
SWIDTH 480 0
DWIDTH 8 0
BBX 8 5 1 2
BITMAP
7F
7F
00
FE
FE
ENDCHAR
STARTCHAR 003E
ENCODING 62
SWIDTH 480 0
DWIDTH 8 0
BBX 7 7 1 1
BITMAP
40
78
1E
06
1E
F8
C0
ENDCHAR
STARTCHAR 003F
ENCODING 63
SWIDTH 480 0
DWIDTH 8 0
BBX 6 11 3 0
BITMAP
30
FC
8C
0C
38
70
60
00
40
C0
C0
ENDCHAR
STARTCHAR 0040
ENCODING 64
SWIDTH 480 0
DWIDTH 8 0
BBX 8 13 1 -2
BITMAP
04
1F
31
61
4F
DB
D3
B2
96
DE
C0
60
7C
ENDCHAR
STARTCHAR 0041
ENCODING 65
SWIDTH 480 0
DWIDTH 8 0
BBX 8 10 0 0
BITMAP
06
0F
0B
1B
13
33
3F
7F
63
C3
ENDCHAR
STARTCHAR 0042
ENCODING 66
SWIDTH 480 0
DWIDTH 8 0
BBX 8 10 1 0
BITMAP
3E
33
63
66
7C
6E
C6
C6
FE
FC
ENDCHAR
STARTCHAR 0043
ENCODING 67
SWIDTH 480 0
DWIDTH 8 0
BBX 8 11 1 0
BITMAP
06
1F
39
70
60
60
60
E0
60
7E
3E
ENDCHAR
STARTCHAR 0044
ENCODING 68
SWIDTH 480 0
DWIDTH 8 0
BBX 8 10 1 0
BITMAP
3E
37
63
63
63
67
C6
CE
FC
F8
ENDCHAR
STARTCHAR 0045
ENCODING 69
SWIDTH 480 0
DWIDTH 8 0
BBX 8 10 1 0
BITMAP
3F
30
30
60
7E
60
60
E0
FE
FC
ENDCHAR
STARTCHAR 0046
ENCODING 70
SWIDTH 480 0
DWIDTH 8 0
BBX 9 10 1 0
BITMAP
3F80
3000
3000
3000
7E00
7E00
6000
6000
C000
C000
ENDCHAR
STARTCHAR 0047
ENCODING 71
SWIDTH 480 0
DWIDTH 8 0
BBX 8 11 1 0
BITMAP
06
1F
39
70
60
60
C6
C6
E6
7E
7C
ENDCHAR
STARTCHAR 0048
ENCODING 72
SWIDTH 480 0
DWIDTH 8 0
BBX 9 10 1 0
BITMAP
3180
7300
6300
6300
7F00
6600
C600
C600
C600
CC00
ENDCHAR
STARTCHAR 0049
ENCODING 73
SWIDTH 480 0
DWIDTH 8 0
BBX 8 10 1 0
BITMAP
3F
0C
0C
18
18
18
18
30
FC
FC
ENDCHAR
STARTCHAR 004A
ENCODING 74
SWIDTH 480 0
DWIDTH 8 0
BBX 8 10 1 0
BITMAP
1F
03
03
06
06
06
06
0C
FC
F8
ENDCHAR
STARTCHAR 004B
ENCODING 75
SWIDTH 480 0
DWIDTH 8 0
BBX 9 10 1 0
BITMAP
3380
3700
6E00
6C00
7800
7800
CC00
CC00
CE00
C600
ENDCHAR
STARTCHAR 004C
ENCODING 76
SWIDTH 480 0
DWIDTH 8 0
BBX 7 10 1 0
BITMAP
30
30
30
60
60
60
60
C0
FE
FC
ENDCHAR
STARTCHAR 004D
ENCODING 77
SWIDTH 480 0
DWIDTH 8 0
BBX 9 10 0 0
BITMAP
1980
3980
3B80
2B80
2F80
6D80
6100
6300
4300
C300
ENDCHAR
STARTCHAR 004E
ENCODING 78
SWIDTH 480 0
DWIDTH 8 0
BBX 9 10 1 0
BITMAP
3180
7100
7300
7B00
7B00
4A00
CE00
CE00
CE00
8400
ENDCHAR
STARTCHAR 004F
ENCODING 79
SWIDTH 480 0
DWIDTH 8 0
BBX 8 11 1 0
BITMAP
0C
3E
33
63
63
C3
C3
C6
C6
FC
78
ENDCHAR
STARTCHAR 0050
ENCODING 80
SWIDTH 480 0
DWIDTH 8 0
BBX 8 10 1 0
BITMAP
3F
33
63
63
67
7E
E0
C0
C0
C0
ENDCHAR
STARTCHAR 0051
ENCODING 81
SWIDTH 480 0
DWIDTH 8 0
BBX 8 14 1 -3
BITMAP
0C
3E
33
63
63
C3
C3
C6
C6
FC
78
30
3C
08
ENDCHAR
STARTCHAR 0052
ENCODING 82
SWIDTH 480 0
DWIDTH 8 0
BBX 8 10 1 0
BITMAP
3E
37
63
63
7E
7C
CC
CC
CC
C6
ENDCHAR
STARTCHAR 0053
ENCODING 83
SWIDTH 480 0
DWIDTH 8 0
BBX 8 11 1 0
BITMAP
0C
3F
70
60
70
3C
1E
06
06
FE
FC
ENDCHAR
STARTCHAR 0054
ENCODING 84
SWIDTH 480 0
DWIDTH 8 0
BBX 8 10 2 0
BITMAP
FF
18
18
30
30
30
30
60
60
60
ENDCHAR
STARTCHAR 0055
ENCODING 85
SWIDTH 480 0
DWIDTH 8 0
BBX 8 10 1 0
BITMAP
33
63
63
63
66
E6
C6
C6
FC
78
ENDCHAR
STARTCHAR 0056
ENCODING 86
SWIDTH 480 0
DWIDTH 8 0
BBX 8 10 2 0
BITMAP
C3
C6
C6
C6
CC
CC
D8
50
70
60
ENDCHAR
STARTCHAR 0057
ENCODING 87
SWIDTH 480 0
DWIDTH 8 0
BBX 9 10 1 0
BITMAP
6180
6180
6100
6B00
5B00
DB00
EA00
AE00
CE00
CC00
ENDCHAR
STARTCHAR 0058
ENCODING 88
SWIDTH 480 0
DWIDTH 8 0
BBX 10 10 0 0
BITMAP
19C0
1980
0F00
0E00
0C00
1E00
1E00
3600
6300
E300
ENDCHAR
STARTCHAR 0059
ENCODING 89
SWIDTH 480 0
DWIDTH 8 0
BBX 8 10 2 0
BITMAP
C3
66
6E
6C
78
30
30
70
60
60
ENDCHAR
STARTCHAR 005A
ENCODING 90
SWIDTH 480 0
DWIDTH 8 0
BBX 8 10 1 0
BITMAP
3F
03
06
0C
18
30
70
60
FE
FC
ENDCHAR
STARTCHAR 005B
ENCODING 91
SWIDTH 480 0
DWIDTH 8 0
BBX 8 15 2 -3
BITMAP
1F
1E
30
30
30
30
60
60
60
60
40
C0
C0
F0
F0
ENDCHAR
STARTCHAR 005C
ENCODING 92
SWIDTH 480 0
DWIDTH 8 0
BBX 4 15 3 -3
BITMAP
C0
40
60
60
60
60
60
60
60
60
60
60
30
30
30
ENDCHAR
STARTCHAR 005D
ENCODING 93
SWIDTH 480 0
DWIDTH 8 0
BBX 8 15 0 -3
BITMAP
0F
1F
03
03
06
06
06
06
0C
0C
0C
0C
18
78
F8
ENDCHAR
STARTCHAR 005E
ENCODING 94
SWIDTH 480 0
DWIDTH 8 0
BBX 8 6 1 4
BITMAP
0C
1E
36
76
E3
02
ENDCHAR
STARTCHAR 005F
ENCODING 95
SWIDTH 480 0
DWIDTH 8 0
BBX 8 2 -1 -3
BITMAP
7F
FF
ENDCHAR
STARTCHAR 0060
ENCODING 96
SWIDTH 480 0
DWIDTH 8 0
BBX 4 2 4 9
BITMAP
C0
70
ENDCHAR
STARTCHAR 0061
ENCODING 97
SWIDTH 480 0
DWIDTH 8 0
BBX 8 8 1 0
BITMAP
1F
7F
66
C6
C6
C6
FE
7E
ENDCHAR
STARTCHAR 0062
ENCODING 98
SWIDTH 480 0
DWIDTH 8 0
BBX 7 11 1 1
BITMAP
30
30
30
7C
7E
66
66
C6
C6
FC
F8
ENDCHAR
STARTCHAR 0063
ENCODING 99
SWIDTH 480 0
DWIDTH 8 0
BBX 8 8 1 0
BITMAP
1F
3E
60
E0
C0
C0
7C
7E
ENDCHAR
STARTCHAR 0064
ENCODING 100
SWIDTH 480 0
DWIDTH 8 0
BBX 9 12 1 0
BITMAP
0080
0300
0300
0300
1F00
7F00
6600
C600
C600
C600
FE00
7E00
ENDCHAR
STARTCHAR 0065
ENCODING 101
SWIDTH 480 0
DWIDTH 8 0
BBX 8 8 1 0
BITMAP
1E
3F
63
C6
FC
C0
74
7E
ENDCHAR
STARTCHAR 0066
ENCODING 102
SWIDTH 480 0
DWIDTH 8 0
BBX 11 15 -1 -3
BITMAP
00C0
03E0
0300
0600
1FC0
1FC0
0600
0C00
0C00
0C00
0C00
0C00
1800
7800
F000
ENDCHAR
STARTCHAR 0067
ENCODING 103
SWIDTH 480 0
DWIDTH 8 0
BBX 9 11 0 -3
BITMAP
0F80
3F80
3300
6300
6300
7300
3E00
0600
0600
FC00
7800
ENDCHAR
STARTCHAR 0068
ENCODING 104
SWIDTH 480 0
DWIDTH 8 0
BBX 7 12 1 0
BITMAP
08
30
30
30
3E
7E
66
66
66
C6
CC
CC
ENDCHAR
STARTCHAR 0069
ENCODING 105
SWIDTH 480 0
DWIDTH 8 0
BBX 6 11 2 0
BITMAP
38
38
00
F0
F0
30
30
60
60
7C
3C
ENDCHAR
STARTCHAR 006A
ENCODING 106
SWIDTH 480 0
DWIDTH 8 0
BBX 8 14 0 -3
BITMAP
03
07
00
1F
3F
06
06
06
06
0C
0C
0C
F8
70
ENDCHAR
STARTCHAR 006B
ENCODING 107
SWIDTH 480 0
DWIDTH 8 0
BBX 8 12 1 0
BITMAP
08
30
30
30
33
76
6C
78
78
6C
CC
C6
ENDCHAR
STARTCHAR 006C
ENCODING 108
SWIDTH 480 0
DWIDTH 8 0
BBX 5 11 3 0
BITMAP
F0
30
60
60
60
60
C0
C0
C0
F0
F8
ENDCHAR
STARTCHAR 006D
ENCODING 109
SWIDTH 480 0
DWIDTH 8 0
BBX 9 8 0 0
BITMAP
3F00
3F80
2D80
6D80
6D00
6300
4300
C300
ENDCHAR
STARTCHAR 006E
ENCODING 110
SWIDTH 480 0
DWIDTH 8 0
BBX 7 8 1 0
BITMAP
3E
7E
66
66
66
C6
CC
CC
ENDCHAR
STARTCHAR 006F
ENCODING 111
SWIDTH 480 0
DWIDTH 8 0
BBX 7 8 1 0
BITMAP
1C
7E
66
C6
C6
C6
FC
78
ENDCHAR
STARTCHAR 0070
ENCODING 112
SWIDTH 480 0
DWIDTH 8 0
BBX 8 11 0 -3
BITMAP
1E
3F
33
33
73
63
7E
7C
60
C0
C0
ENDCHAR
STARTCHAR 0071
ENCODING 113
SWIDTH 480 0
DWIDTH 8 0
BBX 8 11 1 -3
BITMAP
1F
3F
66
C6
C6
C6
FC
7C
0C
0C
18
ENDCHAR
STARTCHAR 0072
ENCODING 114
SWIDTH 480 0
DWIDTH 8 0
BBX 8 8 1 0
BITMAP
3F
3E
70
60
60
60
60
C0
ENDCHAR
STARTCHAR 0073
ENCODING 115
SWIDTH 480 0
DWIDTH 8 0
BBX 7 8 1 0
BITMAP
3E
3E
60
78
1C
0E
FC
FC
ENDCHAR
STARTCHAR 0074
ENCODING 116
SWIDTH 480 0
DWIDTH 8 0
BBX 7 10 2 0
BITMAP
30
30
FE
FE
60
60
60
60
7C
7C
ENDCHAR
STARTCHAR 0075
ENCODING 117
SWIDTH 480 0
DWIDTH 8 0
BBX 8 8 1 0
BITMAP
63
66
66
66
C6
CE
FE
7E
ENDCHAR
STARTCHAR 0076
ENCODING 118
SWIDTH 480 0
DWIDTH 8 0
BBX 7 8 2 0
BITMAP
C6
C6
CC
CC
D8
F8
70
60
ENDCHAR
STARTCHAR 0077
ENCODING 119
SWIDTH 480 0
DWIDTH 8 0
BBX 9 8 1 0
BITMAP
4180
4300
DB00
DB00
FA00
EE00
EC00
CC00
ENDCHAR
STARTCHAR 0078
ENCODING 120
SWIDTH 480 0
DWIDTH 8 0
BBX 8 8 1 0
BITMAP
63
76
3C
3C
38
7C
6C
C6
ENDCHAR
STARTCHAR 0079
ENCODING 121
SWIDTH 480 0
DWIDTH 8 0
BBX 10 11 -1 -3
BITMAP
18C0
18C0
1980
1980
1B00
0F00
0E00
0C00
1C00
7800
E000
ENDCHAR
STARTCHAR 007A
ENCODING 122
SWIDTH 480 0
DWIDTH 8 0
BBX 8 8 1 0
BITMAP
3F
7F
0E
1C
30
60
FC
FC
ENDCHAR
STARTCHAR 007B
ENCODING 123
SWIDTH 480 0
DWIDTH 8 0
BBX 8 15 2 -3
BITMAP
07
1E
18
18
30
30
30
C0
60
60
60
60
40
78
30
ENDCHAR
STARTCHAR 007C
ENCODING 124
SWIDTH 480 0
DWIDTH 8 0
BBX 6 15 2 -3
BITMAP
0C
18
18
18
18
30
30
30
30
60
60
60
60
C0
C0
ENDCHAR
STARTCHAR 007D
ENCODING 125
SWIDTH 480 0
DWIDTH 8 0
BBX 8 15 0 -3
BITMAP
1C
1E
06
06
06
04
06
07
0C
0C
18
18
18
F0
E0
ENDCHAR
STARTCHAR 007E
ENCODING 126
SWIDTH 480 0
DWIDTH 8 0
BBX 8 3 1 3
BITMAP
73
FE
DE
ENDCHAR
STARTCHAR 00A0
ENCODING 160
SWIDTH 480 0
DWIDTH 8 0
BBX 0 0 0 0
BITMAP
ENDCHAR
STARTCHAR 00A1
ENCODING 161
SWIDTH 480 0
DWIDTH 8 0
BBX 5 11 2 -3
BITMAP
10
38
30
00
30
70
60
60
60
E0
E0
ENDCHAR
STARTCHAR 00A2
ENCODING 162
SWIDTH 480 0
DWIDTH 8 0
BBX 8 12 1 -2
BITMAP
06
06
1F
7E
60
60
E0
62
7E
18
30
30
ENDCHAR
STARTCHAR 00A3
ENCODING 163
SWIDTH 480 0
DWIDTH 8 0
BBX 8 11 1 0
BITMAP
02
0F
18
18
30
7E
FC
30
60
7E
FE
ENDCHAR
STARTCHAR 00A4
ENCODING 164
SWIDTH 480 0
DWIDTH 8 0
BBX 8 7 1 1
BITMAP
42
FF
7E
66
66
7E
7F
ENDCHAR
STARTCHAR 00A5
ENCODING 165
SWIDTH 480 0
DWIDTH 8 0
BBX 9 10 1 0
BITMAP
6180
3300
3600
3600
1C00
7E00
1800
FE00
3000
3000
ENDCHAR
STARTCHAR 00A6
ENCODING 166
SWIDTH 480 0
DWIDTH 8 0
BBX 6 15 2 -3
BITMAP
0C
18
18
18
18
30
00
00
00
60
60
60
60
E0
C0
ENDCHAR
STARTCHAR 00A7
ENCODING 167
SWIDTH 480 0
DWIDTH 8 0
BBX 8 13 1 -2
BITMAP
04
1F
30
30
3C
66
66
66
3C
0C
0C
F8
60
ENDCHAR
STARTCHAR 00A8
ENCODING 168
SWIDTH 480 0
DWIDTH 8 0
BBX 5 2 4 9
BITMAP
D8
98
ENDCHAR
STARTCHAR 00A9
ENCODING 169
SWIDTH 480 0
DWIDTH 8 0
BBX 8 8 1 0
BITMAP
3C
46
DA
A3
A3
BA
46
3C
ENDCHAR
STARTCHAR 00AA
ENCODING 170
SWIDTH 480 0
DWIDTH 8 0
BBX 5 6 3 5
BITMAP
10
78
C8
98
98
F8
ENDCHAR
STARTCHAR 00AB
ENCODING 171
SWIDTH 480 0
DWIDTH 8 0
BBX 6 7 2 1
BITMAP
20
64
CC
D8
D8
C8
4C
ENDCHAR
STARTCHAR 00AC
ENCODING 172
SWIDTH 480 0
DWIDTH 8 0
BBX 6 5 2 1
BITMAP
FC
FC
0C
0C
0C
ENDCHAR
STARTCHAR 00AD
ENCODING 173
SWIDTH 480 0
DWIDTH 8 0
BBX 5 2 2 3
BITMAP
78
F8
ENDCHAR
STARTCHAR 00AE
ENCODING 174
SWIDTH 480 0
DWIDTH 8 0
BBX 8 8 1 0
BITMAP
3C
46
FA
AB
BB
AA
46
3C
ENDCHAR
STARTCHAR 00AF
ENCODING 175
SWIDTH 480 0
DWIDTH 8 0
BBX 5 2 4 9
BITMAP
F8
F0
ENDCHAR
STARTCHAR 00B0
ENCODING 176
SWIDTH 480 0
DWIDTH 8 0
BBX 5 5 3 7
BITMAP
30
78
C8
58
70
ENDCHAR
STARTCHAR 00B1
ENCODING 177
SWIDTH 480 0
DWIDTH 8 0
BBX 8 9 1 0
BITMAP
0C
0C
7F
7F
18
18
10
FE
FC
ENDCHAR
STARTCHAR 00B2
ENCODING 178
SWIDTH 480 0
DWIDTH 8 0
BBX 5 7 3 4
BITMAP
10
78
18
30
60
F0
F0
ENDCHAR
STARTCHAR 00B3
ENCODING 179
SWIDTH 480 0
DWIDTH 8 0
BBX 5 7 3 4
BITMAP
10
78
18
30
18
F0
60
ENDCHAR
STARTCHAR 00B4
ENCODING 180
SWIDTH 480 0
DWIDTH 8 0
BBX 3 2 5 9
BITMAP
60
C0
ENDCHAR
STARTCHAR 00B5
ENCODING 181
SWIDTH 480 0
DWIDTH 8 0
BBX 9 11 0 -3
BITMAP
3980
3300
3300
3300
3300
6300
7F00
7F00
6000
C000
C000
ENDCHAR
STARTCHAR 00B6
ENCODING 182
SWIDTH 480 0
DWIDTH 8 0
BBX 8 13 2 -3
BITMAP
7F
F2
F6
F6
F6
E4
6C
6C
6C
48
D8
D8
D8
ENDCHAR
STARTCHAR 00B7
ENCODING 183
SWIDTH 480 0
DWIDTH 8 0
BBX 3 3 3 3
BITMAP
60
E0
60
ENDCHAR
STARTCHAR 00B8
ENCODING 184
SWIDTH 480 0
DWIDTH 8 0
BBX 4 3 2 -3
BITMAP
60
30
E0
ENDCHAR
STARTCHAR 00B9
ENCODING 185
SWIDTH 480 0
DWIDTH 8 0
BBX 4 6 3 4
BITMAP
70
70
30
20
F0
F0
ENDCHAR
STARTCHAR 00BA
ENCODING 186
SWIDTH 480 0
DWIDTH 8 0
BBX 6 6 3 5
BITMAP
10
78
CC
C8
98
F0
ENDCHAR
STARTCHAR 00BB
ENCODING 187
SWIDTH 480 0
DWIDTH 8 0
BBX 7 7 1 1
BITMAP
04
64
26
36
26
6C
D8
ENDCHAR
STARTCHAR 00BC
ENCODING 188
SWIDTH 480 0
DWIDTH 8 0
BBX 8 10 1 0
BITMAP
73
72
24
2C
18
10
26
6A
DE
84
ENDCHAR
STARTCHAR 00BD
ENCODING 189
SWIDTH 480 0
DWIDTH 8 0
BBX 8 10 1 0
BITMAP
73
72
24
2C
18
10
2E
62
CC
8E
ENDCHAR
STARTCHAR 00BE
ENCODING 190
SWIDTH 480 0
DWIDTH 8 0
BBX 8 11 1 0
BITMAP
30
51
33
16
FC
08
18
36
6A
5E
C4
ENDCHAR
STARTCHAR 00BF
ENCODING 191
SWIDTH 480 0
DWIDTH 8 0
BBX 6 11 1 -3
BITMAP
0C
1C
0C
00
18
38
70
C0
C0
F8
78
ENDCHAR
STARTCHAR 00C0
ENCODING 192
SWIDTH 480 0
DWIDTH 8 0
BBX 8 14 0 0
BITMAP
04
06
03
00
06
0F
0B
1B
13
33
3F
7F
63
C3
ENDCHAR
STARTCHAR 00C1
ENCODING 193
SWIDTH 480 0
DWIDTH 8 0
BBX 9 14 0 0
BITMAP
0100
0380
0600
0000
0600
0F00
0B00
1B00
1300
3300
3F00
7F00
6300
C300
ENDCHAR
STARTCHAR 00C2
ENCODING 194
SWIDTH 480 0
DWIDTH 8 0
BBX 9 13 0 1
BITMAP
0700
0580
0000
0600
0F00
0B00
1B00
1300
3300
3F00
7F00
6300
C300
ENDCHAR
STARTCHAR 00C3
ENCODING 195
SWIDTH 480 0
DWIDTH 8 0
BBX 9 13 0 1
BITMAP
0F80
0100
0000
0600
0F00
0B00
1B00
1300
3300
3F00
7F00
6300
C300
ENDCHAR
STARTCHAR 00C4
ENCODING 196
SWIDTH 480 0
DWIDTH 8 0
BBX 10 14 0 0
BITMAP
0080
0DC0
0C80
0000
0600
0F00
0B00
1B00
1300
3300
3F00
7F00
6300
C300
ENDCHAR
STARTCHAR 00C5
ENCODING 197
SWIDTH 480 0
DWIDTH 8 0
BBX 8 13 0 0
BITMAP
07
05
07
06
0F
0B
1B
13
33
3F
7F
63
C3
ENDCHAR
STARTCHAR 00C6
ENCODING 198
SWIDTH 480 0
DWIDTH 8 0
BBX 10 10 0 0
BITMAP
07C0
0F00
0B00
1A00
1780
3600
7E00
7C00
4F00
CF00
ENDCHAR
STARTCHAR 00C7
ENCODING 199
SWIDTH 480 0
DWIDTH 8 0
BBX 8 14 1 -3
BITMAP
06
1F
39
70
60
60
60
E0
60
7E
3E
10
18
70
ENDCHAR
STARTCHAR 00C8
ENCODING 200
SWIDTH 480 0
DWIDTH 8 0
BBX 8 13 1 1
BITMAP
0E
06
00
3F
30
30
60
7E
60
60
E0
FE
FC
ENDCHAR
STARTCHAR 00C9
ENCODING 201
SWIDTH 480 0
DWIDTH 8 0
BBX 8 14 1 0
BITMAP
02
07
0C
00
3F
30
30
60
7E
60
60
E0
FE
FC
ENDCHAR
STARTCHAR 00CA
ENCODING 202
SWIDTH 480 0
DWIDTH 8 0
BBX 8 13 1 1
BITMAP
0E
0B
00
3F
30
30
60
7E
60
60
E0
FE
FC
ENDCHAR
STARTCHAR 00CB
ENCODING 203
SWIDTH 480 0
DWIDTH 8 0
BBX 9 14 1 0
BITMAP
0100
1B80
1900
0000
3F00
3000
3000
6000
7E00
6000
6000
E000
FE00
FC00
ENDCHAR
STARTCHAR 00CC
ENCODING 204
SWIDTH 480 0
DWIDTH 8 0
BBX 8 14 1 0
BITMAP
08
0C
06
00
3F
0C
0C
18
18
18
18
30
FC
FC
ENDCHAR
STARTCHAR 00CD
ENCODING 205
SWIDTH 480 0
DWIDTH 8 0
BBX 8 14 1 0
BITMAP
02
07
0C
00
3F
0C
0C
18
18
18
18
30
FC
FC
ENDCHAR
STARTCHAR 00CE
ENCODING 206
SWIDTH 480 0
DWIDTH 8 0
BBX 8 13 1 1
BITMAP
0E
0B
00
3F
0C
0C
18
18
18
18
30
FC
FC
ENDCHAR
STARTCHAR 00CF
ENCODING 207
SWIDTH 480 0
DWIDTH 8 0
BBX 9 14 1 0
BITMAP
0900
1B80
1900
0000
3F00
0C00
0C00
1800
1800
1800
1800
3000
FC00
FC00
ENDCHAR
STARTCHAR 00D0
ENCODING 208
SWIDTH 480 0
DWIDTH 8 0
BBX 8 10 1 0
BITMAP
3E
37
33
63
F3
F7
66
CE
FC
F8
ENDCHAR
STARTCHAR 00D1
ENCODING 209
SWIDTH 480 0
DWIDTH 8 0
BBX 9 14 1 0
BITMAP
0100
1F00
0200
0000
3180
7100
7300
7B00
7B00
4A00
CE00
CE00
CE00
8400
ENDCHAR
STARTCHAR 00D2
ENCODING 210
SWIDTH 480 0
DWIDTH 8 0
BBX 8 13 1 1
BITMAP
0E
06
0C
3E
33
63
63
C3
C3
C6
C6
FC
78
ENDCHAR
STARTCHAR 00D3
ENCODING 211
SWIDTH 480 0
DWIDTH 8 0
BBX 8 14 1 0
BITMAP
02
06
0C
0C
3E
33
63
63
C3
C3
C6
C6
FC
78
ENDCHAR
STARTCHAR 00D4
ENCODING 212
SWIDTH 480 0
DWIDTH 8 0
BBX 8 14 1 0
BITMAP
04
0E
1B
0C
3E
33
63
63
C3
C3
C6
C6
FC
78
ENDCHAR
STARTCHAR 00D5
ENCODING 213
SWIDTH 480 0
DWIDTH 8 0
BBX 8 14 1 0
BITMAP
01
1F
02
0C
3E
33
63
63
C3
C3
C6
C6
FC
78
ENDCHAR
STARTCHAR 00D6
ENCODING 214
SWIDTH 480 0
DWIDTH 8 0
BBX 8 14 1 0
BITMAP
01
1B
19
0C
3E
33
63
63
C3
C3
C6
C6
FC
78
ENDCHAR
STARTCHAR 00D7
ENCODING 215
SWIDTH 480 0
DWIDTH 8 0
BBX 8 7 1 1
BITMAP
20
77
3E
18
3C
EE
44
ENDCHAR
STARTCHAR 00D8
ENCODING 216
SWIDTH 480 0
DWIDTH 8 0
BBX 8 11 1 -1
BITMAP
0D
3F
37
67
6F
DB
D3
F6
E6
EC
F8
ENDCHAR
STARTCHAR 00D9
ENCODING 217
SWIDTH 480 0
DWIDTH 8 0
BBX 8 14 1 0
BITMAP
08
1C
06
00
33
63
63
63
66
E6
C6
C6
FC
78
ENDCHAR
STARTCHAR 00DA
ENCODING 218
SWIDTH 480 0
DWIDTH 8 0
BBX 8 14 1 0
BITMAP
02
06
0C
00
33
63
63
63
66
E6
C6
C6
FC
78
ENDCHAR
STARTCHAR 00DB
ENCODING 219
SWIDTH 480 0
DWIDTH 8 0
BBX 8 13 1 1
BITMAP
0E
0B
00
33
63
63
63
66
E6
C6
C6
FC
78
ENDCHAR
STARTCHAR 00DC
ENCODING 220
SWIDTH 480 0
DWIDTH 8 0
BBX 9 14 1 0
BITMAP
0900
1B80
1900
0000
3300
6300
6300
6300
6600
E600
C600
C600
FC00
7800
ENDCHAR
STARTCHAR 00DD
ENCODING 221
SWIDTH 480 0
DWIDTH 8 0
BBX 8 13 2 1
BITMAP
0E
0C
00
C3
66
6E
6C
78
30
30
70
60
60
ENDCHAR
STARTCHAR 00DE
ENCODING 222
SWIDTH 480 0
DWIDTH 8 0
BBX 8 10 1 0
BITMAP
30
3C
7F
63
63
67
FE
FC
C0
C0
ENDCHAR
STARTCHAR 00DF
ENCODING 223
SWIDTH 480 0
DWIDTH 8 0
BBX 11 15 -2 -3
BITMAP
0080
03E0
0660
0E60
0CC0
0D80
0D80
0DC0
18C0
18C0
1BC0
1BC0
3800
F000
E000
ENDCHAR
STARTCHAR 00E0
ENCODING 224
SWIDTH 480 0
DWIDTH 8 0
BBX 8 11 1 1
BITMAP
0C
0E
00
1F
7F
66
C6
C6
C6
FE
7E
ENDCHAR
STARTCHAR 00E1
ENCODING 225
SWIDTH 480 0
DWIDTH 8 0
BBX 8 11 1 1
BITMAP
06
0E
00
1F
7F
66
C6
C6
C6
FE
7E
ENDCHAR
STARTCHAR 00E2
ENCODING 226
SWIDTH 480 0
DWIDTH 8 0
BBX 8 11 1 1
BITMAP
06
1A
00
1F
7F
66
C6
C6
C6
FE
7E
ENDCHAR
STARTCHAR 00E3
ENCODING 227
SWIDTH 480 0
DWIDTH 8 0
BBX 8 11 1 0
BITMAP
1F
17
00
1F
7F
66
C6
C6
C6
FE
7E
ENDCHAR
STARTCHAR 00E4
ENCODING 228
SWIDTH 480 0
DWIDTH 8 0
BBX 8 11 1 0
BITMAP
1B
1B
00
1F
7F
66
C6
C6
C6
FE
7E
ENDCHAR
STARTCHAR 00E5
ENCODING 229
SWIDTH 480 0
DWIDTH 8 0
BBX 8 12 1 0
BITMAP
0E
0A
0E
00
1F
7F
66
C6
C6
C6
FE
7E
ENDCHAR
STARTCHAR 00E6
ENCODING 230
SWIDTH 480 0
DWIDTH 8 0
BBX 8 8 1 0
BITMAP
77
7F
19
7B
DE
90
BA
EE
ENDCHAR
STARTCHAR 00E7
ENCODING 231
SWIDTH 480 0
DWIDTH 8 0
BBX 8 11 1 -3
BITMAP
1F
3E
60
E0
C0
C0
7C
7E
10
18
70
ENDCHAR
STARTCHAR 00E8
ENCODING 232
SWIDTH 480 0
DWIDTH 8 0
BBX 8 11 1 1
BITMAP
0C
0E
00
1E
3F
63
C6
FC
C0
74
7E
ENDCHAR
STARTCHAR 00E9
ENCODING 233
SWIDTH 480 0
DWIDTH 8 0
BBX 8 11 1 1
BITMAP
06
0E
08
1E
3F
63
C6
FC
C0
74
7E
ENDCHAR
STARTCHAR 00EA
ENCODING 234
SWIDTH 480 0
DWIDTH 8 0
BBX 8 11 1 1
BITMAP
0E
1A
00
1E
3F
63
C6
FC
C0
74
7E
ENDCHAR
STARTCHAR 00EB
ENCODING 235
SWIDTH 480 0
DWIDTH 8 0
BBX 8 11 1 0
BITMAP
1B
13
00
1E
3F
63
C6
FC
C0
74
7E
ENDCHAR
STARTCHAR 00EC
ENCODING 236
SWIDTH 480 0
DWIDTH 8 0
BBX 6 11 2 1
BITMAP
30
38
00
F0
F0
30
30
60
60
7C
3C
ENDCHAR
STARTCHAR 00ED
ENCODING 237
SWIDTH 480 0
DWIDTH 8 0
BBX 6 11 2 1
BITMAP
18
38
00
F0
F0
30
30
60
60
7C
3C
ENDCHAR
STARTCHAR 00EE
ENCODING 238
SWIDTH 480 0
DWIDTH 8 0
BBX 6 11 2 1
BITMAP
18
6C
00
F0
F0
30
30
60
60
7C
3C
ENDCHAR
STARTCHAR 00EF
ENCODING 239
SWIDTH 480 0
DWIDTH 8 0
BBX 6 11 2 0
BITMAP
6C
6C
00
F0
F0
30
30
60
60
7C
3C
ENDCHAR
STARTCHAR 00F0
ENCODING 240
SWIDTH 480 0
DWIDTH 8 0
BBX 9 11 1 1
BITMAP
0C80
0780
0E00
0200
3E00
7E00
E600
C600
CE00
FC00
7800
ENDCHAR
STARTCHAR 00F1
ENCODING 241
SWIDTH 480 0
DWIDTH 8 0
BBX 8 11 1 0
BITMAP
1F
3E
00
3E
7E
66
66
66
C6
CC
CC
ENDCHAR
STARTCHAR 00F2
ENCODING 242
SWIDTH 480 0
DWIDTH 8 0
BBX 7 11 1 1
BITMAP
18
0E
00
1C
7E
66
C6
C6
C6
FC
78
ENDCHAR
STARTCHAR 00F3
ENCODING 243
SWIDTH 480 0
DWIDTH 8 0
BBX 7 11 1 1
BITMAP
06
1C
00
1C
7E
66
C6
C6
C6
FC
78
ENDCHAR
STARTCHAR 00F4
ENCODING 244
SWIDTH 480 0
DWIDTH 8 0
BBX 7 12 1 0
BITMAP
04
0C
1E
00
1C
7E
66
C6
C6
C6
FC
78
ENDCHAR
STARTCHAR 00F5
ENCODING 245
SWIDTH 480 0
DWIDTH 8 0
BBX 8 11 1 0
BITMAP
1F
3E
00
1C
7E
66
C6
C6
C6
FC
78
ENDCHAR
STARTCHAR 00F6
ENCODING 246
SWIDTH 480 0
DWIDTH 8 0
BBX 8 11 1 0
BITMAP
1B
13
00
1C
7E
66
C6
C6
C6
FC
78
ENDCHAR
STARTCHAR 00F7
ENCODING 247
SWIDTH 480 0
DWIDTH 8 0
BBX 7 9 2 0
BITMAP
18
18
10
00
FE
00
20
60
60
ENDCHAR
STARTCHAR 00F8
ENCODING 248
SWIDTH 480 0
DWIDTH 8 0
BBX 8 8 1 0
BITMAP
1F
3F
67
6F
5B
F6
7E
7C
ENDCHAR
STARTCHAR 00F9
ENCODING 249
SWIDTH 480 0
DWIDTH 8 0
BBX 8 11 1 1
BITMAP
18
0C
04
63
66
66
66
C6
CE
FE
7E
ENDCHAR
STARTCHAR 00FA
ENCODING 250
SWIDTH 480 0
DWIDTH 8 0
BBX 8 11 1 1
BITMAP
06
1C
00
63
66
66
66
C6
CE
FE
7E
ENDCHAR
STARTCHAR 00FB
ENCODING 251
SWIDTH 480 0
DWIDTH 8 0
BBX 8 11 1 1
BITMAP
0C
1E
00
63
66
66
66
C6
CE
FE
7E
ENDCHAR
STARTCHAR 00FC
ENCODING 252
SWIDTH 480 0
DWIDTH 8 0
BBX 8 11 1 0
BITMAP
33
32
00
63
66
66
66
C6
CE
FE
7E
ENDCHAR
STARTCHAR 00FD
ENCODING 253
SWIDTH 480 0
DWIDTH 8 0
BBX 10 14 -1 -2
BITMAP
0180
0700
0000
18C0
18C0
1980
1980
1B00
0F00
0E00
0C00
1C00
7800
E000
ENDCHAR
STARTCHAR 00FE
ENCODING 254
SWIDTH 480 0
DWIDTH 8 0
BBX 8 14 0 -2
BITMAP
18
18
18
3E
3F
33
33
73
63
7E
7C
60
C0
C0
ENDCHAR
STARTCHAR 00FF
ENCODING 255
SWIDTH 480 0
DWIDTH 8 0
BBX 10 14 -1 -3
BITMAP
0CC0
0C80
0000
18C0
18C0
1980
1980
1B00
0F00
0E00
0C00
1C00
7800
E000
ENDCHAR
STARTCHAR 0100
ENCODING 256
SWIDTH 480 0
DWIDTH 8 0
BBX 9 13 0 0
BITMAP
0F80
0000
0000
0600
0F00
0B00
1B00
1300
3300
3F00
7F00
6300
C300
ENDCHAR
STARTCHAR 0101
ENCODING 257
SWIDTH 480 0
DWIDTH 8 0
BBX 8 11 1 0
BITMAP
1F
1F
00
1F
7F
66
C6
C6
C6
FE
7E
ENDCHAR
STARTCHAR 0102
ENCODING 258
SWIDTH 480 0
DWIDTH 8 0
BBX 9 14 0 0
BITMAP
0480
0780
0300
0000
0600
0F00
0B00
1B00
1300
3300
3F00
7F00
6300
C300
ENDCHAR
STARTCHAR 0103
ENCODING 259
SWIDTH 480 0
DWIDTH 8 0
BBX 8 11 1 0
BITMAP
1B
0E
00
1F
7F
66
C6
C6
C6
FE
7E
ENDCHAR
STARTCHAR 0104
ENCODING 260
SWIDTH 480 0
DWIDTH 8 0
BBX 8 13 0 -3
BITMAP
07
0F
0F
1B
1B
33
3F
7F
63
C3
02
06
07
ENDCHAR
STARTCHAR 0105
ENCODING 261
SWIDTH 480 0
DWIDTH 8 0
BBX 8 11 1 -3
BITMAP
1F
7F
66
C6
C6
C6
FE
7E
0C
18
0C
ENDCHAR
STARTCHAR 0106
ENCODING 262
SWIDTH 480 0
DWIDTH 8 0
BBX 8 13 1 1
BITMAP
07
06
06
1F
39
70
60
60
60
E0
60
7E
3E
ENDCHAR
STARTCHAR 0107
ENCODING 263
SWIDTH 480 0
DWIDTH 8 0
BBX 8 11 1 1
BITMAP
06
0E
00
1F
3E
60
E0
C0
C0
7C
7E
ENDCHAR
STARTCHAR 0108
ENCODING 264
SWIDTH 480 0
DWIDTH 8 0
BBX 8 14 1 0
BITMAP
02
07
0D
06
1F
39
70
60
60
60
E0
60
7E
3E
ENDCHAR
STARTCHAR 0109
ENCODING 265
SWIDTH 480 0
DWIDTH 8 0
BBX 8 11 1 1
BITMAP
06
0F
00
1F
3E
60
E0
C0
C0
7C
7E
ENDCHAR
STARTCHAR 010A
ENCODING 266
SWIDTH 480 0
DWIDTH 8 0
BBX 8 14 1 0
BITMAP
02
06
06
06
1F
39
70
60
60
60
E0
60
7E
3E
ENDCHAR
STARTCHAR 010B
ENCODING 267
SWIDTH 480 0
DWIDTH 8 0
BBX 8 11 1 0
BITMAP
06
06
00
1F
3E
60
E0
C0
C0
7C
7E
ENDCHAR
STARTCHAR 010C
ENCODING 268
SWIDTH 480 0
DWIDTH 8 0
BBX 8 14 1 0
BITMAP
01
07
06
06
1F
39
70
60
60
60
E0
60
7E
3E
ENDCHAR
STARTCHAR 010D
ENCODING 269
SWIDTH 480 0
DWIDTH 8 0
BBX 8 11 1 1
BITMAP
0F
06
00
1F
3E
60
E0
C0
C0
7C
7E
ENDCHAR
STARTCHAR 010E
ENCODING 270
SWIDTH 480 0
DWIDTH 8 0
BBX 8 14 1 0
BITMAP
02
0E
0C
00
3E
37
63
63
63
67
C6
CE
FC
F8
ENDCHAR
STARTCHAR 010F
ENCODING 271
SWIDTH 480 0
DWIDTH 8 0
BBX 10 12 1 0
BITMAP
01C0
06C0
0680
0680
3E00
7C00
CC00
CC00
CC00
D800
F800
FC00
ENDCHAR
STARTCHAR 0110
ENCODING 272
SWIDTH 480 0
DWIDTH 8 0
BBX 8 10 1 0
BITMAP
3E
37
33
63
F3
F7
66
CE
FC
F8
ENDCHAR
STARTCHAR 0111
ENCODING 273
SWIDTH 480 0
DWIDTH 8 0
BBX 9 11 1 1
BITMAP
0300
1F80
0300
1E00
7E00
6600
C600
CE00
CC00
FC00
7600
ENDCHAR
STARTCHAR 0112
ENCODING 274
SWIDTH 480 0
DWIDTH 8 0
BBX 8 13 1 0
BITMAP
0F
00
00
3F
30
30
60
7E
60
60
E0
FE
FC
ENDCHAR
STARTCHAR 0113
ENCODING 275
SWIDTH 480 0
DWIDTH 8 0
BBX 8 11 1 0
BITMAP
1F
1F
00
1E
3F
63
C6
FC
C0
74
7E
ENDCHAR
STARTCHAR 0114
ENCODING 276
SWIDTH 480 0
DWIDTH 8 0
BBX 9 14 1 0
BITMAP
0980
0F00
0600
0000
3F00
3000
3000
6000
7E00
6000
6000
E000
FE00
FC00
ENDCHAR
STARTCHAR 0115
ENCODING 277
SWIDTH 480 0
DWIDTH 8 0
BBX 8 11 1 0
BITMAP
0B
0E
00
1E
3F
63
C6
FC
C0
74
7E
ENDCHAR
STARTCHAR 0116
ENCODING 278
SWIDTH 480 0
DWIDTH 8 0
BBX 8 14 1 0
BITMAP
02
06
06
00
3F
30
30
60
7E
60
60
E0
FE
FC
ENDCHAR
STARTCHAR 0117
ENCODING 279
SWIDTH 480 0
DWIDTH 8 0
BBX 8 11 1 0
BITMAP
06
06
00
1E
3F
63
C6
FC
C0
74
7E
ENDCHAR
STARTCHAR 0118
ENCODING 280
SWIDTH 480 0
DWIDTH 8 0
BBX 8 13 1 -3
BITMAP
3F
30
30
60
7E
60
60
E0
FE
FC
0C
18
1C
ENDCHAR
STARTCHAR 0119
ENCODING 281
SWIDTH 480 0
DWIDTH 8 0
BBX 8 11 1 -3
BITMAP
1E
3F
63
C6
FC
C0
74
7E
18
18
1C
ENDCHAR
STARTCHAR 011A
ENCODING 282
SWIDTH 480 0
DWIDTH 8 0
BBX 8 14 1 0
BITMAP
01
0F
06
00
3F
30
30
60
7E
60
60
E0
FE
FC
ENDCHAR
STARTCHAR 011B
ENCODING 283
SWIDTH 480 0
DWIDTH 8 0
BBX 8 11 1 1
BITMAP
1B
0C
00
1E
3F
63
C6
FC
C0
74
7E
ENDCHAR
STARTCHAR 011C
ENCODING 284
SWIDTH 480 0
DWIDTH 8 0
BBX 8 14 1 0
BITMAP
02
07
09
06
1F
39
70
60
60
C6
C6
E6
7E
7C
ENDCHAR
STARTCHAR 011D
ENCODING 285
SWIDTH 480 0
DWIDTH 8 0
BBX 9 14 0 -2
BITMAP
0300
0780
0000
0F80
3F80
3300
6300
6300
7300
3E00
0600
0600
FC00
7800
ENDCHAR
STARTCHAR 011E
ENCODING 286
SWIDTH 480 0
DWIDTH 8 0
BBX 9 14 1 0
BITMAP
0980
0F00
0600
0600
1F00
3900
7000
6000
6000
C600
C600
E600
7E00
7C00
ENDCHAR
STARTCHAR 011F
ENCODING 287
SWIDTH 480 0
DWIDTH 8 0
BBX 9 14 0 -3
BITMAP
0580
0700
0000
0F80
3F80
3300
6300
6300
7300
3E00
0600
0600
FC00
7800
ENDCHAR
STARTCHAR 0120
ENCODING 288
SWIDTH 480 0
DWIDTH 8 0
BBX 8 14 1 0
BITMAP
02
06
06
06
1F
39
70
60
60
C6
C6
E6
7E
7C
ENDCHAR
STARTCHAR 0121
ENCODING 289
SWIDTH 480 0
DWIDTH 8 0
BBX 9 14 0 -3
BITMAP
0300
0300
0000
0F80
3F80
3300
6300
6300
7300
3E00
0600
0600
FC00
7800
ENDCHAR
STARTCHAR 0122
ENCODING 290
SWIDTH 480 0
DWIDTH 8 0
BBX 8 14 1 -3
BITMAP
06
1F
39
70
60
60
C6
C6
E6
7E
7C
00
30
60
ENDCHAR
STARTCHAR 0123
ENCODING 291
SWIDTH 480 0
DWIDTH 8 0
BBX 9 15 0 -3
BITMAP
0100
0300
0200
0000
0F80
3F80
3300
6300
6300
7300
3E00
0600
0600
FC00
7800
ENDCHAR
STARTCHAR 0124
ENCODING 292
SWIDTH 480 0
DWIDTH 8 0
BBX 9 13 1 1
BITMAP
0E00
0B00
0000
3180
7300
6300
6300
7F00
6600
C600
C600
C600
CC00
ENDCHAR
STARTCHAR 0125
ENCODING 293
SWIDTH 480 0
DWIDTH 8 0
BBX 7 13 1 1
BITMAP
1C
10
30
30
30
3E
7E
66
66
66
C6
CC
CC
ENDCHAR
STARTCHAR 0126
ENCODING 294
SWIDTH 480 0
DWIDTH 8 0
BBX 9 10 1 0
BITMAP
3300
7F80
7F80
6600
7E00
6600
6600
EC00
CC00
CC00
ENDCHAR
STARTCHAR 0127
ENCODING 295
SWIDTH 480 0
DWIDTH 8 0
BBX 7 12 1 0
BITMAP
08
38
7C
30
3E
3E
66
66
66
66
CC
CC
ENDCHAR
STARTCHAR 0128
ENCODING 296
SWIDTH 480 0
DWIDTH 8 0
BBX 8 13 1 1
BITMAP
1F
02
00
3F
0C
0C
18
18
18
18
30
FC
FC
ENDCHAR
STARTCHAR 0129
ENCODING 297
SWIDTH 480 0
DWIDTH 8 0
BBX 6 11 2 0
BITMAP
3C
7C
00
F0
F0
30
30
60
60
7C
3C
ENDCHAR
STARTCHAR 012A
ENCODING 298
SWIDTH 480 0
DWIDTH 8 0
BBX 8 13 1 0
BITMAP
0F
00
00
3F
0C
0C
18
18
18
18
30
FC
FC
ENDCHAR
STARTCHAR 012B
ENCODING 299
SWIDTH 480 0
DWIDTH 8 0
BBX 6 11 2 0
BITMAP
3C
7C
00
F0
F0
30
30
60
60
7C
3C
ENDCHAR
STARTCHAR 012C
ENCODING 300
SWIDTH 480 0
DWIDTH 8 0
BBX 8 14 1 0
BITMAP
09
0F
06
00
3F
0C
0C
18
18
18
18
30
FC
FC
ENDCHAR
STARTCHAR 012D
ENCODING 301
SWIDTH 480 0
DWIDTH 8 0
BBX 6 11 2 0
BITMAP
24
3C
00
F0
F0
30
30
60
60
7C
3C
ENDCHAR
STARTCHAR 012E
ENCODING 302
SWIDTH 480 0
DWIDTH 8 0
BBX 8 13 1 -3
BITMAP
3F
0C
0C
18
18
18
18
30
FC
FC
60
60
70
ENDCHAR
STARTCHAR 012F
ENCODING 303
SWIDTH 480 0
DWIDTH 8 0
BBX 6 14 2 -3
BITMAP
38
38
00
F0
F0
30
30
60
60
7C
3C
18
30
38
ENDCHAR
STARTCHAR 0130
ENCODING 304
SWIDTH 480 0
DWIDTH 8 0
BBX 8 14 1 0
BITMAP
04
06
04
00
3F
0C
0C
18
18
18
18
30
FC
FC
ENDCHAR
STARTCHAR 0131
ENCODING 305
SWIDTH 480 0
DWIDTH 8 0
BBX 6 8 2 0
BITMAP
F0
F0
30
30
60
60
7C
3C
ENDCHAR
STARTCHAR 0132
ENCODING 306
SWIDTH 480 0
DWIDTH 8 0
BBX 10 10 0 0
BITMAP
10C0
30C0
3180
3180
2180
6180
6300
6300
7F00
DE00
ENDCHAR
STARTCHAR 0133
ENCODING 307
SWIDTH 480 0
DWIDTH 8 0
BBX 8 14 1 -3
BITMAP
3B
3B
00
33
36
76
66
66
6E
EC
CC
0C
38
70
ENDCHAR
STARTCHAR 0134
ENCODING 308
SWIDTH 480 0
DWIDTH 8 0
BBX 8 14 1 0
BITMAP
02
07
0D
00
1F
03
03
06
06
06
06
0C
FC
F8
ENDCHAR
STARTCHAR 0135
ENCODING 309
SWIDTH 480 0
DWIDTH 8 0
BBX 8 15 0 -3
BITMAP
02
06
0F
00
1F
3F
06
06
06
06
0C
0C
0C
F8
70
ENDCHAR
STARTCHAR 0136
ENCODING 310
SWIDTH 480 0
DWIDTH 8 0
BBX 9 13 1 -3
BITMAP
3380
3700
6E00
6C00
7800
7800
CC00
CC00
CE00
C600
0000
2000
E000
ENDCHAR
STARTCHAR 0137
ENCODING 311
SWIDTH 480 0
DWIDTH 8 0
BBX 8 15 1 -3
BITMAP
08
30
30
30
33
76
6C
78
78
6C
CC
C6
00
30
60
ENDCHAR
STARTCHAR 0138
ENCODING 312
SWIDTH 480 0
DWIDTH 8 0
BBX 8 8 1 0
BITMAP
33
76
6C
78
78
6C
CC
C6
ENDCHAR
STARTCHAR 0139
ENCODING 313
SWIDTH 480 0
DWIDTH 8 0
BBX 7 13 1 1
BITMAP
1C
18
00
30
30
30
60
60
60
60
C0
FE
FC
ENDCHAR
STARTCHAR 013A
ENCODING 314
SWIDTH 480 0
DWIDTH 8 0
BBX 6 14 2 0
BITMAP
04
1C
00
78
F8
30
30
30
30
60
60
60
78
7C
ENDCHAR
STARTCHAR 013B
ENCODING 315
SWIDTH 480 0
DWIDTH 8 0
BBX 7 13 1 -3
BITMAP
30
30
30
60
60
60
60
C0
FE
FC
00
30
60
ENDCHAR
STARTCHAR 013C
ENCODING 316
SWIDTH 480 0
DWIDTH 8 0
BBX 5 14 3 -3
BITMAP
F0
30
60
60
60
60
C0
C0
C0
F0
F8
00
60
C0
ENDCHAR
STARTCHAR 013D
ENCODING 317
SWIDTH 480 0
DWIDTH 8 0
BBX 7 10 1 0
BITMAP
36
36
34
60
60
60
60
C0
FE
FC
ENDCHAR
STARTCHAR 013E
ENCODING 318
SWIDTH 480 0
DWIDTH 8 0
BBX 7 12 3 0
BITMAP
06
F6
34
64
60
60
60
C0
C0
C0
F0
F8
ENDCHAR
STARTCHAR 013F
ENCODING 319
SWIDTH 480 0
DWIDTH 8 0
BBX 7 10 1 0
BITMAP
30
30
30
62
66
66
60
C0
FE
FC
ENDCHAR
STARTCHAR 0140
ENCODING 320
SWIDTH 480 0
DWIDTH 8 0
BBX 7 11 3 0
BITMAP
F0
30
60
60
64
66
C4
C0
C0
F0
F8
ENDCHAR
STARTCHAR 0141
ENCODING 321
SWIDTH 480 0
DWIDTH 8 0
BBX 7 10 1 0
BITMAP
18
30
34
3C
70
E0
60
60
7E
FC
ENDCHAR
STARTCHAR 0142
ENCODING 322
SWIDTH 480 0
DWIDTH 8 0
BBX 6 11 2 0
BITMAP
78
18
30
3C
78
F0
60
60
60
78
7C
ENDCHAR
STARTCHAR 0143
ENCODING 323
SWIDTH 480 0
DWIDTH 8 0
BBX 9 14 1 0
BITMAP
0200
0700
0C00
0000
3180
7100
7300
7B00
7B00
4A00
CE00
CE00
CE00
8400
ENDCHAR
STARTCHAR 0144
ENCODING 324
SWIDTH 480 0
DWIDTH 8 0
BBX 7 11 1 1
BITMAP
06
0C
00
3E
7E
66
66
66
C6
CC
CC
ENDCHAR
STARTCHAR 0145
ENCODING 325
SWIDTH 480 0
DWIDTH 8 0
BBX 9 13 1 -3
BITMAP
3180
7100
7300
7B00
7B00
4A00
CE00
CE00
CE00
8400
0000
2000
E000
ENDCHAR
STARTCHAR 0146
ENCODING 326
SWIDTH 480 0
DWIDTH 8 0
BBX 7 11 1 -3
BITMAP
3E
7E
66
66
66
C6
CC
CC
00
20
E0
ENDCHAR
STARTCHAR 0147
ENCODING 327
SWIDTH 480 0
DWIDTH 8 0
BBX 9 14 1 0
BITMAP
0900
0F00
0400
0000
3180
7100
7300
7B00
7B00
4A00
CE00
CE00
CE00
8400
ENDCHAR
STARTCHAR 0148
ENCODING 328
SWIDTH 480 0
DWIDTH 8 0
BBX 7 11 1 1
BITMAP
1E
0C
00
3E
7E
66
66
66
C6
CC
CC
ENDCHAR
STARTCHAR 0149
ENCODING 329
SWIDTH 480 0
DWIDTH 8 0
BBX 7 12 1 0
BITMAP
30
30
60
40
3E
3E
66
66
66
66
C6
CC
ENDCHAR
STARTCHAR 014A
ENCODING 330
SWIDTH 480 0
DWIDTH 8 0
BBX 9 13 1 -3
BITMAP
3180
7100
7300
7B00
7B00
4A00
CE00
CE00
CE00
8400
0C00
3C00
3800
ENDCHAR
STARTCHAR 014B
ENCODING 331
SWIDTH 480 0
DWIDTH 8 0
BBX 7 11 1 -3
BITMAP
3C
7E
66
66
66
C6
CC
CC
0C
3C
38
ENDCHAR
STARTCHAR 014C
ENCODING 332
SWIDTH 480 0
DWIDTH 8 0
BBX 8 13 1 0
BITMAP
0F
00
0C
3E
33
63
63
C3
C3
C6
C6
FC
78
ENDCHAR
STARTCHAR 014D
ENCODING 333
SWIDTH 480 0
DWIDTH 8 0
BBX 8 11 1 0
BITMAP
1F
1E
00
1C
7E
66
C6
C6
C6
FC
78
ENDCHAR
STARTCHAR 014E
ENCODING 334
SWIDTH 480 0
DWIDTH 8 0
BBX 8 14 1 0
BITMAP
09
0F
06
0C
3E
33
63
63
C3
C3
C6
C6
FC
78
ENDCHAR
STARTCHAR 014F
ENCODING 335
SWIDTH 480 0
DWIDTH 8 0
BBX 8 11 1 0
BITMAP
1B
0E
00
1C
7E
66
C6
C6
C6
FC
78
ENDCHAR
STARTCHAR 0150
ENCODING 336
SWIDTH 480 0
DWIDTH 8 0
BBX 10 14 1 0
BITMAP
0480
0DC0
1B00
0C00
3E00
3300
6300
6300
C300
C300
C600
C600
FC00
7800
ENDCHAR
STARTCHAR 0151
ENCODING 337
SWIDTH 480 0
DWIDTH 8 0
BBX 9 11 1 1
BITMAP
1980
3300
0000
1C00
7E00
6600
C600
C600
C600
FC00
7800
ENDCHAR
STARTCHAR 0152
ENCODING 338
SWIDTH 480 0
DWIDTH 8 0
BBX 9 10 1 0
BITMAP
3F80
7600
6600
E400
CF00
CC00
CC00
C800
FE00
7E00
ENDCHAR
STARTCHAR 0153
ENCODING 339
SWIDTH 480 0
DWIDTH 8 0
BBX 8 8 1 0
BITMAP
3F
7D
C9
9B
9E
98
F8
EE
ENDCHAR
STARTCHAR 0154
ENCODING 340
SWIDTH 480 0
DWIDTH 8 0
BBX 8 14 1 0
BITMAP
02
06
0C
00
3E
37
63
63
7E
7C
CC
CC
CC
C6
ENDCHAR
STARTCHAR 0155
ENCODING 341
SWIDTH 480 0
DWIDTH 8 0
BBX 8 11 1 1
BITMAP
06
0E
00
3F
3E
70
60
60
60
60
C0
ENDCHAR
STARTCHAR 0156
ENCODING 342
SWIDTH 480 0
DWIDTH 8 0
BBX 8 13 1 -3
BITMAP
3E
37
63
63
7E
7C
CC
CC
CC
C6
00
20
E0
ENDCHAR
STARTCHAR 0157
ENCODING 343
SWIDTH 480 0
DWIDTH 8 0
BBX 10 11 -1 -3
BITMAP
0FC0
0F80
1C00
1800
1800
1800
1800
3000
0000
3000
E000
ENDCHAR
STARTCHAR 0158
ENCODING 344
SWIDTH 480 0
DWIDTH 8 0
BBX 8 14 1 0
BITMAP
02
0E
0C
00
3E
37
63
63
7E
7C
CC
CC
CC
C6
ENDCHAR
STARTCHAR 0159
ENCODING 345
SWIDTH 480 0
DWIDTH 8 0
BBX 8 12 1 0
BITMAP
08
0F
06
00
3F
3E
70
60
60
60
60
C0
ENDCHAR
STARTCHAR 015A
ENCODING 346
SWIDTH 480 0
DWIDTH 8 0
BBX 8 14 1 0
BITMAP
02
06
0C
0C
3F
70
60
70
3C
1E
06
06
FE
FC
ENDCHAR
STARTCHAR 015B
ENCODING 347
SWIDTH 480 0
DWIDTH 8 0
BBX 7 11 1 1
BITMAP
06
0C
00
3E
3E
60
78
1C
0E
FC
FC
ENDCHAR
STARTCHAR 015C
ENCODING 348
SWIDTH 480 0
DWIDTH 8 0
BBX 8 13 1 1
BITMAP
0E
0B
0C
3F
70
60
70
3C
1E
06
06
FE
FC
ENDCHAR
STARTCHAR 015D
ENCODING 349
SWIDTH 480 0
DWIDTH 8 0
BBX 7 11 1 1
BITMAP
0E
1A
00
3E
3E
60
78
1C
0E
FC
FC
ENDCHAR
STARTCHAR 015E
ENCODING 350
SWIDTH 480 0
DWIDTH 8 0
BBX 8 14 1 -3
BITMAP
0C
3F
70
60
70
3C
1E
06
06
FC
FC
20
30
E0
ENDCHAR
STARTCHAR 015F
ENCODING 351
SWIDTH 480 0
DWIDTH 8 0
BBX 7 11 1 -3
BITMAP
3E
3E
60
78
1C
0E
FC
FC
20
30
E0
ENDCHAR
STARTCHAR 0160
ENCODING 352
SWIDTH 480 0
DWIDTH 8 0
BBX 8 14 1 0
BITMAP
09
0F
04
0C
3F
70
60
70
3C
1E
06
06
FE
FC
ENDCHAR
STARTCHAR 0161
ENCODING 353
SWIDTH 480 0
DWIDTH 8 0
BBX 8 11 1 1
BITMAP
1B
0C
00
3E
3E
60
78
1C
0E
FC
FC
ENDCHAR
STARTCHAR 0162
ENCODING 354
SWIDTH 480 0
DWIDTH 8 0
BBX 9 13 1 -3
BITMAP
7F80
0C00
0C00
1800
1800
1800
1800
3000
3000
3000
2000
3000
E000
ENDCHAR
STARTCHAR 0163
ENCODING 355
SWIDTH 480 0
DWIDTH 8 0
BBX 7 13 2 -3
BITMAP
30
30
FE
FC
60
60
60
C0
F8
78
30
30
60
ENDCHAR
STARTCHAR 0164
ENCODING 356
SWIDTH 480 0
DWIDTH 8 0
BBX 8 14 2 0
BITMAP
12
1E
08
00
FF
18
18
30
30
30
30
60
60
60
ENDCHAR
STARTCHAR 0165
ENCODING 357
SWIDTH 480 0
DWIDTH 8 0
BBX 8 12 2 0
BITMAP
03
06
36
30
FE
FE
60
60
60
60
7C
7C
ENDCHAR
STARTCHAR 0166
ENCODING 358
SWIDTH 480 0
DWIDTH 8 0
BBX 8 10 2 0
BITMAP
FF
18
18
30
FC
FC
30
60
60
60
ENDCHAR
STARTCHAR 0167
ENCODING 359
SWIDTH 480 0
DWIDTH 8 0
BBX 8 10 1 0
BITMAP
18
18
7F
7F
30
FE
FE
30
3E
3E
ENDCHAR
STARTCHAR 0168
ENCODING 360
SWIDTH 480 0
DWIDTH 8 0
BBX 8 13 1 1
BITMAP
1F
02
00
33
63
63
63
66
E6
C6
C6
FC
78
ENDCHAR
STARTCHAR 0169
ENCODING 361
SWIDTH 480 0
DWIDTH 8 0
BBX 8 11 1 0
BITMAP
1F
3E
00
63
66
66
66
C6
CE
FE
7E
ENDCHAR
STARTCHAR 016A
ENCODING 362
SWIDTH 480 0
DWIDTH 8 0
BBX 8 13 1 0
BITMAP
1F
00
00
33
63
63
63
66
E6
C6
C6
FC
78
ENDCHAR
STARTCHAR 016B
ENCODING 363
SWIDTH 480 0
DWIDTH 8 0
BBX 8 11 1 0
BITMAP
1F
1E
00
63
66
66
66
C6
CE
FE
7E
ENDCHAR
STARTCHAR 016C
ENCODING 364
SWIDTH 480 0
DWIDTH 8 0
BBX 8 14 1 0
BITMAP
09
0F
06
00
33
63
63
63
66
E6
C6
C6
FC
78
ENDCHAR
STARTCHAR 016D
ENCODING 365
SWIDTH 480 0
DWIDTH 8 0
BBX 8 11 1 0
BITMAP
1A
1E
00
63
66
66
66
C6
CE
FE
7E
ENDCHAR
STARTCHAR 016E
ENCODING 366
SWIDTH 480 0
DWIDTH 8 0
BBX 8 14 1 0
BITMAP
0C
0A
0A
04
33
63
63
63
66
E6
C6
C6
FC
78
ENDCHAR
STARTCHAR 016F
ENCODING 367
SWIDTH 480 0
DWIDTH 8 0
BBX 8 12 1 0
BITMAP
0E
0A
0E
00
63
66
66
66
C6
CE
FE
7E
ENDCHAR
STARTCHAR 0170
ENCODING 368
SWIDTH 480 0
DWIDTH 8 0
BBX 9 14 1 0
BITMAP
0800
1D80
1300
0000
3300
6300
6300
6300
6600
E600
C600
C600
FC00
7800
ENDCHAR
STARTCHAR 0171
ENCODING 369
SWIDTH 480 0
DWIDTH 8 0
BBX 8 11 1 1
BITMAP
19
37
00
63
66
66
66
C6
CE
FE
7E
ENDCHAR
STARTCHAR 0172
ENCODING 370
SWIDTH 480 0
DWIDTH 8 0
BBX 8 13 1 -3
BITMAP
33
63
63
63
66
E6
C6
C6
FC
78
30
60
30
ENDCHAR
STARTCHAR 0173
ENCODING 371
SWIDTH 480 0
DWIDTH 8 0
BBX 8 11 1 -3
BITMAP
63
66
66
66
C6
CE
FE
7E
0C
18
1C
ENDCHAR
STARTCHAR 0174
ENCODING 372
SWIDTH 480 0
DWIDTH 8 0
BBX 9 13 1 1
BITMAP
0E00
0B00
0000
6180
6180
6100
6B00
5B00
DB00
EA00
AE00
CE00
CC00
ENDCHAR
STARTCHAR 0175
ENCODING 373
SWIDTH 480 0
DWIDTH 8 0
BBX 9 12 1 0
BITMAP
0400
0C00
1E00
0000
4180
4300
DB00
DB00
FA00
EE00
EC00
CC00
ENDCHAR
STARTCHAR 0176
ENCODING 374
SWIDTH 480 0
DWIDTH 8 0
BBX 8 14 2 0
BITMAP
04
0C
16
00
C3
66
6E
6C
78
30
30
70
60
60
ENDCHAR
STARTCHAR 0177
ENCODING 375
SWIDTH 480 0
DWIDTH 8 0
BBX 10 15 -1 -3
BITMAP
0100
0300
0780
0000
18C0
18C0
1980
1980
1B00
0F00
0E00
0C00
1C00
7800
E000
ENDCHAR
STARTCHAR 0178
ENCODING 376
SWIDTH 480 0
DWIDTH 8 0
BBX 8 14 2 0
BITMAP
02
36
32
00
C3
66
6E
6C
78
30
30
70
60
60
ENDCHAR
STARTCHAR 0179
ENCODING 377
SWIDTH 480 0
DWIDTH 8 0
BBX 8 14 1 0
BITMAP
02
07
0C
00
3F
03
06
0C
18
30
70
60
FE
FC
ENDCHAR
STARTCHAR 017A
ENCODING 378
SWIDTH 480 0
DWIDTH 8 0
BBX 8 11 1 1
BITMAP
06
0C
00
3F
7F
0E
1C
30
60
FC
FC
ENDCHAR
STARTCHAR 017B
ENCODING 379
SWIDTH 480 0
DWIDTH 8 0
BBX 8 14 1 0
BITMAP
04
06
04
00
3F
03
06
0C
18
30
70
60
FE
FC
ENDCHAR
STARTCHAR 017C
ENCODING 380
SWIDTH 480 0
DWIDTH 8 0
BBX 8 11 1 0
BITMAP
0E
0C
00
3F
7F
0E
1C
30
60
FC
FC
ENDCHAR
STARTCHAR 017D
ENCODING 381
SWIDTH 480 0
DWIDTH 8 0
BBX 8 14 1 0
BITMAP
09
0E
04
00
3F
03
06
0C
18
30
70
60
FE
FC
ENDCHAR
STARTCHAR 017E
ENCODING 382
SWIDTH 480 0
DWIDTH 8 0
BBX 8 11 1 1
BITMAP
1E
0C
00
3F
7F
0E
1C
30
60
FC
FC
ENDCHAR
STARTCHAR 017F
ENCODING 383
SWIDTH 480 0
DWIDTH 8 0
BBX 11 15 -1 -3
BITMAP
00C0
03E0
0300
0600
0600
0600
0600
0C00
0C00
0C00
0C00
0C00
1800
7800
F000
ENDCHAR
STARTCHAR 0180
ENCODING 384
SWIDTH 480 0
DWIDTH 8 0
BBX 7 12 1 0
BITMAP
08
30
7C
30
3E
7E
66
66
66
C6
FC
F8
ENDCHAR
STARTCHAR 0181
ENCODING 385
SWIDTH 480 0
DWIDTH 8 0
BBX 8 10 1 0
BITMAP
7F
5B
DB
13
3C
36
33
32
7E
7C
ENDCHAR
STARTCHAR 0182
ENCODING 386
SWIDTH 480 0
DWIDTH 8 0
BBX 8 10 1 0
BITMAP
3F
30
60
78
7E
66
C6
C6
FC
F8
ENDCHAR
STARTCHAR 0183
ENCODING 387
SWIDTH 480 0
DWIDTH 8 0
BBX 8 11 1 0
BITMAP
3F
30
30
7C
7E
66
66
C6
C6
FC
F8
ENDCHAR
STARTCHAR 0184
ENCODING 388
SWIDTH 480 0
DWIDTH 8 0
BBX 7 12 1 0
BITMAP
08
30
70
30
3E
7E
66
66
66
C6
FC
F8
ENDCHAR
STARTCHAR 0185
ENCODING 389
SWIDTH 480 0
DWIDTH 8 0
BBX 7 10 1 0
BITMAP
30
70
30
3C
7E
66
66
66
FE
F8
ENDCHAR
STARTCHAR 0186
ENCODING 390
SWIDTH 480 0
DWIDTH 8 0
BBX 8 11 1 0
BITMAP
18
3E
06
06
07
06
06
06
0E
FC
F8
ENDCHAR
STARTCHAR 0187
ENCODING 391
SWIDTH 480 0
DWIDTH 8 0
BBX 10 12 1 0
BITMAP
00C0
05C0
1F00
3000
6000
6000
6000
C000
C000
E000
7C00
7C00
ENDCHAR
STARTCHAR 0188
ENCODING 392
SWIDTH 480 0
DWIDTH 8 0
BBX 9 9 1 0
BITMAP
0380
1E00
7E00
6000
C000
C000
C000
7C00
7C00
ENDCHAR
STARTCHAR 0189
ENCODING 393
SWIDTH 480 0
DWIDTH 8 0
BBX 8 10 1 0
BITMAP
3E
37
33
63
F3
F7
66
CE
FC
F8
ENDCHAR
STARTCHAR 018A
ENCODING 394
SWIDTH 480 0
DWIDTH 8 0
BBX 8 10 1 0
BITMAP
7E
5B
DB
13
33
33
33
36
6C
78
ENDCHAR
STARTCHAR 018B
ENCODING 395
SWIDTH 480 0
DWIDTH 8 0
BBX 8 10 1 0
BITMAP
3F
03
03
1F
7F
E6
C6
C6
FE
7C
ENDCHAR
STARTCHAR 018C
ENCODING 396
SWIDTH 480 0
DWIDTH 8 0
BBX 8 11 1 0
BITMAP
1F
03
03
1F
7F
66
C6
C6
C6
FE
7E
ENDCHAR
STARTCHAR 018D
ENCODING 397
SWIDTH 480 0
DWIDTH 8 0
BBX 8 11 1 -3
BITMAP
3E
7E
67
C6
C6
6E
78
18
18
F8
F0
ENDCHAR
STARTCHAR 018E
ENCODING 398
SWIDTH 480 0
DWIDTH 8 0
BBX 8 10 1 0
BITMAP
3F
03
03
07
3E
06
06
0E
FC
FC
ENDCHAR
STARTCHAR 018F
ENCODING 399
SWIDTH 480 0
DWIDTH 8 0
BBX 8 11 1 0
BITMAP
08
3E
07
03
03
FF
FF
C6
C6
EC
78
ENDCHAR
STARTCHAR 0190
ENCODING 400
SWIDTH 480 0
DWIDTH 8 0
BBX 9 11 1 0
BITMAP
0600
1F80
3100
3000
3000
3E00
7000
C000
C000
FE00
7E00
ENDCHAR
STARTCHAR 0191
ENCODING 401
SWIDTH 480 0
DWIDTH 8 0
BBX 11 13 -1 -3
BITMAP
0FE0
0C00
0C00
0C00
1F80
1F80
1800
1800
3000
3000
3000
E000
C000
ENDCHAR
STARTCHAR 0192
ENCODING 402
SWIDTH 480 0
DWIDTH 8 0
BBX 11 15 -1 -3
BITMAP
00C0
03E0
0300
0600
1FC0
1FC0
0600
0C00
0C00
0C00
0C00
0C00
1800
7800
F000
ENDCHAR
STARTCHAR 0193
ENCODING 403
SWIDTH 480 0
DWIDTH 8 0
BBX 10 12 1 0
BITMAP
00C0
0580
1F00
3000
6000
6000
6000
C600
C600
E600
7E00
7C00
ENDCHAR
STARTCHAR 0194
ENCODING 404
SWIDTH 480 0
DWIDTH 8 0
BBX 8 13 2 -3
BITMAP
C3
46
66
6C
78
78
30
70
70
D0
90
F0
60
ENDCHAR
STARTCHAR 0195
ENCODING 405
SWIDTH 480 0
DWIDTH 8 0
BBX 9 12 0 0
BITMAP
0800
1000
3000
3000
3C80
3C80
2D80
6D80
6D00
4900
4B00
CE00
ENDCHAR
STARTCHAR 0196
ENCODING 406
SWIDTH 480 0
DWIDTH 8 0
BBX 6 10 3 0
BITMAP
FC
60
60
60
60
C0
C0
C0
F8
F8
ENDCHAR
STARTCHAR 0197
ENCODING 407
SWIDTH 480 0
DWIDTH 8 0
BBX 8 10 1 0
BITMAP
3F
0C
0C
18
3E
18
18
30
FC
FC
ENDCHAR
STARTCHAR 0198
ENCODING 408
SWIDTH 480 0
DWIDTH 8 0
BBX 9 10 1 1
BITMAP
3380
3680
6C00
7C00
7800
7800
CC00
CC00
CE00
C600
ENDCHAR
STARTCHAR 0199
ENCODING 409
SWIDTH 480 0
DWIDTH 8 0
BBX 8 12 1 0
BITMAP
0C
1C
30
30
33
76
6C
78
78
6C
CC
C6
ENDCHAR
STARTCHAR 019A
ENCODING 410
SWIDTH 480 0
DWIDTH 8 0
BBX 6 12 2 0
BITMAP
78
78
18
38
30
FC
FC
30
60
60
7C
3C
ENDCHAR
STARTCHAR 019B
ENCODING 411
SWIDTH 480 0
DWIDTH 8 0
BBX 8 12 3 0
BITMAP
10
39
0F
3C
0C
1C
3C
3C
66
66
C6
C6
ENDCHAR
STARTCHAR 019C
ENCODING 412
SWIDTH 480 0
DWIDTH 8 0
BBX 9 10 1 0
BITMAP
6180
6180
6100
4300
DB00
DB00
D200
9200
FE00
FE00
ENDCHAR
STARTCHAR 019D
ENCODING 413
SWIDTH 480 0
DWIDTH 8 0
BBX 12 13 -2 -3
BITMAP
0630
0620
0F60
0F60
0D60
0940
19C0
19C0
19C0
1080
3000
7000
E000
ENDCHAR
STARTCHAR 019E
ENCODING 414
SWIDTH 480 0
DWIDTH 8 0
BBX 7 11 1 -3
BITMAP
3C
7E
66
66
66
C6
CC
CC
0C
0C
18
ENDCHAR
STARTCHAR 019F
ENCODING 415
SWIDTH 480 0
DWIDTH 8 0
BBX 8 11 1 0
BITMAP
0C
3E
33
63
63
FF
FF
C6
C6
FC
78
ENDCHAR
STARTCHAR 01A0
ENCODING 416
SWIDTH 480 0
DWIDTH 8 0
BBX 9 12 1 0
BITMAP
0180
0980
3F00
3700
6300
6300
C300
C600
C600
CE00
FC00
7800
ENDCHAR
STARTCHAR 01A1
ENCODING 417
SWIDTH 480 0
DWIDTH 8 0
BBX 9 9 1 0
BITMAP
0180
3F00
7E00
6600
C600
C600
CE00
FC00
7800
ENDCHAR
STARTCHAR 01A2
ENCODING 418
SWIDTH 480 0
DWIDTH 8 0
BBX 8 10 1 1
BITMAP
3F
6D
4D
4B
CB
CB
DA
92
F6
E6
ENDCHAR
STARTCHAR 01A3
ENCODING 419
SWIDTH 480 0
DWIDTH 8 0
BBX 8 11 1 -3
BITMAP
3F
7F
CB
CB
9A
9A
F6
E6
04
04
0C
ENDCHAR
STARTCHAR 01A4
ENCODING 420
SWIDTH 480 0
DWIDTH 8 0
BBX 7 10 2 0
BITMAP
FE
F6
B2
36
26
7C
60
60
40
C0
ENDCHAR
STARTCHAR 01A5
ENCODING 421
SWIDTH 480 0
DWIDTH 8 0
BBX 8 15 0 -3
BITMAP
04
1E
18
18
3E
3F
33
33
73
63
7E
7C
60
C0
C0
ENDCHAR
STARTCHAR 01A6
ENCODING 422
SWIDTH 480 0
DWIDTH 8 0
BBX 8 14 1 -2
BITMAP
30
30
3E
37
63
63
7E
7C
CC
CC
CC
C6
06
06
ENDCHAR
STARTCHAR 01A7
ENCODING 423
SWIDTH 480 0
DWIDTH 8 0
BBX 8 11 1 0
BITMAP
0C
3F
23
03
07
3E
70
E0
C0
FE
7E
ENDCHAR
STARTCHAR 01A8
ENCODING 424
SWIDTH 480 0
DWIDTH 8 0
BBX 7 8 1 0
BITMAP
3E
3E
06
1E
78
C0
EC
7C
ENDCHAR
STARTCHAR 01A9
ENCODING 425
SWIDTH 480 0
DWIDTH 8 0
BBX 10 10 0 0
BITMAP
1FC0
1800
0C00
0C00
0600
0C00
1800
3000
7F00
FF00
ENDCHAR
STARTCHAR 01AA
ENCODING 426
SWIDTH 480 0
DWIDTH 8 0
BBX 6 15 2 -3
BITMAP
10
7C
CC
CC
78
18
18
18
38
30
30
30
30
38
18
ENDCHAR
STARTCHAR 01AB
ENCODING 427
SWIDTH 480 0
DWIDTH 8 0
BBX 7 13 2 -3
BITMAP
30
30
FE
FE
60
60
60
60
7C
7C
08
38
70
ENDCHAR
STARTCHAR 01AC
ENCODING 428
SWIDTH 480 0
DWIDTH 8 0
BBX 8 10 2 0
BITMAP
FF
D8
98
18
30
30
30
30
60
60
ENDCHAR
STARTCHAR 01AD
ENCODING 429
SWIDTH 480 0
DWIDTH 8 0
BBX 8 12 2 0
BITMAP
04
1F
38
30
FE
FE
60
60
60
60
7C
7C
ENDCHAR
STARTCHAR 01AE
ENCODING 430
SWIDTH 480 0
DWIDTH 8 0
BBX 8 13 2 -3
BITMAP
FF
18
18
30
30
30
30
60
60
60
60
70
30
ENDCHAR
STARTCHAR 01AF
ENCODING 431
SWIDTH 480 0
DWIDTH 8 0
BBX 10 12 1 0
BITMAP
00C0
00C0
3380
6300
6600
6600
6600
C600
CC00
CC00
DC00
7800
ENDCHAR
STARTCHAR 01B0
ENCODING 432
SWIDTH 480 0
DWIDTH 8 0
BBX 9 9 1 0
BITMAP
0180
6700
6600
6400
CC00
CC00
CC00
FC00
FC00
ENDCHAR
STARTCHAR 01B1
ENCODING 433
SWIDTH 480 0
DWIDTH 8 0
BBX 9 10 1 0
BITMAP
7B80
3200
6300
6300
C300
C300
C300
C600
FE00
7C00
ENDCHAR
STARTCHAR 01B2
ENCODING 434
SWIDTH 480 0
DWIDTH 8 0
BBX 8 10 1 0
BITMAP
37
73
63
63
63
63
C6
C6
FC
78
ENDCHAR
STARTCHAR 01B3
ENCODING 435
SWIDTH 480 0
DWIDTH 8 0
BBX 8 10 2 1
BITMAP
C7
C7
6C
78
78
70
60
60
60
60
ENDCHAR
STARTCHAR 01B4
ENCODING 436
SWIDTH 480 0
DWIDTH 8 0
BBX 11 11 -1 -3
BITMAP
18E0
19C0
1980
1B00
1B00
1E00
0E00
0C00
1C00
7800
E000
ENDCHAR
STARTCHAR 01B5
ENCODING 437
SWIDTH 480 0
DWIDTH 8 0
BBX 8 10 1 0
BITMAP
3F
03
06
0C
7E
7E
70
60
FE
FC
ENDCHAR
STARTCHAR 01B6
ENCODING 438
SWIDTH 480 0
DWIDTH 8 0
BBX 8 8 1 0
BITMAP
3F
7F
0E
7E
7E
60
FC
FC
ENDCHAR
STARTCHAR 01B7
ENCODING 439
SWIDTH 480 0
DWIDTH 8 0
BBX 8 10 1 0
BITMAP
3F
03
06
0C
1C
0E
06
06
FE
FC
ENDCHAR
STARTCHAR 01B8
ENCODING 440
SWIDTH 480 0
DWIDTH 8 0
BBX 9 10 1 0
BITMAP
3F80
1800
1800
0C00
3C00
7000
E000
C000
7600
7E00
ENDCHAR
STARTCHAR 01B9
ENCODING 441
SWIDTH 480 0
DWIDTH 8 0
BBX 8 11 1 -3
BITMAP
3F
3F
30
18
1C
78
C0
C0
C0
FC
38
ENDCHAR
STARTCHAR 01BA
ENCODING 442
SWIDTH 480 0
DWIDTH 8 0
BBX 9 11 0 -3
BITMAP
1F80
3F00
0600
0C00
1E00
0600
0600
3E00
F800
C000
C000
ENDCHAR
STARTCHAR 01BB
ENCODING 443
SWIDTH 480 0
DWIDTH 8 0
BBX 8 11 1 0
BITMAP
04
3F
23
03
06
7F
7E
30
60
FE
FE
ENDCHAR
STARTCHAR 01BC
ENCODING 444
SWIDTH 480 0
DWIDTH 8 0
BBX 8 10 1 0
BITMAP
3F
18
30
30
3C
06
06
06
FE
FC
ENDCHAR
STARTCHAR 01BD
ENCODING 445
SWIDTH 480 0
DWIDTH 8 0
BBX 8 8 1 0
BITMAP
3F
7E
30
3C
0E
06
7C
FC
ENDCHAR
STARTCHAR 01BE
ENCODING 446
SWIDTH 480 0
DWIDTH 8 0
BBX 8 10 1 0
BITMAP
18
18
7F
7F
30
38
1E
06
7E
FC
ENDCHAR
STARTCHAR 01BF
ENCODING 447
SWIDTH 480 0
DWIDTH 8 0
BBX 8 11 0 -3
BITMAP
1E
3F
33
33
73
67
6E
7C
F0
C0
C0
ENDCHAR
STARTCHAR 01C0
ENCODING 448
SWIDTH 480 0
DWIDTH 8 0
BBX 6 15 2 -3
BITMAP
0C
18
18
18
18
30
30
30
30
60
60
60
60
C0
C0
ENDCHAR
STARTCHAR 01C1
ENCODING 449
SWIDTH 480 0
DWIDTH 8 0
BBX 8 15 1 -3
BITMAP
1B
1B
3B
33
36
36
36
66
6C
6C
6C
CC
D8
D8
D8
ENDCHAR
STARTCHAR 01C2
ENCODING 450
SWIDTH 480 0
DWIDTH 8 0
BBX 8 15 1 -3
BITMAP
06
0C
0C
0C
0C
7F
FF
18
FE
FE
30
30
30
70
60
ENDCHAR
STARTCHAR 01C3
ENCODING 451
SWIDTH 480 0
DWIDTH 8 0
BBX 4 10 3 0
BITMAP
30
30
70
60
60
60
00
40
C0
C0
ENDCHAR
STARTCHAR 01C4
ENCODING 452
SWIDTH 480 0
DWIDTH 8 0
BBX 11 13 0 1
BITMAP
00E0
0040
0000
3DC0
3440
2480
2480
6500
6D00
4A00
5A00
F700
E700
ENDCHAR
STARTCHAR 01C5
ENCODING 453
SWIDTH 480 0
DWIDTH 8 0
BBX 10 11 0 0
BITMAP
0140
3CC0
3400
25C0
25C0
6480
6D00
4B00
5A00
F700
E700
ENDCHAR
STARTCHAR 01C6
ENCODING 454
SWIDTH 480 0
DWIDTH 8 0
BBX 11 11 0 1
BITMAP
0760
04C0
0400
3DC0
3DC0
6880
4900
5B00
DA00
5700
7700
ENDCHAR
STARTCHAR 01C7
ENCODING 455
SWIDTH 480 0
DWIDTH 8 0
BBX 10 10 0 0
BITMAP
30C0
20C0
2080
2080
6080
4180
4180
4100
C300
F600
ENDCHAR
STARTCHAR 01C8
ENCODING 456
SWIDTH 480 0
DWIDTH 8 0
BBX 10 14 0 -3
BITMAP
00C0
10C0
3000
2080
2180
2180
6100
6100
4300
4300
FA00
0200
1E00
1C00
ENDCHAR
STARTCHAR 01C9
ENCODING 457
SWIDTH 480 0
DWIDTH 8 0
BBX 9 14 1 -2
BITMAP
3180
3180
2000
2100
6300
6300
4200
4200
C200
C600
6400
0400
3C00
3800
ENDCHAR
STARTCHAR 01CA
ENCODING 458
SWIDTH 480 0
DWIDTH 8 0
BBX 10 10 0 0
BITMAP
34C0
34C0
3480
3C80
7C80
5980
5980
5900
DB00
D600
ENDCHAR
STARTCHAR 01CB
ENCODING 459
SWIDTH 480 0
DWIDTH 8 0
BBX 10 14 0 -3
BITMAP
00C0
36C0
3400
3480
3D80
7D80
7900
5900
5B00
DB00
D200
0200
1E00
1C00
ENDCHAR
STARTCHAR 01CC
ENCODING 460
SWIDTH 480 0
DWIDTH 8 0
BBX 10 14 0 -3
BITMAP
00C0
00C0
0000
3C80
2C80
6580
6580
4D00
4D00
CB00
CB00
0200
1E00
1C00
ENDCHAR
STARTCHAR 01CD
ENCODING 461
SWIDTH 480 0
DWIDTH 8 0
BBX 9 14 0 0
BITMAP
0480
0700
0200
0000
0600
0F00
0B00
1B00
1300
3300
3F00
7F00
6300
C300
ENDCHAR
STARTCHAR 01CE
ENCODING 462
SWIDTH 480 0
DWIDTH 8 0
BBX 8 11 1 1
BITMAP
0B
0E
00
1F
7F
66
C6
C6
C6
FE
7E
ENDCHAR
STARTCHAR 01CF
ENCODING 463
SWIDTH 480 0
DWIDTH 8 0
BBX 8 14 1 0
BITMAP
09
0F
04
00
3F
0C
0C
18
18
18
18
30
FC
FC
ENDCHAR
STARTCHAR 01D0
ENCODING 464
SWIDTH 480 0
DWIDTH 8 0
BBX 6 11 2 1
BITMAP
3C
18
00
F0
F0
30
30
60
60
7C
3C
ENDCHAR
STARTCHAR 01D1
ENCODING 465
SWIDTH 480 0
DWIDTH 8 0
BBX 8 14 1 0
BITMAP
09
0F
04
0C
3E
33
63
63
C3
C3
C6
C6
FC
78
ENDCHAR
STARTCHAR 01D2
ENCODING 466
SWIDTH 480 0
DWIDTH 8 0
BBX 7 11 1 1
BITMAP
1E
0C
00
1C
7E
66
C6
C6
C6
FC
78
ENDCHAR
STARTCHAR 01D3
ENCODING 467
SWIDTH 480 0
DWIDTH 8 0
BBX 8 14 1 0
BITMAP
09
0F
04
00
33
63
63
63
66
E6
C6
C6
FC
78
ENDCHAR
STARTCHAR 01D4
ENCODING 468
SWIDTH 480 0
DWIDTH 8 0
BBX 8 11 1 1
BITMAP
1E
0C
00
63
66
66
66
C6
CE
FE
7E
ENDCHAR
STARTCHAR 01D5
ENCODING 469
SWIDTH 480 0
DWIDTH 8 0
BBX 8 14 1 0
BITMAP
0F
00
1B
02
33
63
63
63
66
E6
C6
C6
FC
78
ENDCHAR
STARTCHAR 01D6
ENCODING 470
SWIDTH 480 0
DWIDTH 8 0
BBX 8 12 1 0
BITMAP
1E
12
16
00
63
66
66
66
C6
CE
FE
7E
ENDCHAR
STARTCHAR 01D7
ENCODING 471
SWIDTH 480 0
DWIDTH 8 0
BBX 8 13 1 1
BITMAP
17
11
00
33
63
63
63
66
E6
C6
C6
FC
78
ENDCHAR
STARTCHAR 01D8
ENCODING 472
SWIDTH 480 0
DWIDTH 8 0
BBX 8 13 1 0
BITMAP
06
06
15
33
00
63
66
66
66
C6
CE
FE
7E
ENDCHAR
STARTCHAR 01D9
ENCODING 473
SWIDTH 480 0
DWIDTH 8 0
BBX 8 14 1 0
BITMAP
02
17
19
00
33
63
63
63
66
E6
C6
C6
FC
78
ENDCHAR
STARTCHAR 01DA
ENCODING 474
SWIDTH 480 0
DWIDTH 8 0
BBX 8 13 1 0
BITMAP
02
0E
15
33
00
63
66
66
66
C6
CE
FE
7E
ENDCHAR
STARTCHAR 01DB
ENCODING 475
SWIDTH 480 0
DWIDTH 8 0
BBX 8 14 1 0
BITMAP
04
15
19
00
33
63
63
63
66
E6
C6
C6
FC
78
ENDCHAR
STARTCHAR 01DC
ENCODING 476
SWIDTH 480 0
DWIDTH 8 0
BBX 8 13 1 0
BITMAP
18
08
3E
33
00
63
66
66
66
C6
CE
FE
7E
ENDCHAR
STARTCHAR 01DD
ENCODING 477
SWIDTH 480 0
DWIDTH 8 0
BBX 7 8 1 0
BITMAP
7C
7E
06
3E
F6
C6
FC
F8
ENDCHAR
STARTCHAR 01DE
ENCODING 478
SWIDTH 480 0
DWIDTH 8 0
BBX 9 14 0 0
BITMAP
0780
0000
0D80
0900
0600
0E00
0F00
1B00
1B00
3300
3F00
7F00
6300
C300
ENDCHAR
STARTCHAR 01DF
ENCODING 479
SWIDTH 480 0
DWIDTH 8 0
BBX 8 12 1 0
BITMAP
0F
0A
1B
00
1F
7F
66
C6
C6
C6
FE
7E
ENDCHAR
STARTCHAR 01E0
ENCODING 480
SWIDTH 480 0
DWIDTH 8 0
BBX 9 14 0 0
BITMAP
0780
0000
0200
0200
0600
0E00
0F00
1B00
1B00
3300
3F00
7F00
6300
C300
ENDCHAR
STARTCHAR 01E1
ENCODING 481
SWIDTH 480 0
DWIDTH 8 0
BBX 8 12 1 0
BITMAP
0F
04
0C
00
1F
7F
66
C6
C6
C6
FE
7E
ENDCHAR
STARTCHAR 01E2
ENCODING 482
SWIDTH 480 0
DWIDTH 8 0
BBX 11 13 0 0
BITMAP
03E0
0000
0000
07C0
0F00
0B00
1A00
1780
3600
7E00
7C00
4F00
CF00
ENDCHAR
STARTCHAR 01E3
ENCODING 483
SWIDTH 480 0
DWIDTH 8 0
BBX 8 11 1 0
BITMAP
1F
1F
00
77
7F
19
7B
DE
90
BA
EE
ENDCHAR
STARTCHAR 01E4
ENCODING 484
SWIDTH 480 0
DWIDTH 8 0
BBX 8 11 1 0
BITMAP
06
1F
39
60
60
66
CF
CF
C6
7C
7C
ENDCHAR
STARTCHAR 01E5
ENCODING 485
SWIDTH 480 0
DWIDTH 8 0
BBX 9 11 0 -3
BITMAP
0F80
3F00
3300
6780
6300
6600
3E00
0600
0E00
FC00
7800
ENDCHAR
STARTCHAR 01E6
ENCODING 486
SWIDTH 480 0
DWIDTH 8 0
BBX 8 14 1 0
BITMAP
01
07
06
06
1F
39
70
60
60
C6
C6
E6
7E
7C
ENDCHAR
STARTCHAR 01E7
ENCODING 487
SWIDTH 480 0
DWIDTH 8 0
BBX 9 14 0 -2
BITMAP
0780
0300
0000
0F80
3F80
3300
6300
6300
7300
3E00
0600
0600
FC00
7800
ENDCHAR
STARTCHAR 01E8
ENCODING 488
SWIDTH 480 0
DWIDTH 8 0
BBX 9 14 1 0
BITMAP
0800
0E00
0400
0000
3380
3700
6E00
6C00
7800
7800
CC00
CC00
CE00
C600
ENDCHAR
STARTCHAR 01E9
ENCODING 489
SWIDTH 480 0
DWIDTH 8 0
BBX 8 14 1 0
BITMAP
12
1C
08
00
30
30
33
76
6C
78
78
6C
CC
C6
ENDCHAR
STARTCHAR 01EA
ENCODING 490
SWIDTH 480 0
DWIDTH 8 0
BBX 8 14 1 -3
BITMAP
0C
3E
33
63
63
C3
C3
C6
C6
FC
78
30
60
70
ENDCHAR
STARTCHAR 01EB
ENCODING 491
SWIDTH 480 0
DWIDTH 8 0
BBX 7 11 1 -3
BITMAP
1C
7E
66
C6
C6
C6
FC
78
30
60
70
ENDCHAR
STARTCHAR 01EC
ENCODING 492
SWIDTH 480 0
DWIDTH 8 0
BBX 8 16 1 -3
BITMAP
1F
00
0C
3E
33
63
63
C3
C3
C6
C6
FC
78
30
60
70
ENDCHAR
STARTCHAR 01ED
ENCODING 493
SWIDTH 480 0
DWIDTH 8 0
BBX 8 14 1 -3
BITMAP
1F
1F
00
1C
7E
66
C6
C6
C6
FC
78
30
60
70
ENDCHAR
STARTCHAR 01EE
ENCODING 494
SWIDTH 480 0
DWIDTH 8 0
BBX 8 14 1 0
BITMAP
09
0F
04
00
3F
03
06
0C
1C
0E
06
06
FE
FC
ENDCHAR
STARTCHAR 01EF
ENCODING 495
SWIDTH 480 0
DWIDTH 8 0
BBX 9 14 0 -2
BITMAP
0F00
0600
0000
3F80
3F00
0600
0C00
1800
1E00
0600
0600
0600
FC00
7800
ENDCHAR
STARTCHAR 01F0
ENCODING 496
SWIDTH 480 0
DWIDTH 8 0
BBX 8 14 0 -2
BITMAP
0F
06
00
1F
3F
06
06
06
06
0C
0C
0C
F8
70
ENDCHAR
STARTCHAR 01F1
ENCODING 497
SWIDTH 480 0
DWIDTH 8 0
BBX 10 10 0 0
BITMAP
3DC0
3440
2480
2480
6500
6D00
4A00
5A00
F700
E700
ENDCHAR
STARTCHAR 01F2
ENCODING 498
SWIDTH 480 0
DWIDTH 8 0
BBX 10 10 0 0
BITMAP
3C00
3400
25C0
25C0
6480
6D00
4B00
5A00
F700
E700
ENDCHAR
STARTCHAR 01F3
ENCODING 499
SWIDTH 480 0
DWIDTH 8 0
BBX 10 11 0 1
BITMAP
0600
0400
0400
3DC0
3DC0
6880
4900
5B00
DA00
5700
7700
ENDCHAR
STARTCHAR 01F4
ENCODING 500
SWIDTH 480 0
DWIDTH 8 0
BBX 8 14 1 0
BITMAP
02
06
0C
06
1F
39
70
60
60
C6
C6
E6
7E
7C
ENDCHAR
STARTCHAR 01F5
ENCODING 501
SWIDTH 480 0
DWIDTH 8 0
BBX 9 14 0 -2
BITMAP
0300
0700
0000
0F80
3F80
3300
6300
6300
7300
3E00
0600
0600
FC00
7800
ENDCHAR
STARTCHAR 01F6
ENCODING 502
SWIDTH 480 0
DWIDTH 8 0
BBX 9 10 0 0
BITMAP
3600
3600
3680
2480
7D80
6D80
6D00
4900
CB00
CE00
ENDCHAR
STARTCHAR 01F7
ENCODING 503
SWIDTH 480 0
DWIDTH 8 0
BBX 9 13 0 -3
BITMAP
1F80
1980
1980
3180
3180
3380
3300
7E00
7C00
7000
6000
6000
C000
ENDCHAR
STARTCHAR 01F8
ENCODING 504
SWIDTH 480 0
DWIDTH 8 0
BBX 9 14 1 0
BITMAP
0800
1C00
0600
0000
3180
7100
7300
7B00
7B00
4A00
CE00
CE00
CE00
8400
ENDCHAR
STARTCHAR 01F9
ENCODING 505
SWIDTH 480 0
DWIDTH 8 0
BBX 7 11 1 1
BITMAP
18
0E
00
3E
7E
66
66
66
C6
CC
CC
ENDCHAR
STARTCHAR 01FA
ENCODING 506
SWIDTH 480 0
DWIDTH 8 0
BBX 8 14 0 0
BITMAP
01
07
02
05
07
0E
0F
1B
1B
33
3F
7F
63
C3
ENDCHAR
STARTCHAR 01FB
ENCODING 507
SWIDTH 480 0
DWIDTH 8 0
BBX 8 14 1 0
BITMAP
02
06
04
0A
0E
00
1F
7F
66
C6
C6
C6
FE
7E
ENDCHAR
STARTCHAR 01FC
ENCODING 508
SWIDTH 480 0
DWIDTH 8 0
BBX 10 14 0 0
BITMAP
0080
01C0
0300
0000
07C0
0F00
0B00
1A00
1780
3600
7E00
7C00
4F00
CF00
ENDCHAR
STARTCHAR 01FD
ENCODING 509
SWIDTH 480 0
DWIDTH 8 0
BBX 8 11 1 1
BITMAP
06
0C
00
77
7F
19
7B
DE
90
BA
EE
ENDCHAR
STARTCHAR 01FE
ENCODING 510
SWIDTH 480 0
DWIDTH 8 0
BBX 8 14 1 -1
BITMAP
04
0E
18
0D
3F
37
67
6F
DB
D3
F6
E6
EC
F8
ENDCHAR
STARTCHAR 01FF
ENCODING 511
SWIDTH 480 0
DWIDTH 8 0
BBX 8 11 1 0
BITMAP
0C
1C
00
1F
3F
67
6F
5B
F6
7E
7C
ENDCHAR
STARTCHAR 0200
ENCODING 512
SWIDTH 480 0
DWIDTH 8 0
BBX 9 14 0 0
BITMAP
0100
0D80
0480
0000
0600
0F00
0B00
1B00
1300
3300
3F00
7F00
6300
C300
ENDCHAR
STARTCHAR 0201
ENCODING 513
SWIDTH 480 0
DWIDTH 8 0
BBX 8 11 1 0
BITMAP
36
1B
00
1F
7F
66
C6
C6
C6
FE
7E
ENDCHAR
STARTCHAR 0202
ENCODING 514
SWIDTH 480 0
DWIDTH 8 0
BBX 9 14 0 0
BITMAP
0300
0780
0D80
0000
0600
0F00
0B00
1B00
1300
3300
3F00
7F00
6300
C300
ENDCHAR
STARTCHAR 0203
ENCODING 515
SWIDTH 480 0
DWIDTH 8 0
BBX 8 11 1 0
BITMAP
0E
1B
00
1F
7F
66
C6
C6
C6
FE
7E
ENDCHAR
STARTCHAR 0204
ENCODING 516
SWIDTH 480 0
DWIDTH 8 0
BBX 8 14 1 0
BITMAP
08
1B
0D
00
3F
30
30
60
7E
60
60
E0
FE
FC
ENDCHAR
STARTCHAR 0205
ENCODING 517
SWIDTH 480 0
DWIDTH 8 0
BBX 8 11 1 0
BITMAP
36
1B
00
1E
3F
63
C6
FC
C0
74
7E
ENDCHAR
STARTCHAR 0206
ENCODING 518
SWIDTH 480 0
DWIDTH 8 0
BBX 8 14 1 0
BITMAP
06
0F
09
00
3F
30
30
60
7E
60
60
E0
FE
FC
ENDCHAR
STARTCHAR 0207
ENCODING 519
SWIDTH 480 0
DWIDTH 8 0
BBX 8 11 1 0
BITMAP
0E
1A
00
1E
3F
63
C6
FC
C0
74
7E
ENDCHAR
STARTCHAR 0208
ENCODING 520
SWIDTH 480 0
DWIDTH 8 0
BBX 8 14 1 0
BITMAP
02
1B
09
00
3F
0C
0C
18
18
18
18
30
FC
FC
ENDCHAR
STARTCHAR 0209
ENCODING 521
SWIDTH 480 0
DWIDTH 8 0
BBX 6 11 2 0
BITMAP
6C
24
00
F0
F0
30
30
60
60
7C
3C
ENDCHAR
STARTCHAR 020A
ENCODING 522
SWIDTH 480 0
DWIDTH 8 0
BBX 8 14 1 0
BITMAP
06
0F
1B
00
3F
0C
0C
18
18
18
18
30
FC
FC
ENDCHAR
STARTCHAR 020B
ENCODING 523
SWIDTH 480 0
DWIDTH 8 0
BBX 6 11 2 0
BITMAP
38
6C
00
F0
F0
30
30
60
60
7C
3C
ENDCHAR
STARTCHAR 020C
ENCODING 524
SWIDTH 480 0
DWIDTH 8 0
BBX 8 14 1 0
BITMAP
12
1A
09
0C
3E
33
63
63
C3
C3
C6
C6
FC
78
ENDCHAR
STARTCHAR 020D
ENCODING 525
SWIDTH 480 0
DWIDTH 8 0
BBX 8 11 1 0
BITMAP
36
1B
00
1C
7E
66
C6
C6
C6
FC
78
ENDCHAR
STARTCHAR 020E
ENCODING 526
SWIDTH 480 0
DWIDTH 8 0
BBX 8 14 1 0
BITMAP
06
0F
19
0C
3E
33
63
63
C3
C3
C6
C6
FC
78
ENDCHAR
STARTCHAR 020F
ENCODING 527
SWIDTH 480 0
DWIDTH 8 0
BBX 7 11 1 0
BITMAP
0E
1A
00
1C
7E
66
C6
C6
C6
FC
78
ENDCHAR
STARTCHAR 0210
ENCODING 528
SWIDTH 480 0
DWIDTH 8 0
BBX 8 14 1 0
BITMAP
12
12
0B
00
3E
37
63
63
7E
7C
CC
CC
CC
C6
ENDCHAR
STARTCHAR 0211
ENCODING 529
SWIDTH 480 0
DWIDTH 8 0
BBX 8 11 1 0
BITMAP
36
1B
00
3F
3E
70
60
60
60
60
C0
ENDCHAR
STARTCHAR 0212
ENCODING 530
SWIDTH 480 0
DWIDTH 8 0
BBX 8 14 1 0
BITMAP
06
0F
1B
00
3E
37
63
63
7E
7C
CC
CC
CC
C6
ENDCHAR
STARTCHAR 0213
ENCODING 531
SWIDTH 480 0
DWIDTH 8 0
BBX 8 11 1 0
BITMAP
0E
1B
00
3F
3E
70
60
60
60
60
C0
ENDCHAR
STARTCHAR 0214
ENCODING 532
SWIDTH 480 0
DWIDTH 8 0
BBX 8 14 1 0
BITMAP
02
1B
09
00
33
63
63
63
66
E6
C6
C6
FC
78
ENDCHAR
STARTCHAR 0215
ENCODING 533
SWIDTH 480 0
DWIDTH 8 0
BBX 8 11 1 0
BITMAP
36
1B
00
63
66
66
66
C6
CE
FE
7E
ENDCHAR
STARTCHAR 0216
ENCODING 534
SWIDTH 480 0
DWIDTH 8 0
BBX 8 14 1 0
BITMAP
06
0F
1B
00
33
63
63
63
66
E6
C6
C6
FC
78
ENDCHAR
STARTCHAR 0217
ENCODING 535
SWIDTH 480 0
DWIDTH 8 0
BBX 8 11 1 0
BITMAP
1E
1A
00
63
66
66
66
C6
CE
FE
7E
ENDCHAR
STARTCHAR 0218
ENCODING 536
SWIDTH 480 0
DWIDTH 8 0
BBX 8 14 1 -3
BITMAP
0C
3F
70
60
70
3C
1E
06
06
FE
FC
00
60
C0
ENDCHAR
STARTCHAR 0219
ENCODING 537
SWIDTH 480 0
DWIDTH 8 0
BBX 7 11 1 -3
BITMAP
3E
3E
60
78
1C
0E
FC
FC
00
20
E0
ENDCHAR
STARTCHAR 021A
ENCODING 538
SWIDTH 480 0
DWIDTH 8 0
BBX 9 13 1 -3
BITMAP
7F80
0C00
0C00
1800
1800
1800
1800
3000
3000
3000
0000
6000
C000
ENDCHAR
STARTCHAR 021B
ENCODING 539
SWIDTH 480 0
DWIDTH 8 0
BBX 7 13 2 -3
BITMAP
30
30
FE
FE
60
60
60
60
7C
7C
00
20
E0
ENDCHAR
STARTCHAR 021C
ENCODING 540
SWIDTH 480 0
DWIDTH 8 0
BBX 10 14 -1 -3
BITMAP
0200
1F80
11C0
00C0
0180
0380
0E00
0700
0180
0180
0380
0700
7E00
F800
ENDCHAR
STARTCHAR 021D
ENCODING 541
SWIDTH 480 0
DWIDTH 8 0
BBX 8 11 0 -3
BITMAP
3E
3F
03
03
1E
1E
06
06
0E
FC
E0
ENDCHAR
STARTCHAR 021E
ENCODING 542
SWIDTH 480 0
DWIDTH 8 0
BBX 9 14 1 0
BITMAP
0900
0F00
0400
0000
3180
7300
6300
6300
7F00
6600
C600
C600
C600
CC00
ENDCHAR
STARTCHAR 021F
ENCODING 543
SWIDTH 480 0
DWIDTH 8 0
BBX 7 14 1 0
BITMAP
10
1C
08
00
30
30
3E
7E
66
66
66
C6
CC
CC
ENDCHAR
STARTCHAR 0220
ENCODING 544
SWIDTH 480 0
DWIDTH 8 0
BBX 8 14 1 -3
BITMAP
0C
3E
37
63
63
63
66
C6
C6
C6
CC
0C
0C
0C
ENDCHAR
STARTCHAR 0221
ENCODING 545
SWIDTH 480 0
DWIDTH 8 0
BBX 8 15 1 -3
BITMAP
01
06
06
06
3E
7C
CC
CC
CC
88
DE
FA
3A
7E
4C
ENDCHAR
STARTCHAR 0222
ENCODING 546
SWIDTH 480 0
DWIDTH 8 0
BBX 8 10 1 0
BITMAP
33
33
33
36
3C
E6
C6
C6
FE
7C
ENDCHAR
STARTCHAR 0223
ENCODING 547
SWIDTH 480 0
DWIDTH 8 0
BBX 9 12 1 0
BITMAP
1980
3380
3300
3300
3700
3C00
7E00
E600
C600
C600
FE00
7800
ENDCHAR
STARTCHAR 0224
ENCODING 548
SWIDTH 480 0
DWIDTH 8 0
BBX 8 13 1 -3
BITMAP
3F
03
06
0C
18
30
70
60
FE
FC
0C
3C
38
ENDCHAR
STARTCHAR 0225
ENCODING 549
SWIDTH 480 0
DWIDTH 8 0
BBX 8 11 0 -3
BITMAP
3F
3F
0E
1C
38
70
7E
FC
04
1C
38
ENDCHAR
STARTCHAR 0226
ENCODING 550
SWIDTH 480 0
DWIDTH 8 0
BBX 8 14 0 0
BITMAP
02
07
02
00
06
0F
0B
1B
13
33
3F
7F
63
C3
ENDCHAR
STARTCHAR 0227
ENCODING 551
SWIDTH 480 0
DWIDTH 8 0
BBX 8 11 1 0
BITMAP
0E
0E
00
1F
7F
66
C6
C6
C6
FE
7E
ENDCHAR
STARTCHAR 0228
ENCODING 552
SWIDTH 480 0
DWIDTH 8 0
BBX 8 13 1 -3
BITMAP
3F
30
30
60
7E
60
60
E0
FE
FC
30
10
70
ENDCHAR
STARTCHAR 0229
ENCODING 553
SWIDTH 480 0
DWIDTH 8 0
BBX 8 11 1 -3
BITMAP
1E
3F
63
C6
FC
C0
74
7E
30
18
70
ENDCHAR
STARTCHAR 022A
ENCODING 554
SWIDTH 480 0
DWIDTH 8 0
BBX 8 14 1 0
BITMAP
0F
00
1B
0A
1E
3F
73
63
63
C3
C6
C6
FC
78
ENDCHAR
STARTCHAR 022B
ENCODING 555
SWIDTH 480 0
DWIDTH 8 0
BBX 8 12 1 0
BITMAP
0F
0A
1B
00
1C
7E
66
C6
C6
C6
FC
78
ENDCHAR
STARTCHAR 022C
ENCODING 556
SWIDTH 480 0
DWIDTH 8 0
BBX 8 14 1 0
BITMAP
0F
00
1F
00
1E
3F
73
63
63
C3
C6
C6
FC
78
ENDCHAR
STARTCHAR 022D
ENCODING 557
SWIDTH 480 0
DWIDTH 8 0
BBX 8 12 1 0
BITMAP
0F
08
1E
00
1C
7E
66
C6
C6
C6
FC
78
ENDCHAR
STARTCHAR 022E
ENCODING 558
SWIDTH 480 0
DWIDTH 8 0
BBX 8 14 1 0
BITMAP
02
06
06
0C
3E
33
63
63
C3
C3
C6
C6
FC
78
ENDCHAR
STARTCHAR 022F
ENCODING 559
SWIDTH 480 0
DWIDTH 8 0
BBX 7 11 1 0
BITMAP
0E
0C
00
1C
7E
66
C6
C6
C6
FC
78
ENDCHAR
STARTCHAR 0230
ENCODING 560
SWIDTH 480 0
DWIDTH 8 0
BBX 8 14 1 0
BITMAP
0F
00
06
04
1E
3F
73
63
63
C3
C6
C6
FC
78
ENDCHAR
STARTCHAR 0231
ENCODING 561
SWIDTH 480 0
DWIDTH 8 0
BBX 8 12 1 0
BITMAP
0F
04
0C
00
1C
7E
66
C6
C6
C6
FC
78
ENDCHAR
STARTCHAR 0232
ENCODING 562
SWIDTH 480 0
DWIDTH 8 0
BBX 8 13 2 0
BITMAP
1E
00
00
C3
66
6E
6C
78
30
30
70
60
60
ENDCHAR
STARTCHAR 0233
ENCODING 563
SWIDTH 480 0
DWIDTH 8 0
BBX 10 14 -1 -3
BITMAP
07C0
0780
0000
18C0
18C0
1980
1980
1B00
0F00
0E00
0C00
1C00
7800
E000
ENDCHAR
STARTCHAR 0234
ENCODING 564
SWIDTH 480 0
DWIDTH 8 0
BBX 8 15 0 -3
BITMAP
1E
1E
06
0C
0C
0C
0C
18
18
18
1E
3B
73
DE
0C
ENDCHAR
STARTCHAR 0235
ENCODING 565
SWIDTH 480 0
DWIDTH 8 0
BBX 8 11 0 -3
BITMAP
3C
3E
26
66
66
64
6F
CD
1D
3F
26
ENDCHAR
STARTCHAR 0236
ENCODING 566
SWIDTH 480 0
DWIDTH 8 0
BBX 9 13 0 -3
BITMAP
0C00
0C00
3F80
3F80
1800
1800
1800
1800
3E00
3600
7200
FE00
1C00
ENDCHAR
STARTCHAR 0237
ENCODING 567
SWIDTH 480 0
DWIDTH 8 0
BBX 8 11 0 -3
BITMAP
1F
3F
06
06
06
06
0C
0C
0C
F8
70
ENDCHAR
STARTCHAR 0238
ENCODING 568
SWIDTH 480 0
DWIDTH 8 0
BBX 8 11 1 1
BITMAP
04
0C
0C
3E
7F
DB
DB
93
92
F6
FC
ENDCHAR
STARTCHAR 0239
ENCODING 569
SWIDTH 480 0
DWIDTH 8 0
BBX 8 11 1 -3
BITMAP
3E
7F
DB
DB
93
92
B6
FC
30
20
60
ENDCHAR
STARTCHAR 023A
ENCODING 570
SWIDTH 480 0
DWIDTH 8 0
BBX 9 12 0 -1
BITMAP
0080
0700
0F00
1B00
1B00
3700
3700
7F00
7F00
D300
D300
2000
ENDCHAR
STARTCHAR 023B
ENCODING 571
SWIDTH 480 0
DWIDTH 8 0
BBX 9 13 1 -2
BITMAP
0100
0700
1F80
3B00
6600
6400
6C00
C800
D800
F000
7E00
7E00
6000
ENDCHAR
STARTCHAR 023C
ENCODING 572
SWIDTH 480 0
DWIDTH 8 0
BBX 8 10 1 -1
BITMAP
02
1F
3E
64
E8
C8
D0
7C
7E
20
ENDCHAR
STARTCHAR 023D
ENCODING 573
SWIDTH 480 0
DWIDTH 8 0
BBX 7 10 1 0
BITMAP
18
30
30
30
FC
60
60
60
7E
FC
ENDCHAR
STARTCHAR 023E
ENCODING 574
SWIDTH 480 0
DWIDTH 8 0
BBX 11 11 0 -1
BITMAP
0060
3FC0
0780
0D00
0E00
0C00
0C00
1800
3800
7800
D800
ENDCHAR
STARTCHAR 023F
ENCODING 575
SWIDTH 480 0
DWIDTH 8 0
BBX 7 11 1 -3
BITMAP
3E
3E
60
78
1C
0E
FC
FC
60
38
18
ENDCHAR
STARTCHAR 0240
ENCODING 576
SWIDTH 480 0
DWIDTH 8 0
BBX 8 11 1 -3
BITMAP
3F
7F
0E
1C
30
70
E0
E0
30
1C
0C
ENDCHAR
STARTCHAR 0241
ENCODING 577
SWIDTH 480 0
DWIDTH 8 0
BBX 7 11 2 0
BITMAP
18
7E
4E
06
0C
38
70
60
60
C0
C0
ENDCHAR
STARTCHAR 0242
ENCODING 578
SWIDTH 480 0
DWIDTH 8 0
BBX 5 8 3 0
BITMAP
F8
F8
18
18
70
C0
C0
C0
ENDCHAR
STARTCHAR 0243
ENCODING 579
SWIDTH 480 0
DWIDTH 8 0
BBX 8 10 1 0
BITMAP
3E
33
33
66
7C
6E
F6
C6
FE
FC
ENDCHAR
STARTCHAR 0244
ENCODING 580
SWIDTH 480 0
DWIDTH 8 0
BBX 8 10 1 0
BITMAP
33
33
63
FF
FF
66
C6
CE
FC
78
ENDCHAR
STARTCHAR 0245
ENCODING 581
SWIDTH 480 0
DWIDTH 8 0
BBX 8 10 0 0
BITMAP
06
0F
0B
1B
33
33
33
63
63
C3
ENDCHAR
STARTCHAR 0246
ENCODING 582
SWIDTH 480 0
DWIDTH 8 0
BBX 9 13 1 -2
BITMAP
0080
3F80
3300
7200
6600
7E00
6800
F800
D000
FE00
FC00
4000
4000
ENDCHAR
STARTCHAR 0247
ENCODING 583
SWIDTH 480 0
DWIDTH 8 0
BBX 8 10 1 -1
BITMAP
06
1E
3F
6B
CE
FC
D0
74
7C
20
ENDCHAR
STARTCHAR 0248
ENCODING 584
SWIDTH 480 0
DWIDTH 8 0
BBX 8 10 1 0
BITMAP
1F
03
06
06
1F
06
0C
0C
FC
F8
ENDCHAR
STARTCHAR 0249
ENCODING 585
SWIDTH 480 0
DWIDTH 8 0
BBX 8 14 0 -3
BITMAP
03
07
00
1F
3F
06
3F
3F
06
0C
0C
0C
F8
70
ENDCHAR
STARTCHAR 024A
ENCODING 586
SWIDTH 480 0
DWIDTH 8 0
BBX 8 14 1 -3
BITMAP
0C
3E
37
63
63
C2
C6
C6
CE
FE
7C
0C
0E
06
ENDCHAR
STARTCHAR 024B
ENCODING 587
SWIDTH 480 0
DWIDTH 8 0
BBX 8 11 1 -3
BITMAP
1F
3E
66
C6
C6
CE
FC
7C
0C
0E
0E
ENDCHAR
STARTCHAR 024C
ENCODING 588
SWIDTH 480 0
DWIDTH 8 0
BBX 8 10 1 0
BITMAP
3E
33
33
33
FE
FC
6C
6C
C6
C6
ENDCHAR
STARTCHAR 024D
ENCODING 589
SWIDTH 480 0
DWIDTH 8 0
BBX 8 8 1 0
BITMAP
1F
3E
30
60
FC
60
60
C0
ENDCHAR
STARTCHAR 024E
ENCODING 590
SWIDTH 480 0
DWIDTH 8 0
BBX 8 10 2 0
BITMAP
43
FF
FF
6C
78
30
30
70
60
60
ENDCHAR
STARTCHAR 024F
ENCODING 591
SWIDTH 480 0
DWIDTH 8 0
BBX 10 11 -1 -3
BITMAP
18C0
19C0
1980
3FC0
1B00
0B00
0E00
0C00
1C00
7800
E000
ENDCHAR
STARTCHAR 0292
ENCODING 658
SWIDTH 480 0
DWIDTH 8 0
BBX 9 11 0 -3
BITMAP
3F80
3F00
0600
0C00
1800
1E00
0600
0600
0600
FC00
7800
ENDCHAR
STARTCHAR 02BC
ENCODING 700
SWIDTH 480 0
DWIDTH 8 0
BBX 2 4 5 8
BITMAP
C0
C0
80
80
ENDCHAR
STARTCHAR 02C6
ENCODING 710
SWIDTH 480 0
DWIDTH 8 0
BBX 4 3 4 8
BITMAP
20
60
F0
ENDCHAR
STARTCHAR 02C7
ENCODING 711
SWIDTH 480 0
DWIDTH 8 0
BBX 4 2 4 9
BITMAP
F0
60
ENDCHAR
STARTCHAR 02C9
ENCODING 713
SWIDTH 480 0
DWIDTH 8 0
BBX 5 2 4 9
BITMAP
F8
F0
ENDCHAR
STARTCHAR 02D8
ENCODING 728
SWIDTH 480 0
DWIDTH 8 0
BBX 5 2 4 9
BITMAP
D8
70
ENDCHAR
STARTCHAR 02D9
ENCODING 729
SWIDTH 480 0
DWIDTH 8 0
BBX 2 2 5 9
BITMAP
C0
C0
ENDCHAR
STARTCHAR 02DA
ENCODING 730
SWIDTH 480 0
DWIDTH 8 0
BBX 3 3 5 9
BITMAP
E0
A0
E0
ENDCHAR
STARTCHAR 02DB
ENCODING 731
SWIDTH 480 0
DWIDTH 8 0
BBX 3 3 2 -3
BITMAP
60
C0
E0
ENDCHAR
STARTCHAR 02DC
ENCODING 732
SWIDTH 480 0
DWIDTH 8 0
BBX 6 2 3 9
BITMAP
7C
F8
ENDCHAR
STARTCHAR 02DD
ENCODING 733
SWIDTH 480 0
DWIDTH 8 0
BBX 6 2 3 9
BITMAP
6C
D8
ENDCHAR
STARTCHAR 0311
ENCODING 785
SWIDTH 480 0
DWIDTH 8 0
BBX 4 2 4 9
BITMAP
F0
90
ENDCHAR
STARTCHAR 0384
ENCODING 900
SWIDTH 480 0
DWIDTH 8 0
BBX 2 3 5 9
BITMAP
40
C0
80
ENDCHAR
STARTCHAR 0385
ENCODING 901
SWIDTH 480 0
DWIDTH 8 0
BBX 7 3 3 9
BITMAP
10
D6
E4
ENDCHAR
STARTCHAR 0386
ENCODING 902
SWIDTH 480 0
DWIDTH 8 0
BBX 8 11 0 0
BITMAP
30
36
2F
2B
1B
13
33
3F
7F
63
C3
ENDCHAR
STARTCHAR 0388
ENCODING 904
SWIDTH 480 0
DWIDTH 8 0
BBX 9 11 0 0
BITMAP
4000
DF80
D800
9800
3000
3F00
3000
3000
7000
7F00
7E00
ENDCHAR
STARTCHAR 0389
ENCODING 905
SWIDTH 480 0
DWIDTH 8 0
BBX 11 11 -1 0
BITMAP
6000
6C60
DCC0
58C0
18C0
1FC0
1980
3180
3180
3180
3300
ENDCHAR
STARTCHAR 038A
ENCODING 906
SWIDTH 480 0
DWIDTH 8 0
BBX 9 11 0 0
BITMAP
C000
DF80
8600
8600
0C00
0C00
0C00
0C00
1800
7E00
7E00
ENDCHAR
STARTCHAR 038C
ENCODING 908
SWIDTH 480 0
DWIDTH 8 0
BBX 9 11 0 0
BITMAP
4600
7F00
D980
3180
3180
6180
6180
6300
6300
7E00
3C00
ENDCHAR
STARTCHAR 038E
ENCODING 910
SWIDTH 480 0
DWIDTH 8 0
BBX 11 11 -1 0
BITMAP
4000
D860
CCC0
0DC0
0D80
0F00
0600
0600
0E00
0C00
0C00
ENDCHAR
STARTCHAR 038F
ENCODING 911
SWIDTH 480 0
DWIDTH 8 0
BBX 9 11 0 0
BITMAP
4600
DF80
F980
3180
3180
6180
6180
6300
2200
F700
FF00
ENDCHAR
STARTCHAR 0390
ENCODING 912
SWIDTH 480 0
DWIDTH 8 0
BBX 8 12 2 0
BITMAP
08
6B
72
00
F0
F0
30
30
60
60
7C
3C
ENDCHAR
STARTCHAR 0391
ENCODING 913
SWIDTH 480 0
DWIDTH 8 0
BBX 8 10 0 0
BITMAP
06
0F
0B
1B
13
33
3F
7F
63
C3
ENDCHAR
STARTCHAR 0392
ENCODING 914
SWIDTH 480 0
DWIDTH 8 0
BBX 8 10 1 0
BITMAP
3E
33
63
66
7C
6E
C6
C6
FE
FC
ENDCHAR
STARTCHAR 0393
ENCODING 915
SWIDTH 480 0
DWIDTH 8 0
BBX 10 10 0 0
BITMAP
0FC0
0C00
0C00
1800
1800
1800
1800
3000
7C00
FC00
ENDCHAR
STARTCHAR 0394
ENCODING 916
SWIDTH 480 0
DWIDTH 8 0
BBX 8 10 0 0
BITMAP
06
0F
0B
1B
13
33
23
63
7F
FF
ENDCHAR
STARTCHAR 0395
ENCODING 917
SWIDTH 480 0
DWIDTH 8 0
BBX 8 10 1 0
BITMAP
3F
30
30
60
7E
60
60
E0
FE
FC
ENDCHAR
STARTCHAR 0396
ENCODING 918
SWIDTH 480 0
DWIDTH 8 0
BBX 8 10 1 0
BITMAP
3F
03
06
0C
18
30
70
60
FE
FC
ENDCHAR
STARTCHAR 0397
ENCODING 919
SWIDTH 480 0
DWIDTH 8 0
BBX 9 10 1 0
BITMAP
3180
7300
6300
6300
7F00
6600
C600
C600
C600
CC00
ENDCHAR
STARTCHAR 0398
ENCODING 920
SWIDTH 480 0
DWIDTH 8 0
BBX 8 11 1 0
BITMAP
0C
3E
33
63
63
DB
DB
C6
C6
FC
78
ENDCHAR
STARTCHAR 0399
ENCODING 921
SWIDTH 480 0
DWIDTH 8 0
BBX 8 10 1 0
BITMAP
3F
0C
0C
18
18
18
18
30
FC
FC
ENDCHAR
STARTCHAR 039A
ENCODING 922
SWIDTH 480 0
DWIDTH 8 0
BBX 9 10 1 0
BITMAP
3380
3700
6E00
6C00
7800
7800
CC00
CC00
CE00
C600
ENDCHAR
STARTCHAR 039B
ENCODING 923
SWIDTH 480 0
DWIDTH 8 0
BBX 8 10 0 0
BITMAP
06
0F
0B
1B
33
33
33
63
63
C3
ENDCHAR
STARTCHAR 039C
ENCODING 924
SWIDTH 480 0
DWIDTH 8 0
BBX 9 10 0 0
BITMAP
1980
3980
3B80
2B80
2F80
6D80
6100
6300
4300
C300
ENDCHAR
STARTCHAR 039D
ENCODING 925
SWIDTH 480 0
DWIDTH 8 0
BBX 9 10 1 0
BITMAP
3180
7100
7300
7B00
7B00
4A00
CE00
CE00
CE00
8400
ENDCHAR
STARTCHAR 039E
ENCODING 926
SWIDTH 480 0
DWIDTH 8 0
BBX 10 10 0 0
BITMAP
1FC0
0000
0000
0000
3F00
0000
0000
0000
7F00
FF00
ENDCHAR
STARTCHAR 039F
ENCODING 927
SWIDTH 480 0
DWIDTH 8 0
BBX 8 11 1 0
BITMAP
0C
3E
33
63
63
C3
C3
C6
C6
FC
78
ENDCHAR
STARTCHAR 03A0
ENCODING 928
SWIDTH 480 0
DWIDTH 8 0
BBX 9 10 1 0
BITMAP
3F80
3300
6300
6300
6300
6600
C600
C600
C600
CC00
ENDCHAR
STARTCHAR 03A1
ENCODING 929
SWIDTH 480 0
DWIDTH 8 0
BBX 8 10 1 0
BITMAP
3F
33
63
63
67
7E
E0
C0
C0
C0
ENDCHAR
STARTCHAR 03A3
ENCODING 931
SWIDTH 480 0
DWIDTH 8 0
BBX 10 10 0 0
BITMAP
1FC0
1800
0C00
0C00
0600
0C00
1800
3000
7F00
FF00
ENDCHAR
STARTCHAR 03A4
ENCODING 932
SWIDTH 480 0
DWIDTH 8 0
BBX 8 10 2 0
BITMAP
FF
18
18
30
30
30
30
60
60
60
ENDCHAR
STARTCHAR 03A5
ENCODING 933
SWIDTH 480 0
DWIDTH 8 0
BBX 8 10 2 0
BITMAP
C3
66
6E
6C
78
30
30
70
60
60
ENDCHAR
STARTCHAR 03A6
ENCODING 934
SWIDTH 480 0
DWIDTH 8 0
BBX 8 11 1 0
BITMAP
04
1E
3F
6B
4B
DB
DB
D6
7E
78
30
ENDCHAR
STARTCHAR 03A7
ENCODING 935
SWIDTH 480 0
DWIDTH 8 0
BBX 10 10 0 0
BITMAP
19C0
1980
0F00
0E00
0C00
1E00
1E00
3600
6300
E300
ENDCHAR
STARTCHAR 03A8
ENCODING 936
SWIDTH 480 0
DWIDTH 8 0
BBX 8 10 2 0
BITMAP
C3
C3
D2
96
B6
B4
FC
70
60
60
ENDCHAR
STARTCHAR 03A9
ENCODING 937
SWIDTH 480 0
DWIDTH 8 0
BBX 9 11 0 0
BITMAP
0600
1F80
3980
3180
3180
6180
6180
6300
2200
F700
FF00
ENDCHAR
STARTCHAR 03AA
ENCODING 938
SWIDTH 480 0
DWIDTH 8 0
BBX 8 14 1 0
BITMAP
01
1B
19
00
3F
0C
0C
18
18
18
18
30
FC
FC
ENDCHAR
STARTCHAR 03AB
ENCODING 939
SWIDTH 480 0
DWIDTH 8 0
BBX 8 14 2 0
BITMAP
02
36
32
00
C3
66
6E
6C
78
30
30
70
60
60
ENDCHAR
STARTCHAR 03AC
ENCODING 940
SWIDTH 480 0
DWIDTH 8 0
BBX 8 12 1 0
BITMAP
02
06
0C
00
1F
7E
66
C6
C6
C6
FE
7E
ENDCHAR
STARTCHAR 03AD
ENCODING 941
SWIDTH 480 0
DWIDTH 8 0
BBX 8 12 1 0
BITMAP
02
06
0C
00
3F
7E
60
3C
7C
C0
FE
7E
ENDCHAR
STARTCHAR 03AE
ENCODING 942
SWIDTH 480 0
DWIDTH 8 0
BBX 7 15 1 -3
BITMAP
02
06
0C
00
3C
7E
66
66
66
C6
CC
CC
0C
0C
18
ENDCHAR
STARTCHAR 03AF
ENCODING 943
SWIDTH 480 0
DWIDTH 8 0
BBX 6 12 2 0
BITMAP
04
0C
18
00
F0
F0
30
30
60
60
7C
3C
ENDCHAR
STARTCHAR 03B0
ENCODING 944
SWIDTH 480 0
DWIDTH 8 0
BBX 9 12 1 0
BITMAP
0400
3580
3900
0000
6300
6300
6600
6600
E600
CE00
FC00
7800
ENDCHAR
STARTCHAR 03B1
ENCODING 945
SWIDTH 480 0
DWIDTH 8 0
BBX 8 8 1 0
BITMAP
1F
7E
66
C6
C6
C6
FE
7E
ENDCHAR
STARTCHAR 03B2
ENCODING 946
SWIDTH 480 0
DWIDTH 8 0
BBX 9 15 0 -3
BITMAP
0200
0F80
1980
1980
3300
3600
3700
3300
6300
6300
7F00
7E00
C000
C000
C000
ENDCHAR
STARTCHAR 03B3
ENCODING 947
SWIDTH 480 0
DWIDTH 8 0
BBX 7 11 2 -3
BITMAP
C6
C6
CC
CC
D8
D8
F0
E0
C0
C0
C0
ENDCHAR
STARTCHAR 03B4
ENCODING 948
SWIDTH 480 0
DWIDTH 8 0
BBX 8 12 1 0
BITMAP
04
1F
38
38
1C
3E
66
C6
C6
C6
FC
78
ENDCHAR
STARTCHAR 03B5
ENCODING 949
SWIDTH 480 0
DWIDTH 8 0
BBX 8 8 1 0
BITMAP
3F
7E
60
3C
7C
C0
FE
7E
ENDCHAR
STARTCHAR 03B6
ENCODING 950
SWIDTH 480 0
DWIDTH 8 0
BBX 8 14 2 -3
BITMAP
3F
06
1C
38
70
60
C0
C0
C0
F0
7C
0C
18
08
ENDCHAR
STARTCHAR 03B7
ENCODING 951
SWIDTH 480 0
DWIDTH 8 0
BBX 7 11 1 -3
BITMAP
3C
7E
66
66
66
C6
CC
CC
0C
0C
18
ENDCHAR
STARTCHAR 03B8
ENCODING 952
SWIDTH 480 0
DWIDTH 8 0
BBX 8 12 1 0
BITMAP
04
1F
33
63
63
7F
FF
C3
C6
C6
7C
78
ENDCHAR
STARTCHAR 03B9
ENCODING 953
SWIDTH 480 0
DWIDTH 8 0
BBX 6 8 2 0
BITMAP
F0
F0
30
30
60
60
7C
3C
ENDCHAR
STARTCHAR 03BA
ENCODING 954
SWIDTH 480 0
DWIDTH 8 0
BBX 8 8 1 0
BITMAP
33
76
6C
78
78
6C
CC
C6
ENDCHAR
STARTCHAR 03BB
ENCODING 955
SWIDTH 480 0
DWIDTH 8 0
BBX 8 12 0 0
BITMAP
18
1C
0E
06
06
0E
1E
1E
36
77
67
E7
ENDCHAR
STARTCHAR 03BC
ENCODING 956
SWIDTH 480 0
DWIDTH 8 0
BBX 9 11 0 -3
BITMAP
3980
3300
3300
3300
3300
6300
7F00
7F00
6000
C000
C000
ENDCHAR
STARTCHAR 03BD
ENCODING 957
SWIDTH 480 0
DWIDTH 8 0
BBX 7 8 2 0
BITMAP
C6
C6
CC
CC
D8
F8
70
60
ENDCHAR
STARTCHAR 03BE
ENCODING 958
SWIDTH 480 0
DWIDTH 8 0
BBX 9 15 1 -3
BITMAP
0200
1F80
1800
3000
3800
1E00
3E00
6000
E000
E000
7800
3C00
0E00
0C00
0800
ENDCHAR
STARTCHAR 03BF
ENCODING 959
SWIDTH 480 0
DWIDTH 8 0
BBX 7 8 1 0
BITMAP
1C
7E
66
C6
C6
C6
FC
78
ENDCHAR
STARTCHAR 03C0
ENCODING 960
SWIDTH 480 0
DWIDTH 8 0
BBX 8 8 1 0
BITMAP
3F
7F
66
66
66
C6
CC
CC
ENDCHAR
STARTCHAR 03C1
ENCODING 961
SWIDTH 480 0
DWIDTH 8 0
BBX 8 11 0 -3
BITMAP
0E
3F
33
33
63
63
7E
7C
E0
C0
C0
ENDCHAR
STARTCHAR 03C2
ENCODING 962
SWIDTH 480 0
DWIDTH 8 0
BBX 8 11 1 -3
BITMAP
1F
3F
60
60
C0
E0
78
3C
0C
0C
08
ENDCHAR
STARTCHAR 03C3
ENCODING 963
SWIDTH 480 0
DWIDTH 8 0
BBX 9 8 1 0
BITMAP
1F80
7F00
6600
C600
C600
CE00
FC00
7800
ENDCHAR
STARTCHAR 03C4
ENCODING 964
SWIDTH 480 0
DWIDTH 8 0
BBX 7 8 2 0
BITMAP
FE
FE
60
60
60
60
7C
7C
ENDCHAR
STARTCHAR 03C5
ENCODING 965
SWIDTH 480 0
DWIDTH 8 0
BBX 8 8 1 0
BITMAP
63
63
66
66
E6
CE
FC
78
ENDCHAR
STARTCHAR 03C6
ENCODING 966
SWIDTH 480 0
DWIDTH 8 0
BBX 8 11 1 -3
BITMAP
3E
7E
DB
DB
DB
D6
FE
7C
30
20
60
ENDCHAR
STARTCHAR 03C7
ENCODING 967
SWIDTH 480 0
DWIDTH 8 0
BBX 8 8 1 0
BITMAP
63
76
3C
3C
38
7C
6C
C6
ENDCHAR
STARTCHAR 03C8
ENCODING 968
SWIDTH 480 0
DWIDTH 8 0
BBX 8 11 1 -3
BITMAP
61
43
5B
DB
D2
D6
F6
7C
30
20
60
ENDCHAR
STARTCHAR 03C9
ENCODING 969
SWIDTH 480 0
DWIDTH 8 0
BBX 8 8 1 0
BITMAP
22
63
C3
DB
DB
92
FE
FE
ENDCHAR
STARTCHAR 03CA
ENCODING 970
SWIDTH 480 0
DWIDTH 8 0
BBX 7 11 2 0
BITMAP
36
26
00
F0
F0
30
30
60
60
7C
3C
ENDCHAR
STARTCHAR 03CB
ENCODING 971
SWIDTH 480 0
DWIDTH 8 0
BBX 8 11 1 0
BITMAP
33
32
00
63
63
66
66
E6
CE
FC
78
ENDCHAR
STARTCHAR 03CC
ENCODING 972
SWIDTH 480 0
DWIDTH 8 0
BBX 7 12 1 0
BITMAP
02
06
0C
00
1C
7E
66
C6
C6
C6
FC
78
ENDCHAR
STARTCHAR 03CD
ENCODING 973
SWIDTH 480 0
DWIDTH 8 0
BBX 8 12 1 0
BITMAP
02
06
0C
00
63
63
66
66
E6
CE
FC
78
ENDCHAR
STARTCHAR 03CE
ENCODING 974
SWIDTH 480 0
DWIDTH 8 0
BBX 8 12 1 0
BITMAP
06
06
0C
00
22
63
C3
DB
DB
92
FE
FE
ENDCHAR
STARTCHAR 0400
ENCODING 1024
SWIDTH 480 0
DWIDTH 8 0
BBX 8 14 1 0
BITMAP
08
0C
06
00
3F
30
30
60
7E
60
60
E0
FE
FC
ENDCHAR
STARTCHAR 0401
ENCODING 1025
SWIDTH 480 0
DWIDTH 8 0
BBX 9 14 1 0
BITMAP
0100
1B80
1900
0000
3F00
3000
3000
6000
7E00
6000
6000
E000
FE00
FC00
ENDCHAR
STARTCHAR 0402
ENCODING 1026
SWIDTH 480 0
DWIDTH 8 0
BBX 8 10 1 0
BITMAP
7E
30
30
30
3E
66
63
66
7E
DC
ENDCHAR
STARTCHAR 0403
ENCODING 1027
SWIDTH 480 0
DWIDTH 8 0
BBX 10 14 0 0
BITMAP
0080
0180
0300
0000
0FC0
0C00
0C00
1800
1800
1800
1800
3000
7C00
FC00
ENDCHAR
STARTCHAR 0404
ENCODING 1028
SWIDTH 480 0
DWIDTH 8 0
BBX 8 11 1 0
BITMAP
06
1F
39
70
60
7C
7C
E0
60
7C
3E
ENDCHAR
STARTCHAR 0405
ENCODING 1029
SWIDTH 480 0
DWIDTH 8 0
BBX 8 11 1 0
BITMAP
0C
3F
70
60
70
3C
1E
06
06
FE
FC
ENDCHAR
STARTCHAR 0406
ENCODING 1030
SWIDTH 480 0
DWIDTH 8 0
BBX 8 10 1 0
BITMAP
3F
0C
0C
18
18
18
18
30
FC
FC
ENDCHAR
STARTCHAR 0407
ENCODING 1031
SWIDTH 480 0
DWIDTH 8 0
BBX 9 14 1 0
BITMAP
0900
1B80
1900
0000
3F00
0C00
0C00
1800
1800
1800
1800
3000
FC00
FC00
ENDCHAR
STARTCHAR 0408
ENCODING 1032
SWIDTH 480 0
DWIDTH 8 0
BBX 8 10 1 0
BITMAP
1F
03
03
06
06
06
06
0C
FC
F8
ENDCHAR
STARTCHAR 0409
ENCODING 1033
SWIDTH 480 0
DWIDTH 8 0
BBX 9 10 0 0
BITMAP
1E00
1600
1600
3700
3780
2D80
2D80
6900
CB00
9E00
ENDCHAR
STARTCHAR 040A
ENCODING 1034
SWIDTH 480 0
DWIDTH 8 0
BBX 9 10 0 0
BITMAP
1600
3600
3600
2600
3F00
6D80
6D80
4900
4B00
DE00
ENDCHAR
STARTCHAR 040B
ENCODING 1035
SWIDTH 480 0
DWIDTH 8 0
BBX 7 10 1 0
BITMAP
7E
30
30
30
3E
66
66
66
66
C6
ENDCHAR
STARTCHAR 040C
ENCODING 1036
SWIDTH 480 0
DWIDTH 8 0
BBX 9 14 1 0
BITMAP
0200
0600
0C00
0000
3380
3700
6E00
6C00
7800
7800
CC00
CC00
CE00
C600
ENDCHAR
STARTCHAR 040D
ENCODING 1037
SWIDTH 480 0
DWIDTH 8 0
BBX 9 14 1 0
BITMAP
0800
1C00
0600
0000
3380
6300
6700
6F00
7B00
5200
F600
E600
C600
C400
ENDCHAR
STARTCHAR 040E
ENCODING 1038
SWIDTH 480 0
DWIDTH 8 0
BBX 10 14 0 0
BITMAP
0400
0F80
0700
0000
38C0
1980
1980
1B00
1B00
0E00
0C00
0C00
7800
F000
ENDCHAR
STARTCHAR 040F
ENCODING 1039
SWIDTH 480 0
DWIDTH 8 0
BBX 9 13 1 -3
BITMAP
3380
3300
6300
6300
6300
6600
C600
C600
FE00
FC00
3000
2000
6000
ENDCHAR
STARTCHAR 0410
ENCODING 1040
SWIDTH 480 0
DWIDTH 8 0
BBX 8 10 0 0
BITMAP
06
0F
0B
1B
13
33
3F
7F
63
C3
ENDCHAR
STARTCHAR 0411
ENCODING 1041
SWIDTH 480 0
DWIDTH 8 0
BBX 8 10 1 0
BITMAP
3F
30
60
78
7E
66
C6
C6
FC
F8
ENDCHAR
STARTCHAR 0412
ENCODING 1042
SWIDTH 480 0
DWIDTH 8 0
BBX 8 10 1 0
BITMAP
3E
33
63
66
7C
6E
C6
C6
FE
FC
ENDCHAR
STARTCHAR 0413
ENCODING 1043
SWIDTH 480 0
DWIDTH 8 0
BBX 10 10 0 0
BITMAP
0FC0
0C00
0C00
1800
1800
1800
1800
3000
7C00
FC00
ENDCHAR
STARTCHAR 0414
ENCODING 1044
SWIDTH 480 0
DWIDTH 8 0
BBX 10 13 -1 -3
BITMAP
07C0
06C0
04C0
0D80
0D80
0980
1980
1180
7F80
7F80
6100
6300
C300
ENDCHAR
STARTCHAR 0415
ENCODING 1045
SWIDTH 480 0
DWIDTH 8 0
BBX 8 10 1 0
BITMAP
3F
30
30
60
7E
60
60
E0
FE
FC
ENDCHAR
STARTCHAR 0416
ENCODING 1046
SWIDTH 480 0
DWIDTH 8 0
BBX 10 10 0 0
BITMAP
36C0
1680
1580
1700
1E00
3E00
2F00
6B00
5B00
DB00
ENDCHAR
STARTCHAR 0417
ENCODING 1047
SWIDTH 480 0
DWIDTH 8 0
BBX 9 11 0 0
BITMAP
0400
1F00
1380
0180
0300
1E00
1F00
0300
0300
7F00
FE00
ENDCHAR
STARTCHAR 0418
ENCODING 1048
SWIDTH 480 0
DWIDTH 8 0
BBX 9 10 1 0
BITMAP
3380
6300
6700
6F00
7B00
5200
F600
E600
C600
C400
ENDCHAR
STARTCHAR 0419
ENCODING 1049
SWIDTH 480 0
DWIDTH 8 0
BBX 9 14 1 0
BITMAP
0900
0F00
0E00
0000
3380
6300
6700
6F00
7B00
5200
F600
E600
C600
C400
ENDCHAR
STARTCHAR 041A
ENCODING 1050
SWIDTH 480 0
DWIDTH 8 0
BBX 9 10 1 0
BITMAP
3380
3700
6E00
6C00
7800
7800
CC00
CC00
CE00
C600
ENDCHAR
STARTCHAR 041B
ENCODING 1051
SWIDTH 480 0
DWIDTH 8 0
BBX 10 10 0 0
BITMAP
0FC0
0D80
0D80
1980
1980
1B00
3300
3300
E300
C600
ENDCHAR
STARTCHAR 041C
ENCODING 1052
SWIDTH 480 0
DWIDTH 8 0
BBX 9 10 0 0
BITMAP
1980
3980
3B80
2B80
2F80
6D80
6100
6300
4300
C300
ENDCHAR
STARTCHAR 041D
ENCODING 1053
SWIDTH 480 0
DWIDTH 8 0
BBX 9 10 1 0
BITMAP
3180
7300
6300
6300
7F00
6600
C600
C600
C600
CC00
ENDCHAR
STARTCHAR 041E
ENCODING 1054
SWIDTH 480 0
DWIDTH 8 0
BBX 8 11 1 0
BITMAP
0C
3E
33
63
63
C3
C3
C6
C6
FC
78
ENDCHAR
STARTCHAR 041F
ENCODING 1055
SWIDTH 480 0
DWIDTH 8 0
BBX 9 10 1 0
BITMAP
3F80
3300
6300
6300
6300
6600
C600
C600
C600
CC00
ENDCHAR
STARTCHAR 0420
ENCODING 1056
SWIDTH 480 0
DWIDTH 8 0
BBX 8 10 1 0
BITMAP
3F
33
63
63
67
7E
E0
C0
C0
C0
ENDCHAR
STARTCHAR 0421
ENCODING 1057
SWIDTH 480 0
DWIDTH 8 0
BBX 8 11 1 0
BITMAP
06
1F
39
70
60
60
60
E0
60
7E
3E
ENDCHAR
STARTCHAR 0422
ENCODING 1058
SWIDTH 480 0
DWIDTH 8 0
BBX 8 10 2 0
BITMAP
FF
18
18
30
30
30
30
60
60
60
ENDCHAR
STARTCHAR 0423
ENCODING 1059
SWIDTH 480 0
DWIDTH 8 0
BBX 10 10 0 0
BITMAP
38C0
1980
1980
1B00
1B00
0E00
0C00
0C00
7800
F000
ENDCHAR
STARTCHAR 0424
ENCODING 1060
SWIDTH 480 0
DWIDTH 8 0
BBX 8 11 1 0
BITMAP
04
1E
3F
6B
4B
DB
DB
D6
7E
78
30
ENDCHAR
STARTCHAR 0425
ENCODING 1061
SWIDTH 480 0
DWIDTH 8 0
BBX 10 10 0 0
BITMAP
19C0
1980
0F00
0E00
0C00
1E00
1E00
3600
6300
E300
ENDCHAR
STARTCHAR 0426
ENCODING 1062
SWIDTH 480 0
DWIDTH 8 0
BBX 8 13 1 -3
BITMAP
33
33
63
66
66
66
C6
CC
FE
FE
04
0C
0C
ENDCHAR
STARTCHAR 0427
ENCODING 1063
SWIDTH 480 0
DWIDTH 8 0
BBX 7 10 2 0
BITMAP
66
C6
C6
C6
CC
FC
2C
0C
18
18
ENDCHAR
STARTCHAR 0428
ENCODING 1064
SWIDTH 480 0
DWIDTH 8 0
BBX 10 10 0 0
BITMAP
30C0
30C0
3080
2080
6D80
6D80
6900
4900
FF00
FF00
ENDCHAR
STARTCHAR 0429
ENCODING 1065
SWIDTH 480 0
DWIDTH 8 0
BBX 10 13 0 -3
BITMAP
10C0
3080
3180
2180
2D80
6D00
6900
6B00
7F00
FF00
0300
0300
0200
ENDCHAR
STARTCHAR 042A
ENCODING 1066
SWIDTH 480 0
DWIDTH 8 0
BBX 7 10 1 0
BITMAP
78
30
30
3C
3E
66
66
66
7E
F8
ENDCHAR
STARTCHAR 042B
ENCODING 1067
SWIDTH 480 0
DWIDTH 8 0
BBX 10 10 0 0
BITMAP
30C0
30C0
3080
3980
3D80
6D80
6D00
4D00
5B00
F300
ENDCHAR
STARTCHAR 042C
ENCODING 1068
SWIDTH 480 0
DWIDTH 8 0
BBX 7 10 1 0
BITMAP
30
30
60
7C
7E
66
C6
C6
FE
F8
ENDCHAR
STARTCHAR 042D
ENCODING 1069
SWIDTH 480 0
DWIDTH 8 0
BBX 8 11 1 0
BITMAP
08
3E
06
03
03
3F
3F
06
0E
FC
F8
ENDCHAR
STARTCHAR 042E
ENCODING 1070
SWIDTH 480 0
DWIDTH 8 0
BBX 9 11 0 0
BITMAP
0100
1380
3680
3480
2C80
3D80
6980
6980
4900
4B00
CE00
ENDCHAR
STARTCHAR 042F
ENCODING 1071
SWIDTH 480 0
DWIDTH 8 0
BBX 9 10 0 0
BITMAP
0F80
1980
3180
3180
3F00
1F00
3B00
3300
6600
C600
ENDCHAR
STARTCHAR 0430
ENCODING 1072
SWIDTH 480 0
DWIDTH 8 0
BBX 8 8 1 0
BITMAP
1F
7F
66
C6
C6
C6
FE
7E
ENDCHAR
STARTCHAR 0431
ENCODING 1073
SWIDTH 480 0
DWIDTH 8 0
BBX 8 11 1 1
BITMAP
0F
3C
30
6C
7E
E6
C6
C6
C6
FC
78
ENDCHAR
STARTCHAR 0432
ENCODING 1074
SWIDTH 480 0
DWIDTH 8 0
BBX 7 8 1 0
BITMAP
3E
7E
66
7E
7E
C6
CE
FC
ENDCHAR
STARTCHAR 0433
ENCODING 1075
SWIDTH 480 0
DWIDTH 8 0
BBX 7 8 1 0
BITMAP
3E
3E
06
1E
78
C0
EC
7C
ENDCHAR
STARTCHAR 0434
ENCODING 1076
SWIDTH 480 0
DWIDTH 8 0
BBX 8 12 1 0
BITMAP
10
3C
06
06
1F
7F
63
C6
C6
C6
FC
78
ENDCHAR
STARTCHAR 0435
ENCODING 1077
SWIDTH 480 0
DWIDTH 8 0
BBX 8 8 1 0
BITMAP
1E
3F
63
C6
FC
C0
74
7E
ENDCHAR
STARTCHAR 0436
ENCODING 1078
SWIDTH 480 0
DWIDTH 8 0
BBX 10 8 0 0
BITMAP
64C0
2580
3D00
3F00
3E00
2A00
6B00
DB00
ENDCHAR
STARTCHAR 0437
ENCODING 1079
SWIDTH 480 0
DWIDTH 8 0
BBX 7 8 1 0
BITMAP
3E
3E
06
3C
3C
06
DE
FC
ENDCHAR
STARTCHAR 0438
ENCODING 1080
SWIDTH 480 0
DWIDTH 8 0
BBX 8 8 1 0
BITMAP
63
66
66
66
C6
CE
FE
7E
ENDCHAR
STARTCHAR 0439
ENCODING 1081
SWIDTH 480 0
DWIDTH 8 0
BBX 8 11 1 0
BITMAP
1B
1E
00
63
66
66
66
C6
CE
FE
7E
ENDCHAR
STARTCHAR 043A
ENCODING 1082
SWIDTH 480 0
DWIDTH 8 0
BBX 8 8 1 0
BITMAP
33
76
6C
78
78
6C
CC
C6
ENDCHAR
STARTCHAR 043B
ENCODING 1083
SWIDTH 480 0
DWIDTH 8 0
BBX 9 8 0 0
BITMAP
0F80
1F80
1B00
1B00
3300
3300
E600
C600
ENDCHAR
STARTCHAR 043C
ENCODING 1084
SWIDTH 480 0
DWIDTH 8 0
BBX 9 8 0 0
BITMAP
3180
3380
3380
7F80
7D00
7B00
4300
C300
ENDCHAR
STARTCHAR 043D
ENCODING 1085
SWIDTH 480 0
DWIDTH 8 0
BBX 8 8 1 0
BITMAP
73
63
66
7E
7E
C6
CC
CC
ENDCHAR
STARTCHAR 043E
ENCODING 1086
SWIDTH 480 0
DWIDTH 8 0
BBX 7 8 1 0
BITMAP
1C
7E
66
C6
C6
C6
FC
78
ENDCHAR
STARTCHAR 043F
ENCODING 1087
SWIDTH 480 0
DWIDTH 8 0
BBX 7 8 1 0
BITMAP
3E
7E
66
66
66
C6
CC
CC
ENDCHAR
STARTCHAR 0440
ENCODING 1088
SWIDTH 480 0
DWIDTH 8 0
BBX 8 11 0 -3
BITMAP
1E
3F
33
33
73
63
7E
7C
60
C0
C0
ENDCHAR
STARTCHAR 0441
ENCODING 1089
SWIDTH 480 0
DWIDTH 8 0
BBX 8 8 1 0
BITMAP
1F
3E
60
E0
C0
C0
7C
7E
ENDCHAR
STARTCHAR 0442
ENCODING 1090
SWIDTH 480 0
DWIDTH 8 0
BBX 9 8 0 0
BITMAP
3F00
3F80
2D80
6D80
6D00
6300
4300
C300
ENDCHAR
STARTCHAR 0443
ENCODING 1091
SWIDTH 480 0
DWIDTH 8 0
BBX 10 11 -1 -3
BITMAP
18C0
18C0
1980
1980
1B00
0F00
0E00
0C00
1C00
7800
E000
ENDCHAR
STARTCHAR 0444
ENCODING 1092
SWIDTH 480 0
DWIDTH 8 0
BBX 8 14 1 -2
BITMAP
04
0C
0C
3C
7E
DB
DB
DB
D6
FE
7C
30
20
60
ENDCHAR
STARTCHAR 0445
ENCODING 1093
SWIDTH 480 0
DWIDTH 8 0
BBX 8 8 1 0
BITMAP
63
76
3C
3C
38
7C
6C
C6
ENDCHAR
STARTCHAR 0446
ENCODING 1094
SWIDTH 480 0
DWIDTH 8 0
BBX 7 10 1 -2
BITMAP
66
66
66
66
CC
CC
FE
76
06
06
ENDCHAR
STARTCHAR 0447
ENCODING 1095
SWIDTH 480 0
DWIDTH 8 0
BBX 8 8 1 0
BITMAP
63
66
66
E6
7E
3C
0C
0C
ENDCHAR
STARTCHAR 0448
ENCODING 1096
SWIDTH 480 0
DWIDTH 8 0
BBX 8 8 1 0
BITMAP
63
43
DB
DA
D2
96
B6
FE
ENDCHAR
STARTCHAR 0449
ENCODING 1097
SWIDTH 480 0
DWIDTH 8 0
BBX 8 10 1 -2
BITMAP
43
43
DA
D2
D6
B6
B6
FE
06
06
ENDCHAR
STARTCHAR 044A
ENCODING 1098
SWIDTH 480 0
DWIDTH 8 0
BBX 7 8 1 0
BITMAP
70
70
30
7E
66
66
6E
FC
ENDCHAR
STARTCHAR 044B
ENCODING 1099
SWIDTH 480 0
DWIDTH 8 0
BBX 9 8 0 0
BITMAP
3080
2180
2180
7900
6D00
4F00
5B00
FB00
ENDCHAR
STARTCHAR 044C
ENCODING 1100
SWIDTH 480 0
DWIDTH 8 0
BBX 7 8 1 0
BITMAP
70
60
60
7C
6E
C6
CE
FC
ENDCHAR
STARTCHAR 044D
ENCODING 1101
SWIDTH 480 0
DWIDTH 8 0
BBX 7 8 1 0
BITMAP
7C
7E
06
3E
3E
06
FC
F8
ENDCHAR
STARTCHAR 044E
ENCODING 1102
SWIDTH 480 0
DWIDTH 8 0
BBX 9 8 0 0
BITMAP
3700
2780
2D80
7980
7980
5900
4B00
CE00
ENDCHAR
STARTCHAR 044F
ENCODING 1103
SWIDTH 480 0
DWIDTH 8 0
BBX 9 8 0 0
BITMAP
1F80
3F80
3300
3300
3F00
3300
6700
E600
ENDCHAR
STARTCHAR 0450
ENCODING 1104
SWIDTH 480 0
DWIDTH 8 0
BBX 8 11 1 1
BITMAP
0C
0E
00
1E
3F
63
C6
FC
C0
74
7E
ENDCHAR
STARTCHAR 0451
ENCODING 1105
SWIDTH 480 0
DWIDTH 8 0
BBX 8 11 1 0
BITMAP
1B
13
00
1E
3F
63
C6
FC
C0
74
7E
ENDCHAR
STARTCHAR 0452
ENCODING 1106
SWIDTH 480 0
DWIDTH 8 0
BBX 7 15 1 -3
BITMAP
08
38
7C
30
3E
3E
66
66
66
66
CC
CC
0C
3C
38
ENDCHAR
STARTCHAR 0453
ENCODING 1107
SWIDTH 480 0
DWIDTH 8 0
BBX 7 11 1 1
BITMAP
06
1C
00
3E
3E
06
1E
78
C0
EC
7C
ENDCHAR
STARTCHAR 0454
ENCODING 1108
SWIDTH 480 0
DWIDTH 8 0
BBX 8 8 1 0
BITMAP
1F
3E
60
7C
FC
E0
7C
3E
ENDCHAR
STARTCHAR 0455
ENCODING 1109
SWIDTH 480 0
DWIDTH 8 0
BBX 7 8 1 0
BITMAP
3E
3E
60
78
1C
0E
FC
FC
ENDCHAR
STARTCHAR 0456
ENCODING 1110
SWIDTH 480 0
DWIDTH 8 0
BBX 6 11 2 0
BITMAP
38
38
00
F0
F0
30
30
60
60
7C
3C
ENDCHAR
STARTCHAR 0457
ENCODING 1111
SWIDTH 480 0
DWIDTH 8 0
BBX 6 11 2 0
BITMAP
6C
6C
00
F0
F0
30
30
60
60
7C
3C
ENDCHAR
STARTCHAR 0458
ENCODING 1112
SWIDTH 480 0
DWIDTH 8 0
BBX 8 14 0 -3
BITMAP
03
07
00
1F
3F
06
06
06
06
0C
0C
0C
F8
70
ENDCHAR
STARTCHAR 0459
ENCODING 1113
SWIDTH 480 0
DWIDTH 8 0
BBX 8 8 0 0
BITMAP
1E
3C
34
2F
2D
69
CB
DE
ENDCHAR
STARTCHAR 045A
ENCODING 1114
SWIDTH 480 0
DWIDTH 8 0
BBX 8 8 0 0
BITMAP
34
24
2C
7F
7B
49
5B
DE
ENDCHAR
STARTCHAR 045B
ENCODING 1115
SWIDTH 480 0
DWIDTH 8 0
BBX 7 12 1 0
BITMAP
08
38
7C
30
3E
3E
66
66
66
66
CC
CC
ENDCHAR
STARTCHAR 045C
ENCODING 1116
SWIDTH 480 0
DWIDTH 8 0
BBX 8 11 1 1
BITMAP
06
0C
00
33
76
6C
78
78
6C
CC
C6
ENDCHAR
STARTCHAR 045D
ENCODING 1117
SWIDTH 480 0
DWIDTH 8 0
BBX 8 11 1 1
BITMAP
18
0C
04
63
66
66
66
C6
CE
FE
7E
ENDCHAR
STARTCHAR 045E
ENCODING 1118
SWIDTH 480 0
DWIDTH 8 0
BBX 10 14 -1 -3
BITMAP
0D80
0700
0000
18C0
18C0
1980
1980
1B00
0F00
0E00
0C00
1C00
7800
E000
ENDCHAR
STARTCHAR 045F
ENCODING 1119
SWIDTH 480 0
DWIDTH 8 0
BBX 8 11 1 -3
BITMAP
63
66
66
66
C6
CE
FE
7E
00
30
20
ENDCHAR
STARTCHAR 0462
ENCODING 1122
SWIDTH 480 0
DWIDTH 8 0
BBX 7 11 1 0
BITMAP
18
7E
7E
30
38
3E
66
66
66
7E
F8
ENDCHAR
STARTCHAR 0463
ENCODING 1123
SWIDTH 480 0
DWIDTH 8 0
BBX 8 8 0 0
BITMAP
38
3C
6C
6F
4B
49
DB
DE
ENDCHAR
STARTCHAR 0472
ENCODING 1138
SWIDTH 480 0
DWIDTH 8 0
BBX 8 11 1 0
BITMAP
0C
3E
33
63
63
FB
CF
C6
C6
FC
78
ENDCHAR
STARTCHAR 0473
ENCODING 1139
SWIDTH 480 0
DWIDTH 8 0
BBX 7 8 1 0
BITMAP
1C
7E
66
F6
DE
C6
FC
78
ENDCHAR
STARTCHAR 0474
ENCODING 1140
SWIDTH 480 0
DWIDTH 8 0
BBX 8 10 2 0
BITMAP
C7
C6
CC
CC
D8
D8
F0
F0
E0
E0
ENDCHAR
STARTCHAR 0475
ENCODING 1141
SWIDTH 480 0
DWIDTH 8 0
BBX 8 8 2 0
BITMAP
C7
CE
D8
D8
F0
F0
E0
C0
ENDCHAR
STARTCHAR 048A
ENCODING 1162
SWIDTH 480 0
DWIDTH 8 0
BBX 8 17 1 -3
BITMAP
09
1F
0E
00
33
67
67
6B
7E
56
E6
E6
C6
CE
04
0C
08
ENDCHAR
STARTCHAR 048B
ENCODING 1163
SWIDTH 480 0
DWIDTH 8 0
BBX 8 13 1 -2
BITMAP
1E
1E
00
63
66
66
66
C6
CE
FE
7E
06
0C
ENDCHAR
STARTCHAR 048C
ENCODING 1164
SWIDTH 480 0
DWIDTH 8 0
BBX 7 10 1 0
BITMAP
30
7C
30
78
7E
66
66
66
FC
F8
ENDCHAR
STARTCHAR 048D
ENCODING 1165
SWIDTH 480 0
DWIDTH 8 0
BBX 7 8 1 0
BITMAP
30
7C
70
7C
7E
66
6E
FC
ENDCHAR
STARTCHAR 048E
ENCODING 1166
SWIDTH 480 0
DWIDTH 8 0
BBX 8 10 1 0
BITMAP
3F
33
63
6B
6F
7E
E4
C6
C0
C0
ENDCHAR
STARTCHAR 048F
ENCODING 1167
SWIDTH 480 0
DWIDTH 8 0
BBX 8 11 0 -3
BITMAP
1E
3F
33
33
77
6F
7E
7E
66
C0
C0
ENDCHAR
STARTCHAR 0490
ENCODING 1168
SWIDTH 480 0
DWIDTH 8 0
BBX 10 12 0 0
BITMAP
00C0
00C0
0FC0
0C00
0C00
1800
1800
1800
1800
3000
7C00
FC00
ENDCHAR
STARTCHAR 0491
ENCODING 1169
SWIDTH 480 0
DWIDTH 8 0
BBX 8 10 1 0
BITMAP
03
03
3F
3F
70
60
60
60
60
C0
ENDCHAR
STARTCHAR 0492
ENCODING 1170
SWIDTH 480 0
DWIDTH 8 0
BBX 10 10 0 0
BITMAP
0FC0
0C00
0C00
1800
3E00
7E00
1800
3000
7C00
FC00
ENDCHAR
STARTCHAR 0493
ENCODING 1171
SWIDTH 480 0
DWIDTH 8 0
BBX 7 8 1 0
BITMAP
3E
3E
46
7E
7E
C0
E4
7C
ENDCHAR
STARTCHAR 0494
ENCODING 1172
SWIDTH 480 0
DWIDTH 8 0
BBX 8 13 1 -3
BITMAP
3F
30
60
78
7E
66
C6
C6
C6
C6
0C
78
70
ENDCHAR
STARTCHAR 0495
ENCODING 1173
SWIDTH 480 0
DWIDTH 8 0
BBX 7 11 1 -3
BITMAP
3E
7E
60
7C
7E
66
C6
C6
0E
3C
38
ENDCHAR
STARTCHAR 0496
ENCODING 1174
SWIDTH 480 0
DWIDTH 8 0
BBX 10 13 0 -3
BITMAP
36C0
1680
1580
1700
1E00
3E00
2F00
6B00
5B00
DB00
0300
0300
0200
ENDCHAR
STARTCHAR 0497
ENCODING 1175
SWIDTH 480 0
DWIDTH 8 0
BBX 10 10 0 -2
BITMAP
64C0
2580
3D00
3F00
3E00
2A00
6B00
DB00
0300
0300
ENDCHAR
STARTCHAR 0498
ENCODING 1176
SWIDTH 480 0
DWIDTH 8 0
BBX 9 14 0 -3
BITMAP
0400
1F00
1380
0180
0300
1E00
1F00
0300
0300
7F00
FC00
1000
1800
7000
ENDCHAR
STARTCHAR 0499
ENCODING 1177
SWIDTH 480 0
DWIDTH 8 0
BBX 7 11 1 -3
BITMAP
3E
3E
06
3C
3C
06
DE
FC
20
30
E0
ENDCHAR
STARTCHAR 049A
ENCODING 1178
SWIDTH 480 0
DWIDTH 8 0
BBX 8 13 1 -3
BITMAP
33
37
6E
6C
78
78
CC
CC
CE
C6
06
04
0C
ENDCHAR
STARTCHAR 049B
ENCODING 1179
SWIDTH 480 0
DWIDTH 8 0
BBX 8 10 1 -2
BITMAP
33
66
6C
78
78
6C
CE
CE
06
04
ENDCHAR
STARTCHAR 049C
ENCODING 1180
SWIDTH 480 0
DWIDTH 8 0
BBX 10 10 0 0
BITMAP
10C0
3180
3700
3B00
3E00
6E00
6E00
7B00
4300
C300
ENDCHAR
STARTCHAR 049D
ENCODING 1181
SWIDTH 480 0
DWIDTH 8 0
BBX 10 8 0 0
BITMAP
30C0
3D80
3B00
7E00
6E00
7E00
6300
C300
ENDCHAR
STARTCHAR 049E
ENCODING 1182
SWIDTH 480 0
DWIDTH 8 0
BBX 9 11 1 0
BITMAP
3000
7B80
7B00
3600
6C00
7800
7800
6C00
4C00
C600
C600
ENDCHAR
STARTCHAR 049F
ENCODING 1183
SWIDTH 480 0
DWIDTH 8 0
BBX 8 9 1 0
BITMAP
30
7B
66
6C
78
78
6C
CC
C6
ENDCHAR
STARTCHAR 04A0
ENCODING 1184
SWIDTH 480 0
DWIDTH 8 0
BBX 9 10 1 0
BITMAP
7B80
3300
3600
3C00
3800
6C00
6C00
6C00
6600
C600
ENDCHAR
STARTCHAR 04A1
ENCODING 1185
SWIDTH 480 0
DWIDTH 8 0
BBX 8 8 1 0
BITMAP
73
76
3C
78
7C
6C
6C
C6
ENDCHAR
STARTCHAR 04A2
ENCODING 1186
SWIDTH 480 0
DWIDTH 8 0
BBX 8 13 1 -3
BITMAP
33
33
63
66
7E
66
C6
CC
CE
CE
04
0C
0C
ENDCHAR
STARTCHAR 04A3
ENCODING 1187
SWIDTH 480 0
DWIDTH 8 0
BBX 8 10 1 -2
BITMAP
63
66
66
7E
7E
CC
CE
CE
04
0C
ENDCHAR
STARTCHAR 04A4
ENCODING 1188
SWIDTH 480 0
DWIDTH 8 0
BBX 9 10 1 0
BITMAP
3380
7300
6600
6600
7E00
6600
CE00
CC00
CC00
CC00
ENDCHAR
STARTCHAR 04A5
ENCODING 1189
SWIDTH 480 0
DWIDTH 8 0
BBX 8 8 1 0
BITMAP
77
67
66
7C
7C
CC
CC
D8
ENDCHAR
STARTCHAR 04A6
ENCODING 1190
SWIDTH 480 0
DWIDTH 8 0
BBX 8 13 0 -3
BITMAP
1E
36
34
26
2F
6D
69
49
5B
DB
02
0E
08
ENDCHAR
STARTCHAR 04A7
ENCODING 1191
SWIDTH 480 0
DWIDTH 8 0
BBX 8 11 0 -3
BITMAP
38
7C
6C
6F
4F
C9
D9
DB
03
0E
0C
ENDCHAR
STARTCHAR 04A8
ENCODING 1192
SWIDTH 480 0
DWIDTH 8 0
BBX 8 14 1 -3
BITMAP
06
1F
30
60
CF
DB
DB
D3
F6
FE
78
18
1C
04
ENDCHAR
STARTCHAR 04A9
ENCODING 1193
SWIDTH 480 0
DWIDTH 8 0
BBX 7 10 1 -2
BITMAP
1E
7C
60
CE
DA
D2
D6
7C
18
0C
ENDCHAR
STARTCHAR 04AA
ENCODING 1194
SWIDTH 480 0
DWIDTH 8 0
BBX 8 14 1 -3
BITMAP
06
1F
39
70
60
60
60
E0
60
7E
3E
10
18
70
ENDCHAR
STARTCHAR 04AB
ENCODING 1195
SWIDTH 480 0
DWIDTH 8 0
BBX 8 11 1 -3
BITMAP
1F
3E
60
E0
C0
C0
7C
7E
10
18
70
ENDCHAR
STARTCHAR 04AC
ENCODING 1196
SWIDTH 480 0
DWIDTH 8 0
BBX 8 13 2 -3
BITMAP
FF
18
18
30
30
30
30
60
70
70
30
20
60
ENDCHAR
STARTCHAR 04AD
ENCODING 1197
SWIDTH 480 0
DWIDTH 8 0
BBX 9 10 0 -2
BITMAP
3B00
3F80
2D80
6D00
6B00
6300
4300
C300
0300
0300
ENDCHAR
STARTCHAR 04AE
ENCODING 1198
SWIDTH 480 0
DWIDTH 8 0
BBX 8 10 2 0
BITMAP
C3
66
6E
6C
78
30
30
70
60
60
ENDCHAR
STARTCHAR 04AF
ENCODING 1199
SWIDTH 480 0
DWIDTH 8 0
BBX 7 11 2 -3
BITMAP
C6
C6
CC
CC
D8
F0
70
60
60
C0
C0
ENDCHAR
STARTCHAR 04B0
ENCODING 1200
SWIDTH 480 0
DWIDTH 8 0
BBX 8 10 2 0
BITMAP
C3
66
6C
6C
78
30
FC
60
60
60
ENDCHAR
STARTCHAR 04B1
ENCODING 1201
SWIDTH 480 0
DWIDTH 8 0
BBX 8 11 1 -3
BITMAP
63
63
66
66
6C
78
38
FC
30
60
60
ENDCHAR
STARTCHAR 04B2
ENCODING 1202
SWIDTH 480 0
DWIDTH 8 0
BBX 8 11 1 -2
BITMAP
33
36
1C
18
18
38
6C
4E
CE
04
0C
ENDCHAR
STARTCHAR 04B3
ENCODING 1203
SWIDTH 480 0
DWIDTH 8 0
BBX 8 10 1 -2
BITMAP
67
66
3C
38
38
7C
EE
CE
04
0C
ENDCHAR
STARTCHAR 04B4
ENCODING 1204
SWIDTH 480 0
DWIDTH 8 0
BBX 8 13 1 -3
BITMAP
7D
33
33
33
23
66
66
66
7E
FE
06
06
04
ENDCHAR
STARTCHAR 04B5
ENCODING 1205
SWIDTH 480 0
DWIDTH 8 0
BBX 8 10 1 -2
BITMAP
7B
FA
66
66
66
64
6E
7E
06
04
ENDCHAR
STARTCHAR 04B6
ENCODING 1206
SWIDTH 480 0
DWIDTH 8 0
BBX 7 13 2 -3
BITMAP
66
C6
C6
CC
CC
FC
2C
18
1C
1C
08
18
18
ENDCHAR
STARTCHAR 04B7
ENCODING 1207
SWIDTH 480 0
DWIDTH 8 0
BBX 7 10 2 -2
BITMAP
C6
CC
CC
CC
FC
78
1C
1C
08
18
ENDCHAR
STARTCHAR 04B8
ENCODING 1208
SWIDTH 480 0
DWIDTH 8 0
BBX 8 10 2 0
BITMAP
63
C6
C6
D6
D6
FC
3C
2C
0C
18
ENDCHAR
STARTCHAR 04B9
ENCODING 1209
SWIDTH 480 0
DWIDTH 8 0
BBX 7 8 2 0
BITMAP
C6
C6
D6
EC
FC
2C
2C
18
ENDCHAR
STARTCHAR 04BA
ENCODING 1210
SWIDTH 480 0
DWIDTH 8 0
BBX 7 10 1 0
BITMAP
30
30
60
7C
7E
66
C6
C6
C6
CC
ENDCHAR
STARTCHAR 04BB
ENCODING 1211
SWIDTH 480 0
DWIDTH 8 0
BBX 7 12 1 0
BITMAP
08
30
30
30
3E
7E
66
66
66
C6
CC
CC
ENDCHAR
STARTCHAR 04BC
ENCODING 1212
SWIDTH 480 0
DWIDTH 8 0
BBX 8 11 1 0
BITMAP
02
0F
1B
59
D3
7F
30
30
30
32
1E
ENDCHAR
STARTCHAR 04BD
ENCODING 1213
SWIDTH 480 0
DWIDTH 8 0
BBX 8 8 1 0
BITMAP
0E
1F
B3
F7
FE
30
32
3E
ENDCHAR
STARTCHAR 04BE
ENCODING 1214
SWIDTH 480 0
DWIDTH 8 0
BBX 8 13 1 -2
BITMAP
02
0F
1B
59
D3
7F
30
30
30
32
1E
18
18
ENDCHAR
STARTCHAR 04BF
ENCODING 1215
SWIDTH 480 0
DWIDTH 8 0
BBX 8 10 1 -2
BITMAP
0E
1F
B3
F7
FE
30
32
3E
18
18
ENDCHAR
STARTCHAR 04C0
ENCODING 1216
SWIDTH 480 0
DWIDTH 8 0
BBX 8 10 1 0
BITMAP
3F
0C
0C
18
18
18
18
30
FC
FC
ENDCHAR
STARTCHAR 04C1
ENCODING 1217
SWIDTH 480 0
DWIDTH 8 0
BBX 10 14 0 0
BITMAP
0480
0780
0700
0000
36C0
1680
1580
1700
1E00
3E00
2F00
6B00
5B00
DB00
ENDCHAR
STARTCHAR 04C2
ENCODING 1218
SWIDTH 480 0
DWIDTH 8 0
BBX 10 11 0 0
BITMAP
0D80
0F00
0000
64C0
2580
3D00
3F00
3E00
2A00
6B00
DB00
ENDCHAR
STARTCHAR 04C3
ENCODING 1219
SWIDTH 480 0
DWIDTH 8 0
BBX 9 13 1 -3
BITMAP
3380
3700
6E00
7C00
7C00
7E00
C600
C600
C600
C600
0C00
3C00
7000
ENDCHAR
STARTCHAR 04C4
ENCODING 1220
SWIDTH 480 0
DWIDTH 8 0
BBX 8 11 1 -3
BITMAP
33
66
6C
78
7E
C6
C6
C6
0C
3C
70
ENDCHAR
STARTCHAR 04C5
ENCODING 1221
SWIDTH 480 0
DWIDTH 8 0
BBX 9 13 0 -3
BITMAP
0F80
0D80
0D80
1B00
1B00
1B00
3300
3700
E700
C700
0200
0600
0400
ENDCHAR
STARTCHAR 04C6
ENCODING 1222
SWIDTH 480 0
DWIDTH 8 0
BBX 9 10 0 -2
BITMAP
0F80
1F80
1B00
1B00
3300
3300
E700
C700
0200
0600
ENDCHAR
STARTCHAR 04C7
ENCODING 1223
SWIDTH 480 0
DWIDTH 8 0
BBX 9 13 1 -3
BITMAP
3180
7300
6300
6300
7F00
6600
C600
C600
C600
CC00
0C00
3C00
3800
ENDCHAR
STARTCHAR 04C8
ENCODING 1224
SWIDTH 480 0
DWIDTH 8 0
BBX 8 11 1 -3
BITMAP
73
63
66
7E
7E
C6
CC
CC
0C
3C
38
ENDCHAR
STARTCHAR 04C9
ENCODING 1225
SWIDTH 480 0
DWIDTH 8 0
BBX 8 13 1 -3
BITMAP
33
73
63
66
7E
66
C6
CC
CE
CE
04
0C
08
ENDCHAR
STARTCHAR 04CA
ENCODING 1226
SWIDTH 480 0
DWIDTH 8 0
BBX 8 10 1 -2
BITMAP
73
63
66
7E
7E
C6
CE
CE
04
0C
ENDCHAR
STARTCHAR 04CB
ENCODING 1227
SWIDTH 480 0
DWIDTH 8 0
BBX 7 13 2 -3
BITMAP
66
C6
C6
C6
CC
FC
2C
0C
18
38
30
30
30
ENDCHAR
STARTCHAR 04CC
ENCODING 1228
SWIDTH 480 0
DWIDTH 8 0
BBX 8 10 1 -2
BITMAP
63
66
66
E6
7E
3C
1C
1C
18
10
ENDCHAR
STARTCHAR 04CD
ENCODING 1229
SWIDTH 480 0
DWIDTH 8 0
BBX 9 13 0 -3
BITMAP
1980
3B80
3B80
2F80
2D80
6D00
6300
6300
4300
C300
0200
0600
0400
ENDCHAR
STARTCHAR 04CE
ENCODING 1230
SWIDTH 480 0
DWIDTH 8 0
BBX 8 10 0 -2
BITMAP
31
33
37
77
7F
5B
43
C3
03
06
ENDCHAR
STARTCHAR 04CF
ENCODING 1231
SWIDTH 480 0
DWIDTH 8 0
BBX 8 10 1 0
BITMAP
3F
0C
0C
18
18
18
18
30
FC
FC
ENDCHAR
STARTCHAR 04D0
ENCODING 1232
SWIDTH 480 0
DWIDTH 8 0
BBX 9 14 0 0
BITMAP
0480
0F80
0700
0000
0600
0F00
0B00
1B00
1300
3300
3F00
7F00
6300
C300
ENDCHAR
STARTCHAR 04D1
ENCODING 1233
SWIDTH 480 0
DWIDTH 8 0
BBX 8 11 1 0
BITMAP
1B
0E
00
1F
7F
66
C6
C6
C6
FE
7E
ENDCHAR
STARTCHAR 04D2
ENCODING 1234
SWIDTH 480 0
DWIDTH 8 0
BBX 9 14 0 0
BITMAP
0080
0D80
0980
0000
0600
0F00
0B00
1B00
1300
3300
3F00
7F00
6300
C300
ENDCHAR
STARTCHAR 04D3
ENCODING 1235
SWIDTH 480 0
DWIDTH 8 0
BBX 8 11 1 0
BITMAP
1B
1B
00
1F
7F
66
C6
C6
C6
FE
7E
ENDCHAR
STARTCHAR 04D4
ENCODING 1236
SWIDTH 480 0
DWIDTH 8 0
BBX 10 10 0 0
BITMAP
07C0
0F00
0B00
1A00
1780
3600
7E00
7C00
4F00
CF00
ENDCHAR
STARTCHAR 04D5
ENCODING 1237
SWIDTH 480 0
DWIDTH 8 0
BBX 8 8 1 0
BITMAP
77
7F
19
7B
DE
90
BA
EE
ENDCHAR
STARTCHAR 04D6
ENCODING 1238
SWIDTH 480 0
DWIDTH 8 0
BBX 8 14 1 0
BITMAP
09
0F
06
00
3F
30
30
60
7E
60
60
E0
FE
FC
ENDCHAR
STARTCHAR 04D7
ENCODING 1239
SWIDTH 480 0
DWIDTH 8 0
BBX 8 11 1 0
BITMAP
1B
0E
00
1E
3F
63
C6
FC
C0
74
7E
ENDCHAR
STARTCHAR 04D8
ENCODING 1240
SWIDTH 480 0
DWIDTH 8 0
BBX 8 11 1 0
BITMAP
08
3E
07
03
03
FF
FF
C6
C6
EC
78
ENDCHAR
STARTCHAR 04D9
ENCODING 1241
SWIDTH 480 0
DWIDTH 8 0
BBX 7 8 1 0
BITMAP
7C
7E
06
3E
F6
C6
FC
F8
ENDCHAR
STARTCHAR 04DA
ENCODING 1242
SWIDTH 480 0
DWIDTH 8 0
BBX 8 14 1 0
BITMAP
10
3B
12
08
3E
07
03
03
FF
FF
C6
C6
EC
78
ENDCHAR
STARTCHAR 04DB
ENCODING 1243
SWIDTH 480 0
DWIDTH 8 0
BBX 8 11 1 0
BITMAP
33
36
00
7C
7E
06
3E
F6
C6
FC
F8
ENDCHAR
STARTCHAR 04DC
ENCODING 1244
SWIDTH 480 0
DWIDTH 8 0
BBX 10 14 0 0
BITMAP
0480
0DC0
0C80
0000
36C0
1680
1580
1700
1E00
3E00
2F00
6B00
5B00
DB00
ENDCHAR
STARTCHAR 04DD
ENCODING 1245
SWIDTH 480 0
DWIDTH 8 0
BBX 10 11 0 0
BITMAP
0D80
1980
0000
64C0
2580
3D00
3F00
3E00
2A00
6B00
DB00
ENDCHAR
STARTCHAR 04DE
ENCODING 1246
SWIDTH 480 0
DWIDTH 8 0
BBX 9 13 0 1
BITMAP
0D80
0980
0400
1F00
1380
0180
0300
1E00
1F00
0300
0300
7F00
FE00
ENDCHAR
STARTCHAR 04DF
ENCODING 1247
SWIDTH 480 0
DWIDTH 8 0
BBX 8 11 1 0
BITMAP
1B
13
00
3E
3E
06
3C
3C
06
DE
FC
ENDCHAR
STARTCHAR 04E0
ENCODING 1248
SWIDTH 480 0
DWIDTH 8 0
BBX 8 10 1 0
BITMAP
3F
03
06
0C
1C
0E
06
06
FE
FC
ENDCHAR
STARTCHAR 04E1
ENCODING 1249
SWIDTH 480 0
DWIDTH 8 0
BBX 9 11 0 -3
BITMAP
3F80
3F00
0600
0C00
1800
1E00
0600
0600
0600
FC00
7800
ENDCHAR
STARTCHAR 04E2
ENCODING 1250
SWIDTH 480 0
DWIDTH 8 0
BBX 9 13 1 0
BITMAP
0F00
0000
0000
3380
6300
6700
6F00
7B00
5200
F600
E600
C600
C400
ENDCHAR
STARTCHAR 04E3
ENCODING 1251
SWIDTH 480 0
DWIDTH 8 0
BBX 8 11 1 0
BITMAP
1F
3E
00
63
66
66
66
C6
CE
FE
7E
ENDCHAR
STARTCHAR 04E4
ENCODING 1252
SWIDTH 480 0
DWIDTH 8 0
BBX 9 14 1 0
BITMAP
0100
1B00
1900
0000
3380
6300
6700
6F00
7B00
5200
F600
E600
C600
C400
ENDCHAR
STARTCHAR 04E5
ENCODING 1253
SWIDTH 480 0
DWIDTH 8 0
BBX 8 11 1 0
BITMAP
33
32
00
63
66
66
66
C6
CE
FE
7E
ENDCHAR
STARTCHAR 04E6
ENCODING 1254
SWIDTH 480 0
DWIDTH 8 0
BBX 8 14 1 0
BITMAP
01
1B
13
0C
3E
33
63
63
C3
C3
C6
C6
FC
78
ENDCHAR
STARTCHAR 04E7
ENCODING 1255
SWIDTH 480 0
DWIDTH 8 0
BBX 8 11 1 0
BITMAP
33
32
00
1C
7E
66
C6
C6
C6
FC
78
ENDCHAR
STARTCHAR 04E8
ENCODING 1256
SWIDTH 480 0
DWIDTH 8 0
BBX 8 11 1 0
BITMAP
0C
3E
33
63
63
FF
FF
C6
C6
FC
78
ENDCHAR
STARTCHAR 04E9
ENCODING 1257
SWIDTH 480 0
DWIDTH 8 0
BBX 7 8 1 0
BITMAP
3C
7E
66
FE
FE
C6
FC
78
ENDCHAR
STARTCHAR 04EA
ENCODING 1258
SWIDTH 480 0
DWIDTH 8 0
BBX 8 14 1 0
BITMAP
01
1B
13
0C
3E
33
63
63
FF
FF
C6
C6
FC
78
ENDCHAR
STARTCHAR 04EB
ENCODING 1259
SWIDTH 480 0
DWIDTH 8 0
BBX 8 11 1 0
BITMAP
33
32
00
3C
7E
66
FE
FE
C6
FC
78
ENDCHAR
STARTCHAR 04EC
ENCODING 1260
SWIDTH 480 0
DWIDTH 8 0
BBX 8 14 1 0
BITMAP
01
1B
13
08
3E
06
03
03
3F
3F
06
0E
FC
F8
ENDCHAR
STARTCHAR 04ED
ENCODING 1261
SWIDTH 480 0
DWIDTH 8 0
BBX 8 11 1 0
BITMAP
3B
33
00
7C
7E
06
3E
3E
06
FC
F8
ENDCHAR
STARTCHAR 04EE
ENCODING 1262
SWIDTH 480 0
DWIDTH 8 0
BBX 10 13 0 0
BITMAP
0F80
0000
0000
38C0
1980
1980
1B00
1B00
0E00
0C00
0C00
7800
F000
ENDCHAR
STARTCHAR 04EF
ENCODING 1263
SWIDTH 480 0
DWIDTH 8 0
BBX 10 14 -1 -3
BITMAP
07C0
0F80
0000
18C0
18C0
1980
1980
1B00
0F00
0E00
0C00
1C00
7800
E000
ENDCHAR
STARTCHAR 04F0
ENCODING 1264
SWIDTH 480 0
DWIDTH 8 0
BBX 10 14 0 0
BITMAP
0480
0DC0
0C80
0000
38C0
1980
1980
1B00
1B00
0E00
0C00
0C00
7800
F000
ENDCHAR
STARTCHAR 04F1
ENCODING 1265
SWIDTH 480 0
DWIDTH 8 0
BBX 10 14 -1 -3
BITMAP
0DC0
0D80
0000
18C0
18C0
1980
1980
1B00
0F00
0E00
0C00
1C00
7800
E000
ENDCHAR
STARTCHAR 04F2
ENCODING 1266
SWIDTH 480 0
DWIDTH 8 0
BBX 11 14 0 0
BITMAP
0200
07E0
0C80
0000
38C0
1980
1980
1B00
1B00
0E00
0C00
0C00
7800
F000
ENDCHAR
STARTCHAR 04F3
ENCODING 1267
SWIDTH 480 0
DWIDTH 8 0
BBX 11 14 -1 -2
BITMAP
0360
0EC0
0000
18C0
18C0
1980
1980
1B00
0F00
0E00
0C00
1C00
7800
E000
ENDCHAR
STARTCHAR 04F4
ENCODING 1268
SWIDTH 480 0
DWIDTH 8 0
BBX 7 13 2 1
BITMAP
36
26
00
66
C6
C6
C6
CC
FC
2C
0C
18
18
ENDCHAR
STARTCHAR 04F5
ENCODING 1269
SWIDTH 480 0
DWIDTH 8 0
BBX 8 11 1 0
BITMAP
33
33
00
63
66
66
E6
7E
3C
0C
0C
ENDCHAR
STARTCHAR 04F6
ENCODING 1270
SWIDTH 480 0
DWIDTH 8 0
BBX 10 13 0 -3
BITMAP
0FC0
0C00
0C00
1800
1800
1800
1800
3000
7C00
FC00
0C00
0C00
1800
ENDCHAR
STARTCHAR 04F7
ENCODING 1271
SWIDTH 480 0
DWIDTH 8 0
BBX 7 10 1 -2
BITMAP
3E
3E
06
1E
78
C0
EC
7C
0C
0C
ENDCHAR
STARTCHAR 04F8
ENCODING 1272
SWIDTH 480 0
DWIDTH 8 0
BBX 10 14 0 0
BITMAP
0080
0D80
0980
0000
30C0
30C0
3080
3980
3D80
6D80
6D00
4D00
5B00
F300
ENDCHAR
STARTCHAR 04F9
ENCODING 1273
SWIDTH 480 0
DWIDTH 8 0
BBX 9 11 0 0
BITMAP
1D80
1980
0000
3080
2180
2180
7900
6D00
4F00
5B00
FB00
ENDCHAR
STARTCHAR 1E80
ENCODING 7808
SWIDTH 480 0
DWIDTH 8 0
BBX 9 14 1 0
BITMAP
0800
0C00
0600
0000
6180
6180
6100
6B00
5B00
DB00
EA00
AE00
CE00
CC00
ENDCHAR
STARTCHAR 1E81
ENCODING 7809
SWIDTH 480 0
DWIDTH 8 0
BBX 9 11 1 1
BITMAP
1800
0C00
0000
4180
4300
DB00
DB00
FA00
EE00
EC00
CC00
ENDCHAR
STARTCHAR 1E82
ENCODING 7810
SWIDTH 480 0
DWIDTH 8 0
BBX 9 14 1 0
BITMAP
0200
0700
0C00
0000
6180
6180
6100
6B00
5B00
DB00
EA00
AE00
CE00
CC00
ENDCHAR
STARTCHAR 1E83
ENCODING 7811
SWIDTH 480 0
DWIDTH 8 0
BBX 9 11 1 1
BITMAP
0600
1C00
0000
4180
4300
DB00
DB00
FA00
EE00
EC00
CC00
ENDCHAR
STARTCHAR 1E84
ENCODING 7812
SWIDTH 480 0
DWIDTH 8 0
BBX 9 14 1 0
BITMAP
0900
1B80
1900
0000
6180
6180
6100
6B00
5B00
DB00
EA00
AE00
CE00
CC00
ENDCHAR
STARTCHAR 1E85
ENCODING 7813
SWIDTH 480 0
DWIDTH 8 0
BBX 9 11 1 0
BITMAP
1B00
1300
0000
4180
4300
DB00
DB00
FA00
EE00
EC00
CC00
ENDCHAR
STARTCHAR 1EF2
ENCODING 7922
SWIDTH 480 0
DWIDTH 8 0
BBX 8 14 2 0
BITMAP
10
38
0C
00
C3
66
6E
6C
78
30
30
70
60
60
ENDCHAR
STARTCHAR 1EF3
ENCODING 7923
SWIDTH 480 0
DWIDTH 8 0
BBX 10 14 -1 -2
BITMAP
0600
0300
0100
18C0
18C0
1980
1980
1B00
0F00
0E00
0C00
1C00
7800
E000
ENDCHAR
STARTCHAR 1F00
ENCODING 7936
SWIDTH 480 0
DWIDTH 8 0
BBX 8 12 1 0
BITMAP
06
06
0C
00
1F
7E
66
C6
C6
C6
FE
7E
ENDCHAR
STARTCHAR 1F01
ENCODING 7937
SWIDTH 480 0
DWIDTH 8 0
BBX 8 12 1 0
BITMAP
0C
0C
04
00
1F
7E
66
C6
C6
C6
FE
7E
ENDCHAR
STARTCHAR 1F02
ENCODING 7938
SWIDTH 480 0
DWIDTH 8 0
BBX 8 12 1 0
BITMAP
1B
1B
11
00
1F
7E
66
C6
C6
C6
FE
7E
ENDCHAR
STARTCHAR 1F03
ENCODING 7939
SWIDTH 480 0
DWIDTH 8 0
BBX 8 12 1 0
BITMAP
3E
12
13
00
1F
7E
66
C6
C6
C6
FE
7E
ENDCHAR
STARTCHAR 1F04
ENCODING 7940
SWIDTH 480 0
DWIDTH 8 0
BBX 9 12 1 0
BITMAP
1D80
0B00
1A00
0000
1F00
7E00
6600
C600
C600
C600
FE00
7E00
ENDCHAR
STARTCHAR 1F05
ENCODING 7941
SWIDTH 480 0
DWIDTH 8 0
BBX 8 12 1 0
BITMAP
19
13
1E
00
1F
7E
66
C6
C6
C6
FE
7E
ENDCHAR
STARTCHAR 1F06
ENCODING 7942
SWIDTH 480 0
DWIDTH 8 0
BBX 8 14 1 0
BITMAP
06
0F
09
06
04
00
1F
7E
66
C6
C6
C6
FE
7E
ENDCHAR
STARTCHAR 1F07
ENCODING 7943
SWIDTH 480 0
DWIDTH 8 0
BBX 8 14 1 0
BITMAP
06
0F
19
06
04
00
1F
7E
66
C6
C6
C6
FE
7E
ENDCHAR
STARTCHAR 1F08
ENCODING 7944
SWIDTH 480 0
DWIDTH 8 0
BBX 8 11 0 0
BITMAP
20
36
2F
4B
1B
13
33
3F
7F
63
C3
ENDCHAR
STARTCHAR 1F09
ENCODING 7945
SWIDTH 480 0
DWIDTH 8 0
BBX 8 11 0 0
BITMAP
60
66
4F
2B
1B
13
33
3F
7F
63
C3
ENDCHAR
STARTCHAR 1F0A
ENCODING 7946
SWIDTH 480 0
DWIDTH 8 0
BBX 11 11 -3 0
BITMAP
6000
6CC0
6DE0
C560
0360
0260
0660
07E0
0FE0
0C60
1860
ENDCHAR
STARTCHAR 1F0B
ENCODING 7947
SWIDTH 480 0
DWIDTH 8 0
BBX 10 11 -2 0
BITMAP
C000
D180
9BC0
4AC0
06C0
04C0
0CC0
0FC0
1FC0
18C0
30C0
ENDCHAR
STARTCHAR 1F0C
ENCODING 7948
SWIDTH 480 0
DWIDTH 8 0
BBX 10 11 -2 0
BITMAP
4000
ED80
5BC0
92C0
06C0
04C0
0CC0
0FC0
1FC0
18C0
30C0
ENDCHAR
STARTCHAR 1F0D
ENCODING 7949
SWIDTH 480 0
DWIDTH 8 0
BBX 10 11 -2 0
BITMAP
4000
CD80
DBC0
52C0
06C0
04C0
0CC0
0FC0
1FC0
18C0
30C0
ENDCHAR
STARTCHAR 1F0E
ENCODING 7950
SWIDTH 480 0
DWIDTH 8 0
BBX 8 12 0 0
BITMAP
F0
90
46
6F
CB
1B
13
33
3F
7F
63
C3
ENDCHAR
STARTCHAR 1F0F
ENCODING 7951
SWIDTH 480 0
DWIDTH 8 0
BBX 8 12 0 0
BITMAP
70
90
46
4F
6B
1B
13
33
3F
7F
63
C3
ENDCHAR
STARTCHAR 1F10
ENCODING 7952
SWIDTH 480 0
DWIDTH 8 0
BBX 8 12 1 0
BITMAP
06
06
0C
00
3F
7E
60
3C
7C
C0
FE
7E
ENDCHAR
STARTCHAR 1F11
ENCODING 7953
SWIDTH 480 0
DWIDTH 8 0
BBX 8 12 1 0
BITMAP
0C
0C
04
00
3F
7E
60
3C
7C
C0
FE
7E
ENDCHAR
STARTCHAR 1F12
ENCODING 7954
SWIDTH 480 0
DWIDTH 8 0
BBX 8 12 1 0
BITMAP
1B
1B
11
00
3F
7E
60
3C
7C
C0
FE
7E
ENDCHAR
STARTCHAR 1F13
ENCODING 7955
SWIDTH 480 0
DWIDTH 8 0
BBX 8 12 1 0
BITMAP
3E
12
13
00
3F
7E
60
3C
7C
C0
FE
7E
ENDCHAR
STARTCHAR 1F14
ENCODING 7956
SWIDTH 480 0
DWIDTH 8 0
BBX 9 12 1 0
BITMAP
1D80
0B00
1A00
0000
3F00
7E00
6000
3C00
7C00
C000
FE00
7E00
ENDCHAR
STARTCHAR 1F15
ENCODING 7957
SWIDTH 480 0
DWIDTH 8 0
BBX 8 12 1 0
BITMAP
19
13
1E
00
3F
7E
60
3C
7C
C0
FE
7E
ENDCHAR
STARTCHAR 1F18
ENCODING 7960
SWIDTH 480 0
DWIDTH 8 0
BBX 9 11 0 0
BITMAP
4000
DF80
5800
9800
3000
3F00
3000
3000
7000
7F00
7E00
ENDCHAR
STARTCHAR 1F19
ENCODING 7961
SWIDTH 480 0
DWIDTH 8 0
BBX 9 11 0 0
BITMAP
C000
DF80
9800
5800
3000
3F00
3000
3000
7000
7F00
7E00
ENDCHAR
STARTCHAR 1F1A
ENCODING 7962
SWIDTH 480 0
DWIDTH 8 0
BBX 13 11 -4 0
BITMAP
4000
69F8
6D80
C580
0300
03F0
0300
0300
0700
07F0
07E0
ENDCHAR
STARTCHAR 1F1B
ENCODING 7963
SWIDTH 480 0
DWIDTH 8 0
BBX 12 11 -3 0
BITMAP
C000
D3F0
9B00
4B00
0600
07E0
0600
0600
0E00
0FE0
0FC0
ENDCHAR
STARTCHAR 1F1C
ENCODING 7964
SWIDTH 480 0
DWIDTH 8 0
BBX 13 11 -4 0
BITMAP
6400
6DF8
6980
D980
0300
03F0
0300
0300
0700
07F0
07E0
ENDCHAR
STARTCHAR 1F1D
ENCODING 7965
SWIDTH 480 0
DWIDTH 8 0
BBX 12 11 -3 0
BITMAP
8000
DBF0
9300
E300
0600
07E0
0600
0600
0E00
0FE0
0FC0
ENDCHAR
STARTCHAR 1F20
ENCODING 7968
SWIDTH 480 0
DWIDTH 8 0
BBX 7 15 1 -3
BITMAP
06
06
0C
00
3C
7E
66
66
66
C6
CC
CC
0C
0C
18
ENDCHAR
STARTCHAR 1F21
ENCODING 7969
SWIDTH 480 0
DWIDTH 8 0
BBX 7 15 1 -3
BITMAP
0C
0C
04
00
3C
7E
66
66
66
C6
CC
CC
0C
0C
18
ENDCHAR
STARTCHAR 1F22
ENCODING 7970
SWIDTH 480 0
DWIDTH 8 0
BBX 8 15 1 -3
BITMAP
1B
1B
11
00
3C
7E
66
66
66
C6
CC
CC
0C
0C
18
ENDCHAR
STARTCHAR 1F23
ENCODING 7971
SWIDTH 480 0
DWIDTH 8 0
BBX 8 15 1 -3
BITMAP
3E
12
13
00
3C
7E
66
66
66
C6
CC
CC
0C
0C
18
ENDCHAR
STARTCHAR 1F24
ENCODING 7972
SWIDTH 480 0
DWIDTH 8 0
BBX 9 15 1 -3
BITMAP
1D80
0B00
1A00
0000
3C00
7E00
6600
6600
6600
C600
CC00
CC00
0C00
0C00
1800
ENDCHAR
STARTCHAR 1F25
ENCODING 7973
SWIDTH 480 0
DWIDTH 8 0
BBX 8 15 1 -3
BITMAP
19
13
1E
00
3C
7E
66
66
66
C6
CC
CC
0C
0C
18
ENDCHAR
STARTCHAR 1F26
ENCODING 7974
SWIDTH 480 0
DWIDTH 8 0
BBX 8 17 1 -3
BITMAP
06
0F
19
06
04
00
3C
7E
66
66
66
C6
CC
CC
0C
0C
18
ENDCHAR
STARTCHAR 1F27
ENCODING 7975
SWIDTH 480 0
DWIDTH 8 0
BBX 8 17 1 -3
BITMAP
06
0F
11
04
04
00
3C
7E
66
66
66
C6
CC
CC
0C
0C
18
ENDCHAR
STARTCHAR 1F28
ENCODING 7976
SWIDTH 480 0
DWIDTH 8 0
BBX 11 11 -1 0
BITMAP
4000
6C60
7CC0
D8C0
18C0
1FC0
1980
3180
3180
3180
3300
ENDCHAR
STARTCHAR 1F29
ENCODING 7977
SWIDTH 480 0
DWIDTH 8 0
BBX 11 11 -1 0
BITMAP
4000
EC60
5CC0
58C0
18C0
1FC0
1980
3180
3180
3180
3300
ENDCHAR
STARTCHAR 1F2A
ENCODING 7978
SWIDTH 480 0
DWIDTH 8 0
BBX 14 11 -4 0
BITMAP
4800
D98C
4B98
8F18
0318
03F8
0330
0630
0630
0630
0660
ENDCHAR
STARTCHAR 1F2B
ENCODING 7979
SWIDTH 480 0
DWIDTH 8 0
BBX 14 11 -4 0
BITMAP
4800
F98C
4B98
4F18
0318
03F8
0330
0630
0630
0630
0660
ENDCHAR
STARTCHAR 1F2C
ENCODING 7980
SWIDTH 480 0
DWIDTH 8 0
BBX 14 11 -4 0
BITMAP
4000
ED8C
5B98
9318
0318
03F8
0330
0630
0630
0630
0660
ENDCHAR
STARTCHAR 1F2D
ENCODING 7981
SWIDTH 480 0
DWIDTH 8 0
BBX 14 11 -4 0
BITMAP
4000
CD8C
DB98
5318
0318
03F8
0330
0630
0630
0630
0660
ENDCHAR
STARTCHAR 1F2E
ENCODING 7982
SWIDTH 480 0
DWIDTH 8 0
BBX 12 12 -2 0
BITMAP
F000
9000
4630
6E60
CC60
0C60
0FE0
0CC0
18C0
18C0
18C0
1980
ENDCHAR
STARTCHAR 1F2F
ENCODING 7983
SWIDTH 480 0
DWIDTH 8 0
BBX 12 12 -2 0
BITMAP
F000
9000
4630
4E60
6C60
0C60
0FE0
0CC0
18C0
18C0
18C0
1980
ENDCHAR
STARTCHAR 1F30
ENCODING 7984
SWIDTH 480 0
DWIDTH 8 0
BBX 6 12 2 0
BITMAP
1C
08
18
00
F0
F0
30
30
60
60
7C
3C
ENDCHAR
STARTCHAR 1F31
ENCODING 7985
SWIDTH 480 0
DWIDTH 8 0
BBX 6 12 2 0
BITMAP
18
10
08
00
F0
F0
30
30
60
60
7C
3C
ENDCHAR
STARTCHAR 1F32
ENCODING 7986
SWIDTH 480 0
DWIDTH 8 0
BBX 7 12 2 0
BITMAP
34
36
22
00
F0
F0
30
30
60
60
7C
3C
ENDCHAR
STARTCHAR 1F33
ENCODING 7987
SWIDTH 480 0
DWIDTH 8 0
BBX 7 12 2 0
BITMAP
7C
64
26
00
F0
F0
30
30
60
60
7C
3C
ENDCHAR
STARTCHAR 1F34
ENCODING 7988
SWIDTH 480 0
DWIDTH 8 0
BBX 8 12 2 0
BITMAP
33
16
24
00
F0
F0
30
30
60
60
7C
3C
ENDCHAR
STARTCHAR 1F35
ENCODING 7989
SWIDTH 480 0
DWIDTH 8 0
BBX 7 12 2 0
BITMAP
32
26
2C
00
F0
F0
30
30
60
60
7C
3C
ENDCHAR
STARTCHAR 1F36
ENCODING 7990
SWIDTH 480 0
DWIDTH 8 0
BBX 7 14 2 0
BITMAP
0C
3E
22
18
18
00
F0
F0
30
30
60
60
7C
3C
ENDCHAR
STARTCHAR 1F37
ENCODING 7991
SWIDTH 480 0
DWIDTH 8 0
BBX 7 14 2 0
BITMAP
1C
3E
26
18
08
00
F0
F0
30
30
60
60
7C
3C
ENDCHAR
STARTCHAR 1F38
ENCODING 7992
SWIDTH 480 0
DWIDTH 8 0
BBX 10 11 -1 0
BITMAP
6000
6FC0
6300
C300
0600
0600
0600
0600
0C00
3F00
3F00
ENDCHAR
STARTCHAR 1F39
ENCODING 7993
SWIDTH 480 0
DWIDTH 8 0
BBX 9 11 0 0
BITMAP
8000
DF80
8600
4600
0C00
0C00
0C00
0C00
1800
7E00
7E00
ENDCHAR
STARTCHAR 1F3A
ENCODING 7994
SWIDTH 480 0
DWIDTH 8 0
BBX 13 11 -4 0
BITMAP
4000
69F8
4C60
8460
00C0
00C0
00C0
00C0
0180
07E0
07E0
ENDCHAR
STARTCHAR 1F3B
ENCODING 7995
SWIDTH 480 0
DWIDTH 8 0
BBX 12 11 -3 0
BITMAP
C000
DBF0
98C0
48C0
0180
0180
0180
0180
0300
0FC0
0FC0
ENDCHAR
STARTCHAR 1F3C
ENCODING 7996
SWIDTH 480 0
DWIDTH 8 0
BBX 13 11 -4 0
BITMAP
4000
6DF8
5860
9060
00C0
00C0
00C0
00C0
0180
07E0
07E0
ENDCHAR
STARTCHAR 1F3D
ENCODING 7997
SWIDTH 480 0
DWIDTH 8 0
BBX 13 11 -4 0
BITMAP
4000
CDF8
D860
5060
00C0
00C0
00C0
00C0
0180
07E0
07E0
ENDCHAR
STARTCHAR 1F3E
ENCODING 7998
SWIDTH 480 0
DWIDTH 8 0
BBX 11 12 -2 0
BITMAP
7000
9000
67E0
6180
4180
0300
0300
0300
0300
0600
1F80
1F80
ENDCHAR
STARTCHAR 1F3F
ENCODING 7999
SWIDTH 480 0
DWIDTH 8 0
BBX 11 12 -2 0
BITMAP
7000
9000
67E0
6180
2180
0300
0300
0300
0300
0600
1F80
1F80
ENDCHAR
STARTCHAR 1F40
ENCODING 8000
SWIDTH 480 0
DWIDTH 8 0
BBX 7 12 1 0
BITMAP
06
06
0C
00
1C
7E
66
C6
C6
C6
FC
78
ENDCHAR
STARTCHAR 1F41
ENCODING 8001
SWIDTH 480 0
DWIDTH 8 0
BBX 7 12 1 0
BITMAP
0C
0C
04
00
1C
7E
66
C6
C6
C6
FC
78
ENDCHAR
STARTCHAR 1F42
ENCODING 8002
SWIDTH 480 0
DWIDTH 8 0
BBX 8 12 1 0
BITMAP
1B
1B
11
00
1C
7E
66
C6
C6
C6
FC
78
ENDCHAR
STARTCHAR 1F43
ENCODING 8003
SWIDTH 480 0
DWIDTH 8 0
BBX 8 12 1 0
BITMAP
3E
12
13
00
1C
7E
66
C6
C6
C6
FC
78
ENDCHAR
STARTCHAR 1F44
ENCODING 8004
SWIDTH 480 0
DWIDTH 8 0
BBX 9 12 1 0
BITMAP
1D80
0B00
1A00
0000
1C00
7E00
6600
C600
C600
C600
FC00
7800
ENDCHAR
STARTCHAR 1F45
ENCODING 8005
SWIDTH 480 0
DWIDTH 8 0
BBX 8 12 1 0
BITMAP
19
13
1E
00
1C
7E
66
C6
C6
C6
FC
78
ENDCHAR
STARTCHAR 1F48
ENCODING 8008
SWIDTH 480 0
DWIDTH 8 0
BBX 10 11 -1 0
BITMAP
6300
6F80
6CC0
D8C0
18C0
30C0
30C0
3180
3180
3F00
1E00
ENDCHAR
STARTCHAR 1F49
ENCODING 8009
SWIDTH 480 0
DWIDTH 8 0
BBX 10 11 -1 0
BITMAP
4300
CF80
4CC0
58C0
18C0
30C0
30C0
3180
3180
3F00
1E00
ENDCHAR
STARTCHAR 1F4A
ENCODING 8010
SWIDTH 480 0
DWIDTH 8 0
BBX 13 11 -4 0
BITMAP
4060
D9F0
4998
8F18
0318
0618
0618
0630
0630
07E0
03C0
ENDCHAR
STARTCHAR 1F4B
ENCODING 8011
SWIDTH 480 0
DWIDTH 8 0
BBX 13 11 -4 0
BITMAP
4860
D9F0
C998
4F18
0318
0618
0618
0630
0630
07E0
03C0
ENDCHAR
STARTCHAR 1F4C
ENCODING 8012
SWIDTH 480 0
DWIDTH 8 0
BBX 13 11 -4 0
BITMAP
6460
6DF0
6998
DB18
0318
0618
0618
0630
0630
07E0
03C0
ENDCHAR
STARTCHAR 1F4D
ENCODING 8013
SWIDTH 480 0
DWIDTH 8 0
BBX 12 11 -3 0
BITMAP
C8C0
CFE0
9B30
5630
0630
0C30
0C30
0C60
0C60
0FC0
0780
ENDCHAR
STARTCHAR 1F50
ENCODING 8016
SWIDTH 480 0
DWIDTH 8 0
BBX 8 12 1 0
BITMAP
06
06
0C
00
63
63
66
66
E6
CE
FC
78
ENDCHAR
STARTCHAR 1F51
ENCODING 8017
SWIDTH 480 0
DWIDTH 8 0
BBX 8 12 1 0
BITMAP
0C
08
04
00
63
63
66
66
E6
CE
FC
78
ENDCHAR
STARTCHAR 1F52
ENCODING 8018
SWIDTH 480 0
DWIDTH 8 0
BBX 8 12 1 0
BITMAP
1A
1B
31
00
63
63
66
66
E6
CE
FC
78
ENDCHAR
STARTCHAR 1F53
ENCODING 8019
SWIDTH 480 0
DWIDTH 8 0
BBX 8 12 1 0
BITMAP
36
32
12
00
63
63
66
66
E6
CE
FC
78
ENDCHAR
STARTCHAR 1F54
ENCODING 8020
SWIDTH 480 0
DWIDTH 8 0
BBX 9 12 1 0
BITMAP
1980
0B00
1600
0000
6300
6300
6600
6600
E600
CE00
FC00
7800
ENDCHAR
STARTCHAR 1F55
ENCODING 8021
SWIDTH 480 0
DWIDTH 8 0
BBX 8 12 1 0
BITMAP
19
13
16
00
63
63
66
66
E6
CE
FC
78
ENDCHAR
STARTCHAR 1F56
ENCODING 8022
SWIDTH 480 0
DWIDTH 8 0
BBX 8 14 1 0
BITMAP
06
0F
11
04
04
00
63
63
66
66
E6
CE
FC
78
ENDCHAR
STARTCHAR 1F57
ENCODING 8023
SWIDTH 480 0
DWIDTH 8 0
BBX 8 14 1 0
BITMAP
06
1F
11
0C
04
00
63
63
66
66
E6
CE
FC
78
ENDCHAR
STARTCHAR 1F59
ENCODING 8025
SWIDTH 480 0
DWIDTH 8 0
BBX 11 11 -1 0
BITMAP
4000
F860
4CC0
4DC0
0D80
0F00
0600
0600
0E00
0C00
0C00
ENDCHAR
STARTCHAR 1F5B
ENCODING 8027
SWIDTH 480 0
DWIDTH 8 0
BBX 13 11 -3 0
BITMAP
8000
D618
9B30
CB70
0360
03C0
0180
0180
0380
0300
0300
ENDCHAR
STARTCHAR 1F5D
ENCODING 8029
SWIDTH 480 0
DWIDTH 8 0
BBX 14 11 -4 0
BITMAP
C000
CF0C
9998
51B8
01B0
01E0
00C0
00C0
01C0
0180
0180
ENDCHAR
STARTCHAR 1F5F
ENCODING 8031
SWIDTH 480 0
DWIDTH 8 0
BBX 13 12 -3 0
BITMAP
7000
D800
2618
2330
2370
0360
03C0
0180
0180
0380
0300
0300
ENDCHAR
STARTCHAR 1F60
ENCODING 8032
SWIDTH 480 0
DWIDTH 8 0
BBX 8 12 1 0
BITMAP
06
06
0C
00
22
63
C3
DB
DB
92
FE
FE
ENDCHAR
STARTCHAR 1F61
ENCODING 8033
SWIDTH 480 0
DWIDTH 8 0
BBX 8 12 1 0
BITMAP
0C
08
04
00
22
63
C3
DB
DB
92
FE
FE
ENDCHAR
STARTCHAR 1F62
ENCODING 8034
SWIDTH 480 0
DWIDTH 8 0
BBX 8 12 1 0
BITMAP
1A
1B
31
00
22
63
C3
DB
DB
92
FE
FE
ENDCHAR
STARTCHAR 1F63
ENCODING 8035
SWIDTH 480 0
DWIDTH 8 0
BBX 8 12 1 0
BITMAP
36
32
12
00
22
63
C3
DB
DB
92
FE
FE
ENDCHAR
STARTCHAR 1F64
ENCODING 8036
SWIDTH 480 0
DWIDTH 8 0
BBX 8 12 1 0
BITMAP
19
1B
16
00
22
63
C3
DB
DB
92
FE
FE
ENDCHAR
STARTCHAR 1F65
ENCODING 8037
SWIDTH 480 0
DWIDTH 8 0
BBX 8 12 1 0
BITMAP
3B
32
16
00
22
63
C3
DB
DB
92
FE
FE
ENDCHAR
STARTCHAR 1F66
ENCODING 8038
SWIDTH 480 0
DWIDTH 8 0
BBX 8 14 1 0
BITMAP
06
0F
11
04
04
00
22
63
C3
DB
DB
92
FE
FE
ENDCHAR
STARTCHAR 1F67
ENCODING 8039
SWIDTH 480 0
DWIDTH 8 0
BBX 8 14 1 0
BITMAP
06
1F
11
0C
04
00
22
63
C3
DB
DB
92
FE
FE
ENDCHAR
STARTCHAR 1F68
ENCODING 8040
SWIDTH 480 0
DWIDTH 8 0
BBX 10 11 -1 0
BITMAP
4300
6FC0
5CC0
98C0
18C0
30C0
30C0
3180
1100
7B80
7F80
ENDCHAR
STARTCHAR 1F69
ENCODING 8041
SWIDTH 480 0
DWIDTH 8 0
BBX 10 11 -1 0
BITMAP
4300
CFC0
9CC0
58C0
18C0
30C0
30C0
3180
1100
7B80
7F80
ENDCHAR
STARTCHAR 1F6A
ENCODING 8042
SWIDTH 480 0
DWIDTH 8 0
BBX 14 11 -5 0
BITMAP
6030
6CFC
6DCC
C58C
018C
030C
030C
0318
0110
07B8
07F8
ENDCHAR
STARTCHAR 1F6B
ENCODING 8043
SWIDTH 480 0
DWIDTH 8 0
BBX 13 11 -4 0
BITMAP
4060
D9F8
8B98
4B18
0318
0618
0618
0630
0220
0F70
0FF0
ENDCHAR
STARTCHAR 1F6C
ENCODING 8044
SWIDTH 480 0
DWIDTH 8 0
BBX 13 11 -4 0
BITMAP
4060
6DF8
6B98
D318
0318
0618
0618
0630
0220
0F70
0FF0
ENDCHAR
STARTCHAR 1F6D
ENCODING 8045
SWIDTH 480 0
DWIDTH 8 0
BBX 13 11 -4 0
BITMAP
4060
EDF8
4B98
7318
0318
0618
0618
0630
0220
0F70
0FF0
ENDCHAR
STARTCHAR 1F6E
ENCODING 8046
SWIDTH 480 0
DWIDTH 8 0
BBX 11 12 -2 0
BITMAP
7000
D980
27E0
6E60
4C60
0C60
1860
1860
18C0
0880
3DC0
3FC0
ENDCHAR
STARTCHAR 1F6F
ENCODING 8047
SWIDTH 480 0
DWIDTH 8 0
BBX 11 12 -2 0
BITMAP
7000
D980
27E0
6E60
2C60
0C60
1860
1860
18C0
0880
3DC0
3FC0
ENDCHAR
STARTCHAR 1F70
ENCODING 8048
SWIDTH 480 0
DWIDTH 8 0
BBX 8 12 1 0
BITMAP
08
0C
06
00
1F
7E
66
C6
C6
C6
FE
7E
ENDCHAR
STARTCHAR 1F71
ENCODING 8049
SWIDTH 480 0
DWIDTH 8 0
BBX 8 12 1 0
BITMAP
02
06
0C
00
1F
7E
66
C6
C6
C6
FE
7E
ENDCHAR
STARTCHAR 1F72
ENCODING 8050
SWIDTH 480 0
DWIDTH 8 0
BBX 8 12 1 0
BITMAP
08
0C
06
00
3F
7E
60
3C
7C
C0
FE
7E
ENDCHAR
STARTCHAR 1F73
ENCODING 8051
SWIDTH 480 0
DWIDTH 8 0
BBX 8 12 1 0
BITMAP
02
06
0C
00
3F
7E
60
3C
7C
C0
FE
7E
ENDCHAR
STARTCHAR 1F74
ENCODING 8052
SWIDTH 480 0
DWIDTH 8 0
BBX 7 15 1 -3
BITMAP
08
0C
06
00
3C
7E
66
66
66
C6
CC
CC
0C
0C
18
ENDCHAR
STARTCHAR 1F75
ENCODING 8053
SWIDTH 480 0
DWIDTH 8 0
BBX 7 15 1 -3
BITMAP
02
06
0C
00
3C
7E
66
66
66
C6
CC
CC
0C
0C
18
ENDCHAR
STARTCHAR 1F76
ENCODING 8054
SWIDTH 480 0
DWIDTH 8 0
BBX 6 12 2 0
BITMAP
10
38
0C
00
F0
F0
30
30
60
60
7C
3C
ENDCHAR
STARTCHAR 1F77
ENCODING 8055
SWIDTH 480 0
DWIDTH 8 0
BBX 6 11 2 1
BITMAP
1C
18
00
F0
F0
30
30
60
60
7C
3C
ENDCHAR
STARTCHAR 1F78
ENCODING 8056
SWIDTH 480 0
DWIDTH 8 0
BBX 7 12 1 0
BITMAP
08
0C
06
00
1C
7E
66
C6
C6
C6
FC
78
ENDCHAR
STARTCHAR 1F79
ENCODING 8057
SWIDTH 480 0
DWIDTH 8 0
BBX 7 12 1 0
BITMAP
02
06
0C
00
1C
7E
66
C6
C6
C6
FC
78
ENDCHAR
STARTCHAR 1F7A
ENCODING 8058
SWIDTH 480 0
DWIDTH 8 0
BBX 8 12 1 0
BITMAP
08
0C
06
00
63
63
66
66
E6
CE
FC
78
ENDCHAR
STARTCHAR 1F7B
ENCODING 8059
SWIDTH 480 0
DWIDTH 8 0
BBX 8 12 1 0
BITMAP
02
06
0C
00
63
63
66
66
E6
CE
FC
78
ENDCHAR
STARTCHAR 1F7C
ENCODING 8060
SWIDTH 480 0
DWIDTH 8 0
BBX 8 11 1 1
BITMAP
1C
0E
00
22
63
C3
DB
DB
92
FE
FE
ENDCHAR
STARTCHAR 1F7D
ENCODING 8061
SWIDTH 480 0
DWIDTH 8 0
BBX 8 12 1 0
BITMAP
02
06
0C
00
22
63
C3
DB
DB
92
FE
FE
ENDCHAR
STARTCHAR 1F80
ENCODING 8064
SWIDTH 480 0
DWIDTH 8 0
BBX 8 15 1 -3
BITMAP
06
06
0C
00
1F
7E
66
C6
C6
C6
FE
7E
00
30
30
ENDCHAR
STARTCHAR 1F81
ENCODING 8065
SWIDTH 480 0
DWIDTH 8 0
BBX 8 15 1 -3
BITMAP
0C
0C
04
00
1F
7E
66
C6
C6
C6
FE
7E
00
30
30
ENDCHAR
STARTCHAR 1F82
ENCODING 8066
SWIDTH 480 0
DWIDTH 8 0
BBX 8 15 1 -3
BITMAP
1B
1B
11
00
1F
7E
66
C6
C6
C6
FE
7E
00
30
30
ENDCHAR
STARTCHAR 1F83
ENCODING 8067
SWIDTH 480 0
DWIDTH 8 0
BBX 8 15 1 -3
BITMAP
3E
12
13
00
1F
7E
66
C6
C6
C6
FE
7E
00
30
30
ENDCHAR
STARTCHAR 1F84
ENCODING 8068
SWIDTH 480 0
DWIDTH 8 0
BBX 9 15 1 -3
BITMAP
1D80
0B00
1A00
0000
1F00
7E00
6600
C600
C600
C600
FE00
7E00
0000
3000
3000
ENDCHAR
STARTCHAR 1F85
ENCODING 8069
SWIDTH 480 0
DWIDTH 8 0
BBX 8 15 1 -3
BITMAP
19
13
1E
00
1F
7E
66
C6
C6
C6
FE
7E
00
30
30
ENDCHAR
STARTCHAR 1F86
ENCODING 8070
SWIDTH 480 0
DWIDTH 8 0
BBX 8 17 1 -3
BITMAP
06
0F
09
06
04
00
1F
7E
66
C6
C6
C6
FE
7E
00
30
30
ENDCHAR
STARTCHAR 1F87
ENCODING 8071
SWIDTH 480 0
DWIDTH 8 0
BBX 8 17 1 -3
BITMAP
06
0F
19
06
04
00
1F
7E
66
C6
C6
C6
FE
7E
00
30
30
ENDCHAR
STARTCHAR 1F88
ENCODING 8072
SWIDTH 480 0
DWIDTH 8 0
BBX 9 11 0 0
BITMAP
4000
6C00
5C00
9480
3580
3D80
2D00
7D00
4F00
CF00
CF00
ENDCHAR
STARTCHAR 1F89
ENCODING 8073
SWIDTH 480 0
DWIDTH 8 0
BBX 9 11 0 0
BITMAP
4000
CC00
9C00
5480
3580
3D80
2D00
7D00
4F00
CF00
CF00
ENDCHAR
STARTCHAR 1F8A
ENCODING 8074
SWIDTH 480 0
DWIDTH 8 0
BBX 13 11 -4 0
BITMAP
6000
6CC0
6DC0
C548
0358
03D8
02D0
07D0
04F0
0CF0
0CF0
ENDCHAR
STARTCHAR 1F8B
ENCODING 8075
SWIDTH 480 0
DWIDTH 8 0
BBX 12 11 -3 0
BITMAP
C000
D980
9B80
4A90
06B0
07B0
05A0
0FA0
09E0
19E0
19E0
ENDCHAR
STARTCHAR 1F8C
ENCODING 8076
SWIDTH 480 0
DWIDTH 8 0
BBX 12 11 -3 0
BITMAP
4000
ED80
5B80
9290
06B0
07B0
05A0
0FA0
09E0
19E0
19E0
ENDCHAR
STARTCHAR 1F8D
ENCODING 8077
SWIDTH 480 0
DWIDTH 8 0
BBX 12 11 -3 0
BITMAP
4000
CD80
DB80
5290
06B0
07B0
05A0
0FA0
09E0
19E0
19E0
ENDCHAR
STARTCHAR 1F8E
ENCODING 8078
SWIDTH 480 0
DWIDTH 8 0
BBX 10 12 -1 0
BITMAP
F000
9000
4600
6E00
CA40
1AC0
1EC0
1680
3E80
2780
6780
6780
ENDCHAR
STARTCHAR 1F8F
ENCODING 8079
SWIDTH 480 0
DWIDTH 8 0
BBX 10 12 -1 0
BITMAP
F000
9000
4600
4E00
6A40
1AC0
1EC0
1680
3E80
2780
6780
6780
ENDCHAR
STARTCHAR 1F90
ENCODING 8080
SWIDTH 480 0
DWIDTH 8 0
BBX 7 15 1 -3
BITMAP
06
06
0C
00
3C
7E
66
66
66
C6
CC
CC
0C
8C
D8
ENDCHAR
STARTCHAR 1F91
ENCODING 8081
SWIDTH 480 0
DWIDTH 8 0
BBX 7 15 1 -3
BITMAP
0C
0C
04
00
3C
7E
66
66
66
C6
CC
CC
0C
8C
D8
ENDCHAR
STARTCHAR 1F92
ENCODING 8082
SWIDTH 480 0
DWIDTH 8 0
BBX 8 15 1 -3
BITMAP
1A
1B
31
00
3C
7E
66
66
66
C6
CC
CC
0C
8C
D8
ENDCHAR
STARTCHAR 1F93
ENCODING 8083
SWIDTH 480 0
DWIDTH 8 0
BBX 7 15 1 -3
BITMAP
36
32
12
00
3C
7E
66
66
66
C6
CC
CC
0C
8C
D8
ENDCHAR
STARTCHAR 1F94
ENCODING 8084
SWIDTH 480 0
DWIDTH 8 0
BBX 9 15 1 -3
BITMAP
1980
0B00
1600
0000
3C00
7E00
6600
6600
6600
C600
CC00
CC00
0C00
8C00
D800
ENDCHAR
STARTCHAR 1F95
ENCODING 8085
SWIDTH 480 0
DWIDTH 8 0
BBX 8 15 1 -3
BITMAP
3B
32
16
00
3C
7E
66
66
66
C6
CC
CC
0C
8C
D8
ENDCHAR
STARTCHAR 1F96
ENCODING 8086
SWIDTH 480 0
DWIDTH 8 0
BBX 8 17 1 -3
BITMAP
06
0F
19
06
04
00
3C
7E
66
66
66
C6
CC
CC
0C
8C
D8
ENDCHAR
STARTCHAR 1F97
ENCODING 8087
SWIDTH 480 0
DWIDTH 8 0
BBX 8 17 1 -3
BITMAP
06
0F
11
04
04
00
3C
7E
66
66
66
C6
CC
CC
0C
8C
D8
ENDCHAR
STARTCHAR 1F98
ENCODING 8088
SWIDTH 480 0
DWIDTH 8 0
BBX 10 11 -1 0
BITMAP
4000
F900
5B00
9340
13C0
3EC0
3680
2680
2780
6580
6D80
ENDCHAR
STARTCHAR 1F99
ENCODING 8089
SWIDTH 480 0
DWIDTH 8 0
BBX 10 11 -1 0
BITMAP
4000
D900
9B00
5340
13C0
3EC0
3680
2680
2780
6580
6D80
ENDCHAR
STARTCHAR 1F9A
ENCODING 8090
SWIDTH 480 0
DWIDTH 8 0
BBX 14 11 -5 0
BITMAP
6000
6D90
6DB0
C534
013C
03EC
0368
0268
0278
0658
06D8
ENDCHAR
STARTCHAR 1F9B
ENCODING 8091
SWIDTH 480 0
DWIDTH 8 0
BBX 13 11 -4 0
BITMAP
C000
DB20
9B60
4A68
0278
07D8
06D0
04D0
04F0
0CB0
0DB0
ENDCHAR
STARTCHAR 1F9C
ENCODING 8092
SWIDTH 480 0
DWIDTH 8 0
BBX 14 11 -5 0
BITMAP
6400
6590
6DB0
D934
013C
03EC
0368
0268
0278
0658
06D8
ENDCHAR
STARTCHAR 1F9D
ENCODING 8093
SWIDTH 480 0
DWIDTH 8 0
BBX 13 11 -4 0
BITMAP
8800
CB20
9B60
7268
0278
07D8
06D0
04D0
04F0
0CB0
0DB0
ENDCHAR
STARTCHAR 1F9E
ENCODING 8094
SWIDTH 480 0
DWIDTH 8 0
BBX 12 12 -3 0
BITMAP
7000
D800
2640
66C0
44D0
04F0
0FB0
0DA0
09A0
09E0
1960
1B60
ENDCHAR
STARTCHAR 1F9F
ENCODING 8095
SWIDTH 480 0
DWIDTH 8 0
BBX 12 12 -3 0
BITMAP
7000
D800
2640
66C0
24D0
04F0
0FB0
0DA0
09A0
09E0
1960
1B60
ENDCHAR
STARTCHAR 1FA0
ENCODING 8096
SWIDTH 480 0
DWIDTH 8 0
BBX 8 15 1 -3
BITMAP
0E
04
0C
00
22
63
C3
DB
DB
92
FE
FE
00
30
30
ENDCHAR
STARTCHAR 1FA1
ENCODING 8097
SWIDTH 480 0
DWIDTH 8 0
BBX 8 15 1 -3
BITMAP
0C
08
0C
00
22
63
C3
DB
DB
92
FE
FE
00
30
30
ENDCHAR
STARTCHAR 1FA2
ENCODING 8098
SWIDTH 480 0
DWIDTH 8 0
BBX 8 15 1 -3
BITMAP
1E
1A
33
00
22
63
C3
DB
DB
92
FE
FE
00
30
30
ENDCHAR
STARTCHAR 1FA3
ENCODING 8099
SWIDTH 480 0
DWIDTH 8 0
BBX 8 15 1 -3
BITMAP
34
26
12
00
22
63
C3
DB
DB
92
FE
FE
00
30
30
ENDCHAR
STARTCHAR 1FA4
ENCODING 8100
SWIDTH 480 0
DWIDTH 8 0
BBX 8 15 1 -3
BITMAP
19
1B
16
00
22
63
C3
DB
DB
92
FE
FE
00
30
30
ENDCHAR
STARTCHAR 1FA5
ENCODING 8101
SWIDTH 480 0
DWIDTH 8 0
BBX 8 15 1 -3
BITMAP
3B
32
16
00
22
63
C3
DB
DB
92
FE
FE
00
30
30
ENDCHAR
STARTCHAR 1FA6
ENCODING 8102
SWIDTH 480 0
DWIDTH 8 0
BBX 8 17 1 -3
BITMAP
06
1F
11
0C
0C
00
22
63
C3
DB
DB
92
FE
FE
00
30
30
ENDCHAR
STARTCHAR 1FA7
ENCODING 8103
SWIDTH 480 0
DWIDTH 8 0
BBX 8 17 1 -3
BITMAP
0E
1F
13
0C
04
00
22
63
C3
DB
DB
92
FE
FE
00
30
30
ENDCHAR
STARTCHAR 1FA8
ENCODING 8104
SWIDTH 480 0
DWIDTH 8 0
BBX 10 11 -1 0
BITMAP
4400
6F00
7B00
D340
33C0
32C0
3680
2680
2580
6D80
6D80
ENDCHAR
STARTCHAR 1FA9
ENCODING 8105
SWIDTH 480 0
DWIDTH 8 0
BBX 10 11 -1 0
BITMAP
4400
CF00
9B00
5340
33C0
32C0
3680
2680
2580
6D80
6D80
ENDCHAR
STARTCHAR 1FAA
ENCODING 8106
SWIDTH 480 0
DWIDTH 8 0
BBX 14 11 -5 0
BITMAP
6040
68F0
6DB0
C534
033C
032C
0368
0268
0258
06D8
06D8
ENDCHAR
STARTCHAR 1FAB
ENCODING 8107
SWIDTH 480 0
DWIDTH 8 0
BBX 13 11 -4 0
BITMAP
C080
D1E0
9B60
4A68
0678
0658
06D0
04D0
04B0
0DB0
0DB0
ENDCHAR
STARTCHAR 1FAC
ENCODING 8108
SWIDTH 480 0
DWIDTH 8 0
BBX 13 11 -4 0
BITMAP
4080
6DE0
5B60
9268
0678
0658
06D0
04D0
04B0
0DB0
0DB0
ENDCHAR
STARTCHAR 1FAD
ENCODING 8109
SWIDTH 480 0
DWIDTH 8 0
BBX 13 11 -4 0
BITMAP
4080
CDE0
DB60
5268
0678
0658
06D0
04D0
04B0
0DB0
0DB0
ENDCHAR
STARTCHAR 1FAE
ENCODING 8110
SWIDTH 480 0
DWIDTH 8 0
BBX 11 12 -2 0
BITMAP
7000
DA00
6780
6D80
49A0
19E0
1960
1B40
1340
12C0
36C0
36C0
ENDCHAR
STARTCHAR 1FAF
ENCODING 8111
SWIDTH 480 0
DWIDTH 8 0
BBX 11 12 -2 0
BITMAP
7000
9200
6780
6D80
29A0
19E0
1960
1B40
1340
12C0
36C0
36C0
ENDCHAR
STARTCHAR 1FB0
ENCODING 8112
SWIDTH 480 0
DWIDTH 8 0
BBX 8 11 1 0
BITMAP
1B
0E
00
1F
7E
66
C6
C6
C6
FE
7E
ENDCHAR
STARTCHAR 1FB1
ENCODING 8113
SWIDTH 480 0
DWIDTH 8 0
BBX 8 11 1 0
BITMAP
1F
1F
00
1F
7E
66
C6
C6
C6
FE
7E
ENDCHAR
STARTCHAR 1FB2
ENCODING 8114
SWIDTH 480 0
DWIDTH 8 0
BBX 8 15 1 -3
BITMAP
08
0C
06
00
1F
7E
66
C6
C6
C6
FE
7E
00
30
30
ENDCHAR
STARTCHAR 1FB3
ENCODING 8115
SWIDTH 480 0
DWIDTH 8 0
BBX 8 11 1 -3
BITMAP
1F
7E
66
C6
C6
C6
FE
7E
00
30
30
ENDCHAR
STARTCHAR 1FB4
ENCODING 8116
SWIDTH 480 0
DWIDTH 8 0
BBX 8 15 1 -3
BITMAP
02
06
0C
00
1F
7E
66
C6
C6
C6
FE
7E
00
30
30
ENDCHAR
STARTCHAR 1FB6
ENCODING 8118
SWIDTH 480 0
DWIDTH 8 0
BBX 8 11 1 0
BITMAP
0E
1B
00
1F
7E
66
C6
C6
C6
FE
7E
ENDCHAR
STARTCHAR 1FB7
ENCODING 8119
SWIDTH 480 0
DWIDTH 8 0
BBX 8 14 1 -3
BITMAP
0E
1B
00
1F
7E
66
C6
C6
C6
FE
7E
00
30
30
ENDCHAR
STARTCHAR 1FB8
ENCODING 8120
SWIDTH 480 0
DWIDTH 8 0
BBX 9 14 0 0
BITMAP
0480
0780
0300
0000
0600
0F00
0B00
1B00
1300
3300
3F00
7F00
6300
C300
ENDCHAR
STARTCHAR 1FB9
ENCODING 8121
SWIDTH 480 0
DWIDTH 8 0
BBX 9 13 0 0
BITMAP
0F80
0000
0000
0600
0F00
0B00
1B00
1300
3300
3F00
7F00
6300
C300
ENDCHAR
STARTCHAR 1FBA
ENCODING 8122
SWIDTH 480 0
DWIDTH 8 0
BBX 8 10 0 1
BITMAP
C6
6F
0B
1B
13
33
3F
7F
63
C3
ENDCHAR
STARTCHAR 1FBB
ENCODING 8123
SWIDTH 480 0
DWIDTH 8 0
BBX 8 10 0 1
BITMAP
76
EF
0B
1B
13
33
3F
7F
63
C3
ENDCHAR
STARTCHAR 1FBC
ENCODING 8124
SWIDTH 480 0
DWIDTH 8 0
BBX 9 10 0 0
BITMAP
0C00
1C00
1480
3580
3D80
2D00
7D00
4F00
CF00
CF00
ENDCHAR
STARTCHAR 1FBD
ENCODING 8125
SWIDTH 480 0
DWIDTH 8 0
BBX 2 3 5 9
BITMAP
C0
40
80
ENDCHAR
STARTCHAR 1FBE
ENCODING 8126
SWIDTH 480 0
DWIDTH 8 0
BBX 2 2 3 -3
BITMAP
C0
C0
ENDCHAR
STARTCHAR 1FBF
ENCODING 8127
SWIDTH 480 0
DWIDTH 8 0
BBX 2 3 5 9
BITMAP
C0
40
80
ENDCHAR
STARTCHAR 1FC0
ENCODING 8128
SWIDTH 480 0
DWIDTH 8 0
BBX 4 2 4 9
BITMAP
F0
90
ENDCHAR
STARTCHAR 1FC1
ENCODING 8129
SWIDTH 480 0
DWIDTH 8 0
BBX 5 5 4 9
BITMAP
30
78
88
D8
D8
ENDCHAR
STARTCHAR 1FC2
ENCODING 8130
SWIDTH 480 0
DWIDTH 8 0
BBX 7 15 1 -3
BITMAP
08
0C
06
00
3C
7E
66
66
66
C6
CC
CC
0C
8C
D8
ENDCHAR
STARTCHAR 1FC3
ENCODING 8131
SWIDTH 480 0
DWIDTH 8 0
BBX 7 11 1 -3
BITMAP
3C
7E
66
66
66
C6
CC
CC
0C
8C
D8
ENDCHAR
STARTCHAR 1FC4
ENCODING 8132
SWIDTH 480 0
DWIDTH 8 0
BBX 7 15 1 -3
BITMAP
02
06
0C
00
3C
7E
66
66
66
C6
CC
CC
0C
8C
D8
ENDCHAR
STARTCHAR 1FC6
ENCODING 8134
SWIDTH 480 0
DWIDTH 8 0
BBX 8 14 1 -3
BITMAP
0E
1B
00
3C
7E
66
66
66
C6
CC
CC
0C
0C
18
ENDCHAR
STARTCHAR 1FC7
ENCODING 8135
SWIDTH 480 0
DWIDTH 8 0
BBX 8 14 1 -3
BITMAP
0E
1B
00
3C
7E
66
66
66
C6
CC
CC
0C
8C
D8
ENDCHAR
STARTCHAR 1FC8
ENCODING 8136
SWIDTH 480 0
DWIDTH 8 0
BBX 10 11 -1 0
BITMAP
8000
CFC0
6C00
0C00
1800
1F80
1800
1800
3800
3F80
3F00
ENDCHAR
STARTCHAR 1FC9
ENCODING 8137
SWIDTH 480 0
DWIDTH 8 0
BBX 10 11 -1 0
BITMAP
2000
6FC0
CC00
0C00
1800
1F80
1800
1800
3800
3F80
3F00
ENDCHAR
STARTCHAR 1FCA
ENCODING 8138
SWIDTH 480 0
DWIDTH 8 0
BBX 12 10 -2 1
BITMAP
E630
7E60
0C60
0C60
0FE0
0CC0
18C0
18C0
18C0
1980
ENDCHAR
STARTCHAR 1FCB
ENCODING 8139
SWIDTH 480 0
DWIDTH 8 0
BBX 12 10 -2 1
BITMAP
7630
EE60
0C60
0C60
0FE0
0CC0
18C0
18C0
18C0
1980
ENDCHAR
STARTCHAR 1FCC
ENCODING 8140
SWIDTH 480 0
DWIDTH 8 0
BBX 9 10 0 0
BITMAP
3200
3600
2680
2780
7D80
6D00
4D00
4F00
CB00
DB00
ENDCHAR
STARTCHAR 1FCD
ENCODING 8141
SWIDTH 480 0
DWIDTH 8 0
BBX 6 3 3 9
BITMAP
F8
48
CC
ENDCHAR
STARTCHAR 1FCE
ENCODING 8142
SWIDTH 480 0
DWIDTH 8 0
BBX 5 3 4 9
BITMAP
C8
D8
B0
ENDCHAR
STARTCHAR 1FCF
ENCODING 8143
SWIDTH 480 0
DWIDTH 8 0
BBX 5 5 4 9
BITMAP
30
78
88
20
20
ENDCHAR
STARTCHAR 1FD0
ENCODING 8144
SWIDTH 480 0
DWIDTH 8 0
BBX 6 11 2 0
BITMAP
6C
38
00
F0
F0
30
30
60
60
7C
3C
ENDCHAR
STARTCHAR 1FD1
ENCODING 8145
SWIDTH 480 0
DWIDTH 8 0
BBX 6 11 2 0
BITMAP
7C
7C
00
F0
F0
30
30
60
60
7C
3C
ENDCHAR
STARTCHAR 1FD2
ENCODING 8146
SWIDTH 480 0
DWIDTH 8 0
BBX 8 12 2 0
BITMAP
10
7B
6A
00
F0
F0
30
30
60
60
7C
3C
ENDCHAR
STARTCHAR 1FD3
ENCODING 8147
SWIDTH 480 0
DWIDTH 8 0
BBX 8 12 2 0
BITMAP
08
6B
72
00
F0
F0
30
30
60
60
7C
3C
ENDCHAR
STARTCHAR 1FD6
ENCODING 8150
SWIDTH 480 0
DWIDTH 8 0
BBX 6 11 2 0
BITMAP
3C
6C
00
F0
F0
30
30
60
60
7C
3C
ENDCHAR
STARTCHAR 1FD7
ENCODING 8151
SWIDTH 480 0
DWIDTH 8 0
BBX 7 14 2 0
BITMAP
0C
3E
22
26
66
00
F0
F0
30
30
60
60
7C
3C
ENDCHAR
STARTCHAR 1FD8
ENCODING 8152
SWIDTH 480 0
DWIDTH 8 0
BBX 8 14 1 0
BITMAP
09
0F
06
00
3F
0C
0C
18
18
18
18
30
FC
FC
ENDCHAR
STARTCHAR 1FD9
ENCODING 8153
SWIDTH 480 0
DWIDTH 8 0
BBX 8 13 1 0
BITMAP
1F
00
00
3F
0C
0C
18
18
18
18
30
FC
FC
ENDCHAR
STARTCHAR 1FDA
ENCODING 8154
SWIDTH 480 0
DWIDTH 8 0
BBX 11 10 -2 1
BITMAP
E7E0
7180
0180
0300
0300
0300
0300
0600
1F80
1F80
ENDCHAR
STARTCHAR 1FDB
ENCODING 8155
SWIDTH 480 0
DWIDTH 8 0
BBX 11 10 -2 1
BITMAP
77E0
E180
0180
0300
0300
0300
0300
0600
1F80
1F80
ENDCHAR
STARTCHAR 1FDD
ENCODING 8157
SWIDTH 480 0
DWIDTH 8 0
BBX 5 3 3 9
BITMAP
D8
C8
48
ENDCHAR
STARTCHAR 1FDE
ENCODING 8158
SWIDTH 480 0
DWIDTH 8 0
BBX 6 3 3 9
BITMAP
EC
C8
58
ENDCHAR
STARTCHAR 1FDF
ENCODING 8159
SWIDTH 480 0
DWIDTH 8 0
BBX 5 5 4 9
BITMAP
30
F8
88
60
20
ENDCHAR
STARTCHAR 1FE0
ENCODING 8160
SWIDTH 480 0
DWIDTH 8 0
BBX 8 11 1 0
BITMAP
1B
0E
00
63
63
66
66
E6
CE
FC
78
ENDCHAR
STARTCHAR 1FE1
ENCODING 8161
SWIDTH 480 0
DWIDTH 8 0
BBX 8 11 1 0
BITMAP
1F
1E
00
63
63
66
66
E6
CE
FC
78
ENDCHAR
STARTCHAR 1FE2
ENCODING 8162
SWIDTH 480 0
DWIDTH 8 0
BBX 9 12 1 0
BITMAP
0800
3D80
3500
0000
6300
6300
6600
6600
E600
CE00
FC00
7800
ENDCHAR
STARTCHAR 1FE3
ENCODING 8163
SWIDTH 480 0
DWIDTH 8 0
BBX 9 12 1 0
BITMAP
0400
3580
3900
0000
6300
6300
6600
6600
E600
CE00
FC00
7800
ENDCHAR
STARTCHAR 1FE4
ENCODING 8164
SWIDTH 480 0
DWIDTH 8 0
BBX 8 15 0 -3
BITMAP
03
03
06
00
0E
3F
33
33
63
63
7E
7C
E0
C0
C0
ENDCHAR
STARTCHAR 1FE5
ENCODING 8165
SWIDTH 480 0
DWIDTH 8 0
BBX 8 15 0 -3
BITMAP
06
06
02
00
0E
3F
33
33
63
63
7E
7C
E0
C0
C0
ENDCHAR
STARTCHAR 1FE6
ENCODING 8166
SWIDTH 480 0
DWIDTH 8 0
BBX 8 11 1 0
BITMAP
1E
12
00
63
63
66
66
E6
CE
FC
78
ENDCHAR
STARTCHAR 1FE7
ENCODING 8167
SWIDTH 480 0
DWIDTH 8 0
BBX 8 14 1 0
BITMAP
06
1F
11
13
1B
00
63
63
66
66
E6
CE
FC
78
ENDCHAR
STARTCHAR 1FE8
ENCODING 8168
SWIDTH 480 0
DWIDTH 8 0
BBX 8 14 2 0
BITMAP
12
1E
0C
00
C3
66
6E
6C
78
30
30
70
60
60
ENDCHAR
STARTCHAR 1FE9
ENCODING 8169
SWIDTH 480 0
DWIDTH 8 0
BBX 8 13 2 0
BITMAP
3E
00
00
C3
66
6E
6C
78
30
30
70
60
60
ENDCHAR
STARTCHAR 1FEA
ENCODING 8170
SWIDTH 480 0
DWIDTH 8 0
BBX 12 10 -2 1
BITMAP
EC30
7660
06E0
06C0
0780
0300
0300
0700
0600
0600
ENDCHAR
STARTCHAR 1FEB
ENCODING 8171
SWIDTH 480 0
DWIDTH 8 0
BBX 12 10 -2 1
BITMAP
7C30
C660
06E0
06C0
0780
0300
0300
0700
0600
0600
ENDCHAR
STARTCHAR 1FEC
ENCODING 8172
SWIDTH 480 0
DWIDTH 8 0
BBX 9 11 0 0
BITMAP
C000
9F80
D980
3180
3180
3380
3F00
7000
6000
6000
6000
ENDCHAR
STARTCHAR 1FED
ENCODING 8173
SWIDTH 480 0
DWIDTH 8 0
BBX 7 3 3 9
BITMAP
20
F6
D4
ENDCHAR
STARTCHAR 1FEE
ENCODING 8174
SWIDTH 480 0
DWIDTH 8 0
BBX 7 3 3 9
BITMAP
10
D6
E4
ENDCHAR
STARTCHAR 1FEF
ENCODING 8175
SWIDTH 480 0
DWIDTH 8 0
BBX 4 2 4 10
BITMAP
E0
70
ENDCHAR
STARTCHAR 1FF2
ENCODING 8178
SWIDTH 480 0
DWIDTH 8 0
BBX 8 14 1 -2
BITMAP
1C
0C
00
22
63
C3
DB
DB
92
FE
FE
00
30
30
ENDCHAR
STARTCHAR 1FF3
ENCODING 8179
SWIDTH 480 0
DWIDTH 8 0
BBX 8 11 1 -3
BITMAP
22
63
C3
DB
DB
92
FE
FE
00
30
30
ENDCHAR
STARTCHAR 1FF4
ENCODING 8180
SWIDTH 480 0
DWIDTH 8 0
BBX 8 14 1 -2
BITMAP
0E
0C
00
22
63
C3
DB
DB
92
FE
FE
00
30
30
ENDCHAR
STARTCHAR 1FF6
ENCODING 8182
SWIDTH 480 0
DWIDTH 8 0
BBX 8 11 1 0
BITMAP
1E
12
00
22
63
C3
DB
DB
92
FE
FE
ENDCHAR
STARTCHAR 1FF7
ENCODING 8183
SWIDTH 480 0
DWIDTH 8 0
BBX 8 14 1 -3
BITMAP
1E
12
00
22
63
C3
DB
DB
92
FE
FE
00
30
30
ENDCHAR
STARTCHAR 1FF8
ENCODING 8184
SWIDTH 480 0
DWIDTH 8 0
BBX 11 11 -2 0
BITMAP
0180
E7C0
3660
0C60
0C60
1860
1860
18C0
18C0
1F80
0F00
ENDCHAR
STARTCHAR 1FF9
ENCODING 8185
SWIDTH 480 0
DWIDTH 8 0
BBX 10 11 -1 0
BITMAP
0300
6F80
CCC0
18C0
18C0
30C0
30C0
3180
3180
3F00
1E00
ENDCHAR
STARTCHAR 1FFA
ENCODING 8186
SWIDTH 480 0
DWIDTH 8 0
BBX 11 11 -2 0
BITMAP
0180
E7E0
7E60
0C60
0C60
1860
1860
18C0
0880
3DC0
3FC0
ENDCHAR
STARTCHAR 1FFB
ENCODING 8187
SWIDTH 480 0
DWIDTH 8 0
BBX 11 11 -2 0
BITMAP
0180
77E0
EE60
0C60
0C60
1860
1860
18C0
0880
3DC0
3FC0
ENDCHAR
STARTCHAR 1FFC
ENCODING 8188
SWIDTH 480 0
DWIDTH 8 0
BBX 9 11 0 0
BITMAP
0800
1E00
3600
2680
6780
6580
6D00
4D00
4B00
DB00
DB00
ENDCHAR
STARTCHAR 1FFD
ENCODING 8189
SWIDTH 480 0
DWIDTH 8 0
BBX 3 2 5 10
BITMAP
E0
C0
ENDCHAR
STARTCHAR 1FFE
ENCODING 8190
SWIDTH 480 0
DWIDTH 8 0
BBX 2 3 5 9
BITMAP
C0
80
40
ENDCHAR
STARTCHAR 2013
ENCODING 8211
SWIDTH 480 0
DWIDTH 8 0
BBX 6 1 2 4
BITMAP
FC
ENDCHAR
STARTCHAR 2014
ENCODING 8212
SWIDTH 480 0
DWIDTH 8 0
BBX 8 1 1 4
BITMAP
FF
ENDCHAR
STARTCHAR 2015
ENCODING 8213
SWIDTH 480 0
DWIDTH 8 0
BBX 8 1 1 4
BITMAP
FF
ENDCHAR
STARTCHAR 2018
ENCODING 8216
SWIDTH 480 0
DWIDTH 8 0
BBX 4 5 4 7
BITMAP
30
60
E0
E0
60
ENDCHAR
STARTCHAR 2019
ENCODING 8217
SWIDTH 480 0
DWIDTH 8 0
BBX 4 5 4 7
BITMAP
70
70
30
60
C0
ENDCHAR
STARTCHAR 201A
ENCODING 8218
SWIDTH 480 0
DWIDTH 8 0
BBX 4 5 2 -3
BITMAP
60
70
70
20
C0
ENDCHAR
STARTCHAR 201C
ENCODING 8220
SWIDTH 480 0
DWIDTH 8 0
BBX 7 5 3 7
BITMAP
02
6E
88
CC
CC
ENDCHAR
STARTCHAR 201D
ENCODING 8221
SWIDTH 480 0
DWIDTH 8 0
BBX 8 5 2 7
BITMAP
22
77
77
22
CC
ENDCHAR
STARTCHAR 201E
ENCODING 8222
SWIDTH 480 0
DWIDTH 8 0
BBX 7 4 0 -2
BITMAP
66
76
22
EC
ENDCHAR
STARTCHAR 2020
ENCODING 8224
SWIDTH 480 0
DWIDTH 8 0
BBX 6 12 2 -2
BITMAP
18
18
18
FC
30
30
30
20
60
60
60
40
ENDCHAR
STARTCHAR 2021
ENCODING 8225
SWIDTH 480 0
DWIDTH 8 0
BBX 7 12 1 -2
BITMAP
0C
0C
0C
7E
18
18
18
FC
30
30
30
20
ENDCHAR
STARTCHAR 2022
ENCODING 8226
SWIDTH 480 0
DWIDTH 8 0
BBX 4 5 3 3
BITMAP
60
F0
F0
F0
70
ENDCHAR
STARTCHAR 2026
ENCODING 8230
SWIDTH 480 0
DWIDTH 8 0
BBX 8 2 0 0
BITMAP
5B
DB
ENDCHAR
STARTCHAR 2030
ENCODING 8240
SWIDTH 480 0
DWIDTH 8 0
BBX 8 11 1 0
BITMAP
20
70
50
51
6E
30
C0
77
5D
DA
6E
ENDCHAR
STARTCHAR 2039
ENCODING 8249
SWIDTH 480 0
DWIDTH 8 0
BBX 4 7 3 1
BITMAP
10
30
60
C0
C0
60
60
ENDCHAR
STARTCHAR 203A
ENCODING 8250
SWIDTH 480 0
DWIDTH 8 0
BBX 5 7 2 1
BITMAP
20
30
30
38
30
60
C0
ENDCHAR
STARTCHAR 2044
ENCODING 8260
SWIDTH 480 0
DWIDTH 8 0
BBX 8 10 1 0
BITMAP
03
03
06
0C
18
18
30
60
C0
C0
ENDCHAR
STARTCHAR 2070
ENCODING 8304
SWIDTH 480 0
DWIDTH 8 0
BBX 5 7 3 4
BITMAP
10
78
C8
E8
D8
F0
60
ENDCHAR
STARTCHAR 2074
ENCODING 8308
SWIDTH 480 0
DWIDTH 8 0
BBX 5 6 3 4
BITMAP
18
78
50
F8
10
30
ENDCHAR
STARTCHAR 2075
ENCODING 8309
SWIDTH 480 0
DWIDTH 8 0
BBX 5 6 3 4
BITMAP
38
60
70
18
F0
60
ENDCHAR
STARTCHAR 2076
ENCODING 8310
SWIDTH 480 0
DWIDTH 8 0
BBX 5 6 3 4
BITMAP
38
40
F0
98
F0
60
ENDCHAR
STARTCHAR 2077
ENCODING 8311
SWIDTH 480 0
DWIDTH 8 0
BBX 4 6 4 4
BITMAP
F0
30
60
C0
C0
80
ENDCHAR
STARTCHAR 2078
ENCODING 8312
SWIDTH 480 0
DWIDTH 8 0
BBX 5 7 3 4
BITMAP
10
78
48
70
D8
F8
60
ENDCHAR
STARTCHAR 2079
ENCODING 8313
SWIDTH 480 0
DWIDTH 8 0
BBX 5 7 3 4
BITMAP
10
78
48
78
18
F0
80
ENDCHAR
STARTCHAR 2080
ENCODING 8320
SWIDTH 480 0
DWIDTH 8 0
BBX 5 6 2 0
BITMAP
38
48
E8
E8
D8
F0
ENDCHAR
STARTCHAR 2081
ENCODING 8321
SWIDTH 480 0
DWIDTH 8 0
BBX 4 6 2 0
BITMAP
30
F0
30
20
20
F0
ENDCHAR
STARTCHAR 2082
ENCODING 8322
SWIDTH 480 0
DWIDTH 8 0
BBX 5 6 2 0
BITMAP
78
58
18
70
C0
F0
ENDCHAR
STARTCHAR 2083
ENCODING 8323
SWIDTH 480 0
DWIDTH 8 0
BBX 5 6 2 0
BITMAP
78
58
30
78
98
F0
ENDCHAR
STARTCHAR 2084
ENCODING 8324
SWIDTH 480 0
DWIDTH 8 0
BBX 5 6 2 0
BITMAP
18
38
58
F8
F8
30
ENDCHAR
STARTCHAR 2085
ENCODING 8325
SWIDTH 480 0
DWIDTH 8 0
BBX 5 6 2 0
BITMAP
38
60
70
18
90
F0
ENDCHAR
STARTCHAR 2086
ENCODING 8326
SWIDTH 480 0
DWIDTH 8 0
BBX 5 6 2 0
BITMAP
38
60
F0
D8
D0
70
ENDCHAR
STARTCHAR 2087
ENCODING 8327
SWIDTH 480 0
DWIDTH 8 0
BBX 5 6 3 0
BITMAP
F8
30
60
40
C0
80
ENDCHAR
STARTCHAR 2088
ENCODING 8328
SWIDTH 480 0
DWIDTH 8 0
BBX 5 6 2 0
BITMAP
78
48
78
D8
98
F0
ENDCHAR
STARTCHAR 2089
ENCODING 8329
SWIDTH 480 0
DWIDTH 8 0
BBX 5 6 2 0
BITMAP
78
48
48
78
30
E0
ENDCHAR
STARTCHAR 20AC
ENCODING 8364
SWIDTH 480 0
DWIDTH 8 0
BBX 9 11 1 0
BITMAP
0300
0F80
1800
3000
7E00
6000
FC00
FC00
6000
3E00
3E00
ENDCHAR
STARTCHAR 20AE
ENCODING 8366
SWIDTH 480 0
DWIDTH 8 0
BBX 8 10 2 0
BITMAP
FF
18
18
3C
70
F0
3C
E0
E0
60
ENDCHAR
STARTCHAR 20B4
ENCODING 8372
SWIDTH 480 0
DWIDTH 8 0
BBX 8 11 1 0
BITMAP
0C
3E
07
02
FF
1C
FF
FE
C0
FC
7C
ENDCHAR
STARTCHAR 20B9
ENCODING 8377
SWIDTH 480 0
DWIDTH 8 0
BBX 8 10 2 0
BITMAP
7F
0C
FE
FE
18
F0
C0
E0
60
30
ENDCHAR
STARTCHAR 2113
ENCODING 8467
SWIDTH 480 0
DWIDTH 8 0
BBX 6 12 2 0
BITMAP
10
38
6C
4C
48
48
50
60
40
C0
60
3C
ENDCHAR
STARTCHAR 2116
ENCODING 8470
SWIDTH 480 0
DWIDTH 8 0
BBX 10 11 0 0
BITMAP
0080
35C0
3540
3740
3F80
7900
5800
5F80
5F80
D800
D000
ENDCHAR
STARTCHAR 2122
ENCODING 8482
SWIDTH 480 0
DWIDTH 8 0
BBX 8 4 2 6
BITMAP
EA
5E
56
51
ENDCHAR
STARTCHAR 2126
ENCODING 8486
SWIDTH 480 0
DWIDTH 8 0
BBX 9 11 0 0
BITMAP
0600
1F80
3980
3180
3180
6180
6180
6300
2200
F700
FF00
ENDCHAR
STARTCHAR 212E
ENCODING 8494
SWIDTH 480 0
DWIDTH 8 0
BBX 7 6 1 1
BITMAP
7C
82
82
FC
80
7C
ENDCHAR
STARTCHAR 2153
ENCODING 8531
SWIDTH 480 0
DWIDTH 8 0
BBX 8 10 1 0
BITMAP
73
72
24
2C
18
10
2E
66
C2
8E
ENDCHAR
STARTCHAR 2154
ENCODING 8532
SWIDTH 480 0
DWIDTH 8 0
BBX 8 11 1 0
BITMAP
20
71
32
46
FC
08
10
3E
66
42
8E
ENDCHAR
STARTCHAR 2155
ENCODING 8533
SWIDTH 480 0
DWIDTH 8 0
BBX 8 10 1 0
BITMAP
73
72
24
2C
18
10
26
6E
C2
8E
ENDCHAR
STARTCHAR 2156
ENCODING 8534
SWIDTH 480 0
DWIDTH 8 0
BBX 8 11 1 0
BITMAP
20
71
33
46
FC
08
18
36
6E
42
CE
ENDCHAR
STARTCHAR 2157
ENCODING 8535
SWIDTH 480 0
DWIDTH 8 0
BBX 8 11 1 0
BITMAP
30
51
33
16
FC
08
18
36
6E
42
CE
ENDCHAR
STARTCHAR 2158
ENCODING 8536
SWIDTH 480 0
DWIDTH 8 0
BBX 8 10 1 0
BITMAP
31
53
F6
3C
08
18
36
6E
42
CE
ENDCHAR
STARTCHAR 2159
ENCODING 8537
SWIDTH 480 0
DWIDTH 8 0
BBX 8 10 1 0
BITMAP
73
72
24
2C
18
10
2E
6E
DA
8E
ENDCHAR
STARTCHAR 215A
ENCODING 8538
SWIDTH 480 0
DWIDTH 8 0
BBX 8 10 1 0
BITMAP
33
72
16
EC
18
10
3E
6E
DA
8E
ENDCHAR
STARTCHAR 215B
ENCODING 8539
SWIDTH 480 0
DWIDTH 8 0
BBX 8 10 1 0
BITMAP
73
72
24
2C
18
10
2F
6E
CA
8E
ENDCHAR
STARTCHAR 215C
ENCODING 8540
SWIDTH 480 0
DWIDTH 8 0
BBX 8 11 1 0
BITMAP
30
51
32
16
FC
08
10
3F
6E
4A
8E
ENDCHAR
STARTCHAR 215D
ENCODING 8541
SWIDTH 480 0
DWIDTH 8 0
BBX 8 10 1 0
BITMAP
33
72
16
EC
18
10
3F
6E
CA
8E
ENDCHAR
STARTCHAR 215E
ENCODING 8542
SWIDTH 480 0
DWIDTH 8 0
BBX 9 10 0 0
BITMAP
3D80
1B00
1200
3600
0C00
1800
1780
3700
6500
C700
ENDCHAR
STARTCHAR 2202
ENCODING 8706
SWIDTH 480 0
DWIDTH 8 0
BBX 8 12 1 0
BITMAP
08
3E
27
03
0B
3F
63
C3
C6
C6
FC
78
ENDCHAR
STARTCHAR 2206
ENCODING 8710
SWIDTH 480 0
DWIDTH 8 0
BBX 8 10 0 0
BITMAP
06
0F
0B
1B
13
33
23
63
7F
FF
ENDCHAR
STARTCHAR 220F
ENCODING 8719
SWIDTH 480 0
DWIDTH 8 0
BBX 10 12 0 -2
BITMAP
1FC0
3980
3180
3180
3180
3300
6300
6300
6300
6600
C600
C600
ENDCHAR
STARTCHAR 2211
ENCODING 8721
SWIDTH 480 0
DWIDTH 8 0
BBX 10 12 0 -2
BITMAP
1FC0
1800
1800
0C00
0C00
0E00
0C00
1800
3000
6000
FE00
FE00
ENDCHAR
STARTCHAR 2212
ENCODING 8722
SWIDTH 480 0
DWIDTH 8 0
BBX 7 1 1 4
BITMAP
FE
ENDCHAR
STARTCHAR 2215
ENCODING 8725
SWIDTH 480 0
DWIDTH 8 0
BBX 8 10 1 0
BITMAP
03
03
06
0C
18
18
30
60
C0
C0
ENDCHAR
STARTCHAR 2219
ENCODING 8729
SWIDTH 480 0
DWIDTH 8 0
BBX 3 3 3 3
BITMAP
60
E0
60
ENDCHAR
STARTCHAR 221A
ENCODING 8730
SWIDTH 480 0
DWIDTH 8 0
BBX 10 12 1 0
BITMAP
00C0
0180
0180
0300
0300
0600
6600
EC00
2C00
3800
3800
3000
ENDCHAR
STARTCHAR 221E
ENCODING 8734
SWIDTH 480 0
DWIDTH 8 0
BBX 8 5 1 2
BITMAP
66
FF
DB
FF
EE
ENDCHAR
STARTCHAR 222B
ENCODING 8747
SWIDTH 480 0
DWIDTH 8 0
BBX 9 15 0 -3
BITMAP
0180
0780
0600
0600
0C00
0C00
0C00
0C00
1C00
1800
1800
1800
3800
F000
E000
ENDCHAR
STARTCHAR 2248
ENCODING 8776
SWIDTH 480 0
DWIDTH 8 0
BBX 8 7 1 1
BITMAP
31
7F
4F
00
73
FE
9C
ENDCHAR
STARTCHAR 2260
ENCODING 8800
SWIDTH 480 0
DWIDTH 8 0
BBX 8 9 1 0
BITMAP
01
02
7F
7F
08
7F
FE
60
40
ENDCHAR
STARTCHAR 2264
ENCODING 8804
SWIDTH 480 0
DWIDTH 8 0
BBX 9 9 1 0
BITMAP
0380
1F00
7800
7000
3C00
0E00
0000
FE00
FE00
ENDCHAR
STARTCHAR 2265
ENCODING 8805
SWIDTH 480 0
DWIDTH 8 0
BBX 8 9 1 0
BITMAP
30
3C
0F
07
3E
70
00
FE
FE
ENDCHAR
STARTCHAR 2500
ENCODING 9472
SWIDTH 480 0
DWIDTH 8 0
BBX 8 1 0 5
BITMAP
FF
ENDCHAR
STARTCHAR 2502
ENCODING 9474
SWIDTH 480 0
DWIDTH 8 0
BBX 2 17 3 -3
BITMAP
C0
C0
C0
C0
C0
C0
C0
C0
C0
C0
C0
C0
C0
C0
C0
C0
C0
ENDCHAR
STARTCHAR 250C
ENCODING 9484
SWIDTH 480 0
DWIDTH 8 0
BBX 5 9 3 -3
BITMAP
F8
C0
C0
C0
C0
C0
C0
C0
C0
ENDCHAR
STARTCHAR 2510
ENCODING 9488
SWIDTH 480 0
DWIDTH 8 0
BBX 5 9 0 -3
BITMAP
F8
18
18
18
18
18
18
18
18
ENDCHAR
STARTCHAR 2514
ENCODING 9492
SWIDTH 480 0
DWIDTH 8 0
BBX 5 9 3 5
BITMAP
C0
C0
C0
C0
C0
C0
C0
C0
F8
ENDCHAR
STARTCHAR 2518
ENCODING 9496
SWIDTH 480 0
DWIDTH 8 0
BBX 5 9 0 5
BITMAP
18
18
18
18
18
18
18
18
F8
ENDCHAR
STARTCHAR 251C
ENCODING 9500
SWIDTH 480 0
DWIDTH 8 0
BBX 5 17 3 -3
BITMAP
C0
C0
C0
C0
C0
C0
C0
C0
F8
C0
C0
C0
C0
C0
C0
C0
C0
ENDCHAR
STARTCHAR 2524
ENCODING 9508
SWIDTH 480 0
DWIDTH 8 0
BBX 5 17 0 -3
BITMAP
18
18
18
18
18
18
18
18
F8
18
18
18
18
18
18
18
18
ENDCHAR
STARTCHAR 252C
ENCODING 9516
SWIDTH 480 0
DWIDTH 8 0
BBX 8 9 0 -3
BITMAP
FF
18
18
18
18
18
18
18
18
ENDCHAR
STARTCHAR 2534
ENCODING 9524
SWIDTH 480 0
DWIDTH 8 0
BBX 8 9 0 5
BITMAP
18
18
18
18
18
18
18
18
FF
ENDCHAR
STARTCHAR 253C
ENCODING 9532
SWIDTH 480 0
DWIDTH 8 0
BBX 8 17 0 -3
BITMAP
18
18
18
18
18
18
18
18
FF
18
18
18
18
18
18
18
18
ENDCHAR
STARTCHAR 2550
ENCODING 9552
SWIDTH 480 0
DWIDTH 8 0
BBX 8 5 0 3
BITMAP
FF
FF
00
FF
FF
ENDCHAR
STARTCHAR 2551
ENCODING 9553
SWIDTH 480 0
DWIDTH 8 0
BBX 4 17 2 -3
BITMAP
D0
D0
D0
D0
D0
D0
D0
D0
D0
D0
D0
D0
D0
D0
D0
D0
D0
ENDCHAR
STARTCHAR 2552
ENCODING 9554
SWIDTH 480 0
DWIDTH 8 0
BBX 5 11 3 -3
BITMAP
F8
F8
00
F8
F8
C0
C0
C0
C0
C0
C0
ENDCHAR
STARTCHAR 2553
ENCODING 9555
SWIDTH 480 0
DWIDTH 8 0
BBX 6 9 2 -3
BITMAP
DC
D0
D0
D0
D0
D0
D0
D0
D0
ENDCHAR
STARTCHAR 2554
ENCODING 9556
SWIDTH 480 0
DWIDTH 8 0
BBX 6 11 2 -3
BITMAP
FC
FC
C0
DC
DC
D0
D0
D0
D0
D0
D0
ENDCHAR
STARTCHAR 2555
ENCODING 9557
SWIDTH 480 0
DWIDTH 8 0
BBX 5 11 0 -3
BITMAP
F8
F8
00
F8
F8
18
18
18
18
18
18
ENDCHAR
STARTCHAR 2556
ENCODING 9558
SWIDTH 480 0
DWIDTH 8 0
BBX 6 9 0 -3
BITMAP
F4
34
34
34
34
34
34
34
34
ENDCHAR
STARTCHAR 2557
ENCODING 9559
SWIDTH 480 0
DWIDTH 8 0
BBX 6 11 0 -3
BITMAP
FC
FC
04
F4
F4
34
34
34
34
34
34
ENDCHAR
STARTCHAR 2558
ENCODING 9560
SWIDTH 480 0
DWIDTH 8 0
BBX 5 11 3 3
BITMAP
C0
C0
C0
C0
C0
C0
F8
F8
00
F8
F8
ENDCHAR
STARTCHAR 2559
ENCODING 9561
SWIDTH 480 0
DWIDTH 8 0
BBX 6 9 2 5
BITMAP
D0
D0
D0
D0
D0
D0
D0
D0
DC
ENDCHAR
STARTCHAR 255A
ENCODING 9562
SWIDTH 480 0
DWIDTH 8 0
BBX 6 11 2 3
BITMAP
D0
D0
D0
D0
D0
D0
DC
DC
C0
FC
FC
ENDCHAR
STARTCHAR 255B
ENCODING 9563
SWIDTH 480 0
DWIDTH 8 0
BBX 5 11 0 3
BITMAP
18
18
18
18
18
18
F8
F8
00
F8
F8
ENDCHAR
STARTCHAR 255C
ENCODING 9564
SWIDTH 480 0
DWIDTH 8 0
BBX 6 9 0 5
BITMAP
34
34
34
34
34
34
34
34
F4
ENDCHAR
STARTCHAR 255D
ENCODING 9565
SWIDTH 480 0
DWIDTH 8 0
BBX 6 11 0 3
BITMAP
34
34
34
34
34
34
F4
F4
04
FC
FC
ENDCHAR
STARTCHAR 255E
ENCODING 9566
SWIDTH 480 0
DWIDTH 8 0
BBX 5 17 3 -3
BITMAP
C0
C0
C0
C0
C0
C0
F8
F8
00
F8
F8
C0
C0
C0
C0
C0
C0
ENDCHAR
STARTCHAR 255F
ENCODING 9567
SWIDTH 480 0
DWIDTH 8 0
BBX 6 17 2 -3
BITMAP
D0
D0
D0
D0
D0
D0
D0
D0
DC
D0
D0
D0
D0
D0
D0
D0
D0
ENDCHAR
STARTCHAR 2560
ENCODING 9568
SWIDTH 480 0
DWIDTH 8 0
BBX 6 17 2 -3
BITMAP
D0
D0
D0
D0
D0
D0
DC
DC
C0
DC
DC
D0
D0
D0
D0
D0
D0
ENDCHAR
STARTCHAR 2561
ENCODING 9569
SWIDTH 480 0
DWIDTH 8 0
BBX 5 17 0 -3
BITMAP
18
18
18
18
18
18
F8
F8
00
F8
F8
18
18
18
18
18
18
ENDCHAR
STARTCHAR 2562
ENCODING 9570
SWIDTH 480 0
DWIDTH 8 0
BBX 6 17 0 -3
BITMAP
34
34
34
34
34
34
34
34
F4
34
34
34
34
34
34
34
34
ENDCHAR
STARTCHAR 2563
ENCODING 9571
SWIDTH 480 0
DWIDTH 8 0
BBX 6 17 0 -3
BITMAP
34
34
34
34
34
34
F4
F4
04
F4
F4
34
34
34
34
34
34
ENDCHAR
STARTCHAR 2564
ENCODING 9572
SWIDTH 480 0
DWIDTH 8 0
BBX 8 11 0 -3
BITMAP
FF
FF
00
FF
FF
18
18
18
18
18
18
ENDCHAR
STARTCHAR 2565
ENCODING 9573
SWIDTH 480 0
DWIDTH 8 0
BBX 8 9 0 -3
BITMAP
FF
34
34
34
34
34
34
34
34
ENDCHAR
STARTCHAR 2566
ENCODING 9574
SWIDTH 480 0
DWIDTH 8 0
BBX 8 11 0 -3
BITMAP
FF
FF
00
F7
F7
34
34
34
34
34
34
ENDCHAR
STARTCHAR 2567
ENCODING 9575
SWIDTH 480 0
DWIDTH 8 0
BBX 8 11 0 3
BITMAP
18
18
18
18
18
18
FF
FF
00
FF
FF
ENDCHAR
STARTCHAR 2568
ENCODING 9576
SWIDTH 480 0
DWIDTH 8 0
BBX 8 9 0 5
BITMAP
34
34
34
34
34
34
34
34
FF
ENDCHAR
STARTCHAR 2569
ENCODING 9577
SWIDTH 480 0
DWIDTH 8 0
BBX 8 11 0 3
BITMAP
34
34
34
34
34
34
F7
F7
00
FF
FF
ENDCHAR
STARTCHAR 256A
ENCODING 9578
SWIDTH 480 0
DWIDTH 8 0
BBX 8 17 0 -3
BITMAP
18
18
18
18
18
18
FF
FF
18
FF
FF
18
18
18
18
18
18
ENDCHAR
STARTCHAR 256B
ENCODING 9579
SWIDTH 480 0
DWIDTH 8 0
BBX 8 17 0 -3
BITMAP
34
34
34
34
34
34
34
34
FF
34
34
34
34
34
34
34
34
ENDCHAR
STARTCHAR 256C
ENCODING 9580
SWIDTH 480 0
DWIDTH 8 0
BBX 8 17 0 -3
BITMAP
34
34
34
34
34
34
F7
F7
00
F7
F7
34
34
34
34
34
34
ENDCHAR
STARTCHAR 2588
ENCODING 9608
SWIDTH 480 0
DWIDTH 8 0
BBX 8 17 0 -3
BITMAP
FF
FF
FF
FF
FF
FF
FF
FF
FF
FF
FF
FF
FF
FF
FF
FF
FF
ENDCHAR
STARTCHAR 2591
ENCODING 9617
SWIDTH 480 0
DWIDTH 8 0
BBX 7 15 0 -2
BITMAP
84
4A
00
00
4A
84
00
00
84
4A
00
00
4A
84
4A
ENDCHAR
STARTCHAR 2592
ENCODING 9618
SWIDTH 480 0
DWIDTH 8 0
BBX 8 15 0 -2
BITMAP
CE
33
00
00
33
CE
00
00
CE
33
00
00
33
CE
33
ENDCHAR
STARTCHAR 2593
ENCODING 9619
SWIDTH 480 0
DWIDTH 8 0
BBX 8 17 0 -3
BITMAP
FF
FF
EF
FF
FF
FF
EF
FF
FF
FF
EF
FF
FF
FF
FF
EF
DE
ENDCHAR
STARTCHAR 25CA
ENCODING 9674
SWIDTH 480 0
DWIDTH 8 0
BBX 6 10 2 1
BITMAP
18
38
7C
6C
C4
CC
D8
70
70
60
ENDCHAR
STARTCHAR E0FF
ENCODING 57599
SWIDTH 480 0
DWIDTH 8 0
BBX 6 7 3 5
BITMAP
20
F8
BC
F4
BC
E8
70
ENDCHAR
STARTCHAR EFFD
ENCODING 61437
SWIDTH 480 0
DWIDTH 8 0
BBX 10 11 0 0
BITMAP
1080
7BC0
4A40
EB80
DEC0
F7C0
6300
0000
1800
3800
3800
ENDCHAR
STARTCHAR F000
ENCODING 61440
SWIDTH 480 0
DWIDTH 8 0
BBX 14 12 -3 0
BITMAP
7CFC
8000
8504
8504
8504
8000
3878
8000
8504
8504
8000
3878
ENDCHAR
STARTCHAR F001
ENCODING 61441
SWIDTH 480 0
DWIDTH 8 0
BBX 12 15 -2 -3
BITMAP
0180
07B0
0670
0400
1F60
1F60
0C60
0CC0
18C0
18C0
18C0
1880
1800
7000
E000
ENDCHAR
STARTCHAR F002
ENCODING 61442
SWIDTH 480 0
DWIDTH 8 0
BBX 12 15 -2 -3
BITMAP
0180
07B0
0630
0460
1F60
1F60
0C60
0CC0
18C0
18C0
18E0
18C0
1800
7000
E000
ENDCHAR
STARTCHAR F506
ENCODING 62726
SWIDTH 480 0
DWIDTH 8 0
BBX 8 10 1 0
BITMAP
73
72
24
2C
18
10
2F
62
C4
8C
ENDCHAR
STARTCHAR F507
ENCODING 62727
SWIDTH 480 0
DWIDTH 8 0
BBX 8 11 1 0
BITMAP
20
71
32
46
FC
08
10
3F
62
44
8C
ENDCHAR
STARTCHAR F508
ENCODING 62728
SWIDTH 480 0
DWIDTH 8 0
BBX 8 11 1 0
BITMAP
30
51
32
16
FC
08
10
3F
62
44
8C
ENDCHAR
STARTCHAR F509
ENCODING 62729
SWIDTH 480 0
DWIDTH 8 0
BBX 8 10 1 0
BITMAP
31
52
F6
3C
08
10
3F
62
44
8C
ENDCHAR
STARTCHAR F50A
ENCODING 62730
SWIDTH 480 0
DWIDTH 8 0
BBX 8 10 1 0
BITMAP
31
72
16
EC
08
10
3F
62
44
8C
ENDCHAR
STARTCHAR F50B
ENCODING 62731
SWIDTH 480 0
DWIDTH 8 0
BBX 8 10 1 1
BITMAP
71
72
56
7C
08
10
3F
62
44
8C
ENDCHAR
STARTCHAR F50C
ENCODING 62732
SWIDTH 480 0
DWIDTH 8 0
BBX 8 10 1 0
BITMAP
73
72
24
2C
18
10
2F
6B
C6
8C
ENDCHAR
STARTCHAR F50D
ENCODING 62733
SWIDTH 480 0
DWIDTH 8 0
BBX 8 11 1 0
BITMAP
20
71
33
46
FC
08
18
3F
6B
46
CC
ENDCHAR
STARTCHAR F50E
ENCODING 62734
SWIDTH 480 0
DWIDTH 8 0
BBX 8 10 1 0
BITMAP
31
53
F6
3C
08
18
3F
6B
46
CC
ENDCHAR
STARTCHAR F50F
ENCODING 62735
SWIDTH 480 0
DWIDTH 8 0
BBX 8 10 1 0
BITMAP
33
72
16
EC
18
10
3F
6B
C6
8C
ENDCHAR
STARTCHAR F510
ENCODING 62736
SWIDTH 480 0
DWIDTH 8 0
BBX 9 10 0 0
BITMAP
3D80
1B00
1200
3600
0C00
1800
1780
3580
6300
C600
ENDCHAR
STARTCHAR F511
ENCODING 62737
SWIDTH 480 0
DWIDTH 8 0
BBX 8 11 1 0
BITMAP
20
53
72
D6
6C
18
10
3F
6B
C6
8C
ENDCHAR
STARTCHAR F80A
ENCODING 63498
SWIDTH 480 0
DWIDTH 8 0
BBX 6 6 3 6
BITMAP
38
6C
5C
C8
78
70
ENDCHAR
STARTCHAR F80B
ENCODING 63499
SWIDTH 480 0
DWIDTH 8 0
BBX 5 6 3 6
BITMAP
38
70
30
30
F8
F8
ENDCHAR
STARTCHAR F80C
ENCODING 63500
SWIDTH 480 0
DWIDTH 8 0
BBX 5 6 3 6
BITMAP
78
08
18
70
78
F8
ENDCHAR
STARTCHAR F80D
ENCODING 63501
SWIDTH 480 0
DWIDTH 8 0
BBX 5 6 3 6
BITMAP
78
08
30
18
58
F0
ENDCHAR
STARTCHAR F80E
ENCODING 63502
SWIDTH 480 0
DWIDTH 8 0
BBX 5 6 3 6
BITMAP
18
38
68
F8
10
10
ENDCHAR
STARTCHAR F80F
ENCODING 63503
SWIDTH 480 0
DWIDTH 8 0
BBX 5 6 4 6
BITMAP
78
40
F0
30
F0
E0
ENDCHAR
STARTCHAR F810
ENCODING 63504
SWIDTH 480 0
DWIDTH 8 0
BBX 5 6 3 6
BITMAP
38
60
78
D8
58
70
ENDCHAR
STARTCHAR F811
ENCODING 63505
SWIDTH 480 0
DWIDTH 8 0
BBX 5 6 4 6
BITMAP
F8
10
20
60
C0
C0
ENDCHAR
STARTCHAR F812
ENCODING 63506
SWIDTH 480 0
DWIDTH 8 0
BBX 6 6 3 6
BITMAP
3C
6C
38
58
D8
70
ENDCHAR
STARTCHAR F813
ENCODING 63507
SWIDTH 480 0
DWIDTH 8 0
BBX 5 6 4 6
BITMAP
70
D8
D8
70
E0
C0
ENDCHAR
STARTCHAR F814
ENCODING 63508
SWIDTH 480 0
DWIDTH 8 0
BBX 5 6 2 -2
BITMAP
70
D8
B8
98
F0
E0
ENDCHAR
STARTCHAR F815
ENCODING 63509
SWIDTH 480 0
DWIDTH 8 0
BBX 5 6 1 -2
BITMAP
38
70
10
30
F8
F8
ENDCHAR
STARTCHAR F816
ENCODING 63510
SWIDTH 480 0
DWIDTH 8 0
BBX 4 6 2 -2
BITMAP
F0
10
30
E0
F0
F0
ENDCHAR
STARTCHAR F817
ENCODING 63511
SWIDTH 480 0
DWIDTH 8 0
BBX 4 6 2 -2
BITMAP
70
10
70
10
B0
E0
ENDCHAR
STARTCHAR F818
ENCODING 63512
SWIDTH 480 0
DWIDTH 8 0
BBX 5 6 2 -2
BITMAP
38
70
D0
F0
30
20
ENDCHAR
STARTCHAR F819
ENCODING 63513
SWIDTH 480 0
DWIDTH 8 0
BBX 5 6 2 -2
BITMAP
78
40
F0
30
F0
E0
ENDCHAR
STARTCHAR F81A
ENCODING 63514
SWIDTH 480 0
DWIDTH 8 0
BBX 5 6 2 -2
BITMAP
78
C0
F0
90
B0
E0
ENDCHAR
STARTCHAR F81B
ENCODING 63515
SWIDTH 480 0
DWIDTH 8 0
BBX 5 6 2 -2
BITMAP
78
10
30
60
40
C0
ENDCHAR
STARTCHAR F81C
ENCODING 63516
SWIDTH 480 0
DWIDTH 8 0
BBX 5 6 2 -2
BITMAP
78
D8
70
90
90
E0
ENDCHAR
STARTCHAR F81D
ENCODING 63517
SWIDTH 480 0
DWIDTH 8 0
BBX 5 6 2 -2
BITMAP
70
D8
D8
70
F0
C0
ENDCHAR
STARTCHAR FB01
ENCODING 64257
SWIDTH 480 0
DWIDTH 8 0
BBX 12 15 -2 -3
BITMAP
0180
07B0
0670
0400
1F60
1F60
0C60
0CC0
18C0
18C0
18C0
1880
1800
7000
E000
ENDCHAR
STARTCHAR FB02
ENCODING 64258
SWIDTH 480 0
DWIDTH 8 0
BBX 12 15 -2 -3
BITMAP
0180
07B0
0630
0460
1F60
1F60
0C60
0CC0
18C0
18C0
18E0
18C0
1800
7000
E000
ENDCHAR
STARTCHAR FFFD
ENCODING 65533
SWIDTH 480 0
DWIDTH 8 0
BBX 8 8 0 0
BITMAP
08
1C
22
7B
F7
7E
24
18
ENDCHAR
ENDFONT
